ISO-10303-21;
HEADER;
FILE_DESCRIPTION((''),'2;1');
FILE_NAME('550XX05_ASM','2011-03-04T',('ferriga'),(''),
'PRO/ENGINEER BY PARAMETRIC TECHNOLOGY CORPORATION, 2009140',
'PRO/ENGINEER BY PARAMETRIC TECHNOLOGY CORPORATION, 2009140','');
FILE_SCHEMA(('CONFIG_CONTROL_DESIGN'));
ENDSEC;
DATA;
#1=CARTESIAN_POINT('',(1.175E-1,1.175766402949E-1,0.E0));
#2=DIRECTION('',(0.E0,0.E0,-1.E0));
#3=DIRECTION('',(6.674207294194E-1,-7.446808510639E-1,0.E0));
#4=AXIS2_PLACEMENT_3D('',#1,#2,#3);
#6=CARTESIAN_POINT('',(1.175E-1,1.175766402949E-1,0.E0));
#7=DIRECTION('',(0.E0,0.E0,1.E0));
#8=DIRECTION('',(0.E0,1.E0,0.E0));
#9=AXIS2_PLACEMENT_3D('',#6,#7,#8);
#11=CARTESIAN_POINT('',(1.175E-1,1.175766402949E-1,0.E0));
#12=DIRECTION('',(0.E0,0.E0,1.E0));
#13=DIRECTION('',(0.E0,-1.E0,0.E0));
#14=AXIS2_PLACEMENT_3D('',#11,#12,#13);
#16=CARTESIAN_POINT('',(2.08E-1,2.080766402949E-1,0.E0));
#17=DIRECTION('',(0.E0,0.E0,1.E0));
#18=DIRECTION('',(1.E0,-1.289291254403E-13,0.E0));
#19=AXIS2_PLACEMENT_3D('',#16,#17,#18);
#21=CARTESIAN_POINT('',(2.08E-1,2.080766402949E-1,0.E0));
#22=DIRECTION('',(0.E0,0.E0,1.E0));
#23=DIRECTION('',(-1.E0,-1.289291254403E-13,0.E0));
#24=AXIS2_PLACEMENT_3D('',#21,#22,#23);
#26=DIRECTION('',(1.E0,0.E0,0.E0));
#27=VECTOR('',#26,2.35E-1);
#28=CARTESIAN_POINT('',(0.E0,2.350766402949E-1,0.E0));
#29=LINE('',#28,#27);
#30=DIRECTION('',(0.E0,-1.447616367019E-14,-1.E0));
#31=VECTOR('',#30,7.669317990035E-3);
#32=CARTESIAN_POINT('',(5.E-2,2.350766402949E-1,-2.223306820100E-1));
#33=LINE('',#32,#31);
#34=DIRECTION('',(0.E0,-1.E0,0.E0));
#35=VECTOR('',#34,2.05E-1);
#36=CARTESIAN_POINT('',(5.E-2,2.350766402949E-1,-2.3E-1));
#37=LINE('',#36,#35);
#38=DIRECTION('',(0.E0,-2.312101606530E-14,1.E0));
#39=VECTOR('',#38,4.381634903540E-2);
#40=CARTESIAN_POINT('',(5.E-2,3.007664029489E-2,-2.3E-1));
#41=LINE('',#40,#39);
#42=DIRECTION('',(0.E0,9.848077530121E-1,-1.736481776675E-1));
#43=VECTOR('',#42,2.081624554366E-1);
#44=CARTESIAN_POINT('',(8.5E-2,3.007664029489E-2,-1.861836509646E-1));
#45=LINE('',#44,#43);
#46=DIRECTION('',(-1.E0,0.E0,0.E0));
#47=VECTOR('',#46,3.5E-2);
#48=CARTESIAN_POINT('',(8.5E-2,2.350766402949E-1,-2.223306820100E-1));
#49=LINE('',#48,#47);
#50=DIRECTION('',(0.E0,-9.848077530121E-1,1.736481776675E-1));
#51=VECTOR('',#50,2.081624554366E-1);
#52=CARTESIAN_POINT('',(5.E-2,2.350766402949E-1,-2.223306820100E-1));
#53=LINE('',#52,#51);
#54=DIRECTION('',(-1.E0,-5.641616973487E-13,-2.363380083488E-13));
#55=VECTOR('',#54,1.092193570678E-2);
#56=CARTESIAN_POINT('',(5.E-2,3.007664029489E-2,-1.861836509646E-1));
#57=LINE('',#56,#55);
#58=DIRECTION('',(-1.E0,-9.189863684831E-13,2.363380083482E-13));
#59=VECTOR('',#58,1.092193570680E-2);
#60=CARTESIAN_POINT('',(1.959219357068E-1,3.007664029490E-2,
-1.861836509646E-1));
#61=LINE('',#60,#59);
#62=DIRECTION('',(0.E0,9.848077530121E-1,-1.736481776675E-1));
#63=VECTOR('',#62,2.081624554366E-1);
#64=CARTESIAN_POINT('',(1.85E-1,3.007664029489E-2,-1.861836509646E-1));
#65=LINE('',#64,#63);
#66=DIRECTION('',(-1.E0,0.E0,0.E0));
#67=VECTOR('',#66,3.5E-2);
#68=CARTESIAN_POINT('',(1.85E-1,2.350766402949E-1,-2.223306820100E-1));
#69=LINE('',#68,#67);
#70=DIRECTION('',(0.E0,-9.848077530121E-1,1.736481776675E-1));
#71=VECTOR('',#70,2.081624554366E-1);
#72=CARTESIAN_POINT('',(1.5E-1,2.350766402949E-1,-2.223306820100E-1));
#73=LINE('',#72,#71);
#74=DIRECTION('',(-1.E0,0.E0,0.E0));
#75=VECTOR('',#74,6.5E-2);
#76=CARTESIAN_POINT('',(1.5E-1,3.007664029489E-2,-1.861836509646E-1));
#77=LINE('',#76,#75);
#78=DIRECTION('',(-1.E0,0.E0,0.E0));
#79=VECTOR('',#78,2.E-2);
#80=CARTESIAN_POINT('',(7.75E-2,8.007664029461E-2,-1.95E-1));
#81=LINE('',#80,#79);
#82=DIRECTION('',(-1.E0,0.E0,0.E0));
#83=VECTOR('',#82,2.E-2);
#84=CARTESIAN_POINT('',(1.775E-1,8.007664029461E-2,-1.95E-1));
#85=LINE('',#84,#83);
#86=DIRECTION('',(0.E0,2.320019762717E-14,-1.E0));
#87=VECTOR('',#86,4.381634903540E-2);
#88=CARTESIAN_POINT('',(8.5E-2,3.007664029489E-2,-1.861836509646E-1));
#89=LINE('',#88,#87);
#90=DIRECTION('',(0.E0,1.E0,0.E0));
#91=VECTOR('',#90,2.05E-1);
#92=CARTESIAN_POINT('',(8.5E-2,3.007664029489E-2,-2.3E-1));
#93=LINE('',#92,#91);
#94=DIRECTION('',(0.E0,1.809520458774E-14,1.E0));
#95=VECTOR('',#94,7.669317990035E-3);
#96=CARTESIAN_POINT('',(8.5E-2,2.350766402949E-1,-2.3E-1));
#97=LINE('',#96,#95);
#98=DIRECTION('',(-1.E0,0.E0,0.E0));
#99=VECTOR('',#98,6.5E-2);
#100=CARTESIAN_POINT('',(1.5E-1,3.007664029489E-2,-2.3E-1));
#101=LINE('',#100,#99);
#102=DIRECTION('',(0.E0,1.809520458774E-14,1.E0));
#103=VECTOR('',#102,7.669317990035E-3);
#104=CARTESIAN_POINT('',(1.5E-1,2.350766402949E-1,-2.3E-1));
#105=LINE('',#104,#103);
#106=DIRECTION('',(0.E0,1.E0,0.E0));
#107=VECTOR('',#106,2.05E-1);
#108=CARTESIAN_POINT('',(1.5E-1,3.007664029489E-2,-2.3E-1));
#109=LINE('',#108,#107);
#110=DIRECTION('',(0.E0,2.320019762717E-14,-1.E0));
#111=VECTOR('',#110,4.381634903540E-2);
#112=CARTESIAN_POINT('',(1.5E-1,3.007664029489E-2,-1.861836509646E-1));
#113=LINE('',#112,#111);
#114=DIRECTION('',(1.E0,0.E0,0.E0));
#115=VECTOR('',#114,6.5E-2);
#116=CARTESIAN_POINT('',(8.5E-2,2.350766402949E-1,-2.3E-1));
#117=LINE('',#116,#115);
#118=DIRECTION('',(-1.E0,0.E0,0.E0));
#119=VECTOR('',#118,2.5E-2);
#120=CARTESIAN_POINT('',(5.E-2,3.007664029489E-2,-2.3E-1));
#121=LINE('',#120,#119);
#122=DIRECTION('',(1.E0,-4.307831776941E-13,-1.455659402887E-13));
#123=VECTOR('',#122,1.407806429322E-2);
#124=CARTESIAN_POINT('',(2.5E-2,3.007664029489E-2,0.E0));
#125=LINE('',#124,#123);
#126=DIRECTION('',(1.818731240667E-14,0.E0,-1.E0));
#127=VECTOR('',#126,1.861836509646E-1);
#128=CARTESIAN_POINT('',(1.959219357068E-1,3.007664029490E-2,0.E0));
#129=LINE('',#128,#127);
#130=CARTESIAN_POINT('',(1.959219357068E-1,3.007664029490E-2,
-1.861836509646E-1));
#131=CARTESIAN_POINT('',(1.893867743979E-1,2.421949743776E-2,
-1.851508786490E-1));
#132=CARTESIAN_POINT('',(1.763164517801E-1,1.503879178667E-2,
-1.835320725408E-1));
#133=CARTESIAN_POINT('',(1.501758065445E-1,3.223448147954E-3,
-1.814487086709E-1));
#134=CARTESIAN_POINT('',(1.175E-1,-2.021231607135E-3,-1.805239301249E-1));
#135=CARTESIAN_POINT('',(8.482419345551E-2,3.223448147952E-3,
-1.814487086709E-1));
#136=CARTESIAN_POINT('',(5.868354821991E-2,1.503879178667E-2,
-1.835320725408E-1));
#137=CARTESIAN_POINT('',(4.561322560212E-2,2.421949743775E-2,
-1.851508786490E-1));
#138=CARTESIAN_POINT('',(3.907806429322E-2,3.007664029489E-2,
-1.861836509646E-1));
#140=DIRECTION('',(0.E0,0.E0,1.E0));
#141=VECTOR('',#140,1.861836509646E-1);
#142=CARTESIAN_POINT('',(3.907806429322E-2,3.007664029488E-2,
-1.861836509646E-1));
#143=LINE('',#142,#141);
#144=DIRECTION('',(1.E0,-7.196149192612E-13,1.455659402889E-13));
#145=VECTOR('',#144,1.407806429320E-2);
#146=CARTESIAN_POINT('',(1.959219357068E-1,3.007664029490E-2,0.E0));
#147=LINE('',#146,#145);
#148=DIRECTION('',(-1.E0,0.E0,0.E0));
#149=VECTOR('',#148,2.5E-2);
#150=CARTESIAN_POINT('',(2.1E-1,3.007664029489E-2,-2.3E-1));
#151=LINE('',#150,#149);
#152=DIRECTION('',(0.E0,1.E0,0.E0));
#153=VECTOR('',#152,3.E-2);
#154=CARTESIAN_POINT('',(2.1E-1,7.664029488519E-5,0.E0));
#155=LINE('',#154,#153);
#156=DIRECTION('',(0.E0,-1.E0,0.E0));
#157=VECTOR('',#156,3.E-2);
#158=CARTESIAN_POINT('',(2.1E-1,3.007664029489E-2,-2.3E-1));
#159=LINE('',#158,#157);
#160=DIRECTION('',(0.E0,0.E0,-1.E0));
#161=VECTOR('',#160,2.3E-1);
#162=CARTESIAN_POINT('',(2.1E-1,3.007664029489E-2,0.E0));
#163=LINE('',#162,#161);
#164=DIRECTION('',(0.E0,0.E0,1.E0));
#165=VECTOR('',#164,2.3E-1);
#166=CARTESIAN_POINT('',(2.1E-1,7.664029488519E-5,-2.3E-1));
#167=LINE('',#166,#165);
#168=DIRECTION('',(1.E0,0.E0,0.E0));
#169=VECTOR('',#168,2.5E-2);
#170=CARTESIAN_POINT('',(2.1E-1,7.664029488519E-5,0.E0));
#171=LINE('',#170,#169);
#172=DIRECTION('',(-1.E0,0.E0,0.E0));
#173=VECTOR('',#172,2.5E-2);
#174=CARTESIAN_POINT('',(2.35E-1,7.664029488523E-5,-2.3E-1));
#175=LINE('',#174,#173);
#176=DIRECTION('',(0.E0,1.E0,0.E0));
#177=VECTOR('',#176,2.35E-1);
#178=CARTESIAN_POINT('',(2.35E-1,7.664029488523E-5,0.E0));
#179=LINE('',#178,#177);
#180=DIRECTION('',(0.E0,0.E0,-1.E0));
#181=VECTOR('',#180,2.3E-1);
#182=CARTESIAN_POINT('',(2.35E-1,2.350766402949E-1,0.E0));
#183=LINE('',#182,#181);
#184=DIRECTION('',(0.E0,-1.E0,0.E0));
#185=VECTOR('',#184,2.35E-1);
#186=CARTESIAN_POINT('',(2.35E-1,2.350766402949E-1,-2.3E-1));
#187=LINE('',#186,#185);
#188=DIRECTION('',(0.E0,0.E0,1.E0));
#189=VECTOR('',#188,2.3E-1);
#190=CARTESIAN_POINT('',(2.35E-1,7.664029488523E-5,-2.3E-1));
#191=LINE('',#190,#189);
#192=DIRECTION('',(1.E0,0.E0,0.E0));
#193=VECTOR('',#192,5.E-2);
#194=CARTESIAN_POINT('',(1.85E-1,2.350766402949E-1,-2.3E-1));
#195=LINE('',#194,#193);
#196=DIRECTION('',(0.E0,-2.304183450344E-14,1.E0));
#197=VECTOR('',#196,4.381634903540E-2);
#198=CARTESIAN_POINT('',(1.85E-1,3.007664029489E-2,-2.3E-1));
#199=LINE('',#198,#197);
#200=DIRECTION('',(0.E0,-1.E0,0.E0));
#201=VECTOR('',#200,2.05E-1);
#202=CARTESIAN_POINT('',(1.85E-1,2.350766402949E-1,-2.3E-1));
#203=LINE('',#202,#201);
#204=DIRECTION('',(0.E0,-1.809520458774E-14,-1.E0));
#205=VECTOR('',#204,7.669317990035E-3);
#206=CARTESIAN_POINT('',(1.85E-1,2.350766402949E-1,-2.223306820100E-1));
#207=LINE('',#206,#205);
#208=DIRECTION('',(1.E0,0.E0,0.E0));
#209=VECTOR('',#208,5.E-2);
#210=CARTESIAN_POINT('',(0.E0,2.350766402949E-1,-2.3E-1));
#211=LINE('',#210,#209);
#212=DIRECTION('',(0.E0,1.E0,0.E0));
#213=VECTOR('',#212,2.35E-1);
#214=CARTESIAN_POINT('',(0.E0,7.664029488523E-5,0.E0));
#215=LINE('',#214,#213);
#216=DIRECTION('',(0.E0,0.E0,1.E0));
#217=VECTOR('',#216,2.3E-1);
#218=CARTESIAN_POINT('',(0.E0,7.664029488523E-5,-2.3E-1));
#219=LINE('',#218,#217);
#220=DIRECTION('',(0.E0,-1.E0,0.E0));
#221=VECTOR('',#220,2.35E-1);
#222=CARTESIAN_POINT('',(0.E0,2.350766402949E-1,-2.3E-1));
#223=LINE('',#222,#221);
#224=DIRECTION('',(0.E0,0.E0,-1.E0));
#225=VECTOR('',#224,2.3E-1);
#226=CARTESIAN_POINT('',(0.E0,2.350766402949E-1,0.E0));
#227=LINE('',#226,#225);
#228=DIRECTION('',(0.E0,0.E0,1.E0));
#229=VECTOR('',#228,2.3E-1);
#230=CARTESIAN_POINT('',(2.5E-2,7.664029488519E-5,-2.3E-1));
#231=LINE('',#230,#229);
#232=DIRECTION('',(1.E0,0.E0,0.E0));
#233=VECTOR('',#232,2.5E-2);
#234=CARTESIAN_POINT('',(0.E0,7.664029488523E-5,-2.3E-1));
#235=LINE('',#234,#233);
#236=DIRECTION('',(-1.E0,0.E0,0.E0));
#237=VECTOR('',#236,2.5E-2);
#238=CARTESIAN_POINT('',(2.5E-2,7.664029488519E-5,0.E0));
#239=LINE('',#238,#237);
#240=DIRECTION('',(0.E0,1.E0,0.E0));
#241=VECTOR('',#240,3.E-2);
#242=CARTESIAN_POINT('',(2.5E-2,7.664029488519E-5,0.E0));
#243=LINE('',#242,#241);
#244=DIRECTION('',(0.E0,0.E0,-1.E0));
#245=VECTOR('',#244,2.3E-1);
#246=CARTESIAN_POINT('',(2.5E-2,3.007664029489E-2,0.E0));
#247=LINE('',#246,#245);
#248=DIRECTION('',(0.E0,-1.E0,0.E0));
#249=VECTOR('',#248,3.E-2);
#250=CARTESIAN_POINT('',(2.5E-2,3.007664029489E-2,-2.3E-1));
#251=LINE('',#250,#249);
#252=DIRECTION('',(0.E0,1.E0,1.384687959445E-14));
#253=VECTOR('',#252,2.244999999997E-1);
#254=CARTESIAN_POINT('',(7.75E-2,-1.444233597051E-1,-1.95E-1));
#255=LINE('',#254,#253);
#256=DIRECTION('',(0.E0,-1.E0,-1.384687959445E-14));
#257=VECTOR('',#256,2.244999999997E-1);
#258=CARTESIAN_POINT('',(5.75E-2,8.007664029461E-2,-1.95E-1));
#259=LINE('',#258,#257);
#260=DIRECTION('',(0.E0,-9.848077530121E-1,1.736481776676E-1));
#261=VECTOR('',#260,4.823276406487E-2);
#262=CARTESIAN_POINT('',(7.75E-2,1.275766402949E-1,-2.033755315837E-1));
#263=LINE('',#262,#261);
#264=DIRECTION('',(1.E0,0.E0,0.E0));
#265=VECTOR('',#264,2.E-2);
#266=CARTESIAN_POINT('',(5.75E-2,1.275766402949E-1,-2.033755315837E-1));
#267=LINE('',#266,#265);
#268=DIRECTION('',(0.E0,0.E0,-1.E0));
#269=VECTOR('',#268,1.162446841627E-2);
#270=CARTESIAN_POINT('',(7.75E-2,1.275766402949E-1,-2.033755315837E-1));
#271=LINE('',#270,#269);
#272=DIRECTION('',(0.E0,-9.848077530121E-1,1.736481776676E-1));
#273=VECTOR('',#272,4.823276406487E-2);
#274=CARTESIAN_POINT('',(5.75E-2,1.275766402949E-1,-2.033755315837E-1));
#275=LINE('',#274,#273);
#276=DIRECTION('',(2.704053919637E-13,0.E0,-1.E0));
#277=VECTOR('',#276,1.162446841627E-2);
#278=CARTESIAN_POINT('',(5.75E-2,1.275766402949E-1,-2.033755315837E-1));
#279=LINE('',#278,#277);
#280=DIRECTION('',(-1.E0,0.E0,0.E0));
#281=VECTOR('',#280,2.E-2);
#282=CARTESIAN_POINT('',(7.75E-2,-1.444233597051E-1,-1.95E-1));
#283=LINE('',#282,#281);
#284=DIRECTION('',(-8.257283745652E-14,0.E0,1.E0));
#285=VECTOR('',#284,1.999999999999E-2);
#286=CARTESIAN_POINT('',(7.75E-2,-1.444233597051E-1,-2.15E-1));
#287=LINE('',#286,#285);
#288=DIRECTION('',(8.153200337094E-14,0.E0,-1.E0));
#289=VECTOR('',#288,1.999999999999E-2);
#290=CARTESIAN_POINT('',(5.75E-2,-1.444233597051E-1,-1.95E-1));
#291=LINE('',#290,#289);
#292=DIRECTION('',(1.E0,0.E0,0.E0));
#293=VECTOR('',#292,2.E-2);
#294=CARTESIAN_POINT('',(5.75E-2,1.275766402949E-1,-2.15E-1));
#295=LINE('',#294,#293);
#296=DIRECTION('',(0.E0,1.E0,-1.142876642996E-14));
#297=VECTOR('',#296,2.72E-1);
#298=CARTESIAN_POINT('',(5.75E-2,-1.444233597051E-1,-2.15E-1));
#299=LINE('',#298,#297);
#300=DIRECTION('',(-1.E0,0.E0,0.E0));
#301=VECTOR('',#300,2.E-2);
#302=CARTESIAN_POINT('',(7.75E-2,-1.444233597051E-1,-2.15E-1));
#303=LINE('',#302,#301);
#304=DIRECTION('',(0.E0,-1.E0,1.142876642996E-14));
#305=VECTOR('',#304,2.72E-1);
#306=CARTESIAN_POINT('',(7.75E-2,1.275766402949E-1,-2.15E-1));
#307=LINE('',#306,#305);
#308=DIRECTION('',(3.461719898613E-14,1.E0,1.384687959445E-14));
#309=VECTOR('',#308,2.244999999997E-1);
#310=CARTESIAN_POINT('',(1.775E-1,-1.444233597051E-1,-1.95E-1));
#311=LINE('',#310,#309);
#312=DIRECTION('',(2.757012633538E-14,-1.E0,-1.384687959445E-14));
#313=VECTOR('',#312,2.244999999997E-1);
#314=CARTESIAN_POINT('',(1.575E-1,8.007664029461E-2,-1.95E-1));
#315=LINE('',#314,#313);
#316=DIRECTION('',(0.E0,-9.848077530121E-1,1.736481776676E-1));
#317=VECTOR('',#316,4.823276406487E-2);
#318=CARTESIAN_POINT('',(1.775E-1,1.275766402949E-1,-2.033755315837E-1));
#319=LINE('',#318,#317);
#320=DIRECTION('',(1.E0,0.E0,0.E0));
#321=VECTOR('',#320,2.E-2);
#322=CARTESIAN_POINT('',(1.575E-1,1.275766402949E-1,-2.033755315837E-1));
#323=LINE('',#322,#321);
#324=DIRECTION('',(-5.252908276557E-13,0.E0,-1.E0));
#325=VECTOR('',#324,1.162446841627E-2);
#326=CARTESIAN_POINT('',(1.775E-1,1.275766402949E-1,-2.033755315837E-1));
#327=LINE('',#326,#325);
#328=DIRECTION('',(0.E0,-9.848077530121E-1,1.736481776676E-1));
#329=VECTOR('',#328,4.823276406487E-2);
#330=CARTESIAN_POINT('',(1.575E-1,1.275766402949E-1,-2.033755315837E-1));
#331=LINE('',#330,#329);
#332=DIRECTION('',(8.070377261256E-13,0.E0,-1.E0));
#333=VECTOR('',#332,1.162446841627E-2);
#334=CARTESIAN_POINT('',(1.575E-1,1.275766402949E-1,-2.033755315837E-1));
#335=LINE('',#334,#333);
#336=DIRECTION('',(-1.E0,0.E0,0.E0));
#337=VECTOR('',#336,1.999999999999E-2);
#338=CARTESIAN_POINT('',(1.775E-1,-1.444233597051E-1,-1.95E-1));
#339=LINE('',#338,#337);
#340=DIRECTION('',(-8.049116928535E-14,0.E0,1.E0));
#341=VECTOR('',#340,1.999999999999E-2);
#342=CARTESIAN_POINT('',(1.775E-1,-1.444233597051E-1,-2.15E-1));
#343=LINE('',#342,#341);
#344=DIRECTION('',(8.049116928535E-14,0.E0,-1.E0));
#345=VECTOR('',#344,1.999999999999E-2);
#346=CARTESIAN_POINT('',(1.575E-1,-1.444233597051E-1,-1.95E-1));
#347=LINE('',#346,#345);
#348=DIRECTION('',(1.E0,0.E0,0.E0));
#349=VECTOR('',#348,1.999999999998E-2);
#350=CARTESIAN_POINT('',(1.575E-1,1.275766402949E-1,-2.15E-1));
#351=LINE('',#350,#349);
#352=DIRECTION('',(0.E0,1.E0,-1.142876642996E-14));
#353=VECTOR('',#352,2.72E-1);
#354=CARTESIAN_POINT('',(1.575E-1,-1.444233597051E-1,-2.15E-1));
#355=LINE('',#354,#353);
#356=DIRECTION('',(-1.E0,0.E0,0.E0));
#357=VECTOR('',#356,1.999999999999E-2);
#358=CARTESIAN_POINT('',(1.775E-1,-1.444233597051E-1,-2.15E-1));
#359=LINE('',#358,#357);
#360=DIRECTION('',(0.E0,-1.E0,1.142876642996E-14));
#361=VECTOR('',#360,2.72E-1);
#362=CARTESIAN_POINT('',(1.775E-1,1.275766402949E-1,-2.15E-1));
#363=LINE('',#362,#361);
#364=CARTESIAN_POINT('',(1.175E-1,1.175766402949E-1,-1.5E-2));
#365=DIRECTION('',(0.E0,0.E0,1.E0));
#366=DIRECTION('',(0.E0,1.E0,0.E0));
#367=AXIS2_PLACEMENT_3D('',#364,#365,#366);
#369=DIRECTION('',(0.E0,3.635980405648E-13,-1.E0));
#370=VECTOR('',#369,1.5E-2);
#371=CARTESIAN_POINT('',(1.175E-1,1.607664029490E-2,0.E0));
#372=LINE('',#371,#370);
#373=DIRECTION('',(0.E0,-4.810966440043E-14,1.E0));
#374=VECTOR('',#373,1.5E-2);
#375=CARTESIAN_POINT('',(1.175E-1,2.190766402949E-1,-1.5E-2));
#376=LINE('',#375,#374);
#377=CARTESIAN_POINT('',(1.175E-1,1.175766402949E-1,-1.5E-2));
#378=DIRECTION('',(0.E0,0.E0,-1.E0));
#379=DIRECTION('',(0.E0,1.E0,0.E0));
#380=AXIS2_PLACEMENT_3D('',#377,#378,#379);
#382=CARTESIAN_POINT('',(1.175E-1,1.175766402949E-1,-1.5E-2));
#383=DIRECTION('',(0.E0,0.E0,-1.E0));
#384=DIRECTION('',(1.E0,2.059830027921E-13,0.E0));
#385=AXIS2_PLACEMENT_3D('',#382,#383,#384);
#387=CARTESIAN_POINT('',(1.175E-1,1.175766402949E-1,-1.5E-2));
#388=DIRECTION('',(0.E0,0.E0,-1.E0));
#389=DIRECTION('',(-1.E0,-2.068283502728E-13,0.E0));
#390=AXIS2_PLACEMENT_3D('',#387,#388,#389);
#392=DIRECTION('',(0.E0,0.E0,1.E0));
#393=VECTOR('',#392,1.065E-1);
#394=CARTESIAN_POINT('',(2.16E-1,1.175766402949E-1,-1.5E-2));
#395=LINE('',#394,#393);
#396=DIRECTION('',(0.E0,0.E0,-1.E0));
#397=VECTOR('',#396,1.065E-1);
#398=CARTESIAN_POINT('',(1.9E-2,1.175766402949E-1,9.15E-2));
#399=LINE('',#398,#397);
#400=CARTESIAN_POINT('',(1.175E-1,1.175766402949E-1,9.15E-2));
#401=DIRECTION('',(0.E0,0.E0,-1.E0));
#402=DIRECTION('',(-1.E0,-4.136567005456E-13,0.E0));
#403=AXIS2_PLACEMENT_3D('',#400,#401,#402);
#405=CARTESIAN_POINT('',(1.175E-1,1.175766402949E-1,9.15E-2));
#406=DIRECTION('',(-2.059349286905E-13,1.E0,0.E0));
#407=DIRECTION('',(0.E0,0.E0,1.E0));
#408=AXIS2_PLACEMENT_3D('',#405,#406,#407);
#410=CARTESIAN_POINT('',(1.175E-1,1.175766402949E-1,9.15E-2));
#411=DIRECTION('',(0.E0,0.E0,-1.E0));
#412=DIRECTION('',(1.E0,2.059830027921E-13,0.E0));
#413=AXIS2_PLACEMENT_3D('',#410,#411,#412);
#415=CARTESIAN_POINT('',(1.175E-1,1.175766402949E-1,9.15E-2));
#416=DIRECTION('',(0.E0,1.E0,0.E0));
#417=DIRECTION('',(-1.E0,0.E0,0.E0));
#418=AXIS2_PLACEMENT_3D('',#415,#416,#417);
#420=DIRECTION('',(0.E0,1.067664475348E-12,1.E0));
#421=VECTOR('',#420,1.5E-2);
#422=CARTESIAN_POINT('',(1.925E-1,2.080766402949E-1,-1.5E-2));
#423=LINE('',#422,#421);
#424=DIRECTION('',(0.E0,-1.065814103640E-12,-1.E0));
#425=VECTOR('',#424,1.5E-2);
#426=CARTESIAN_POINT('',(2.235E-1,2.080766402949E-1,0.E0));
#427=LINE('',#426,#425);
#428=CARTESIAN_POINT('',(2.08E-1,2.080766402949E-1,-1.5E-2));
#429=DIRECTION('',(0.E0,0.E0,1.E0));
#430=DIRECTION('',(1.E0,-3.225018818306E-12,0.E0));
#431=AXIS2_PLACEMENT_3D('',#428,#429,#430);
#433=CARTESIAN_POINT('',(2.08E-1,2.080766402949E-1,-1.5E-2));
#434=DIRECTION('',(0.E0,0.E0,1.E0));
#435=DIRECTION('',(-1.E0,-3.225018818306E-12,0.E0));
#436=AXIS2_PLACEMENT_3D('',#433,#434,#435);
#438=CARTESIAN_POINT('',(2.16E-1,1.175766402949E-1,9.15E-2));
#439=CARTESIAN_POINT('',(1.9E-2,1.175766402949E-1,9.15E-2));
#440=VERTEX_POINT('',#438);
#441=VERTEX_POINT('',#439);
#442=CARTESIAN_POINT('',(1.175E-1,1.175766402949E-1,1.9E-1));
#443=VERTEX_POINT('',#442);
#444=CARTESIAN_POINT('',(1.775E-1,1.275766402949E-1,-2.15E-1));
#445=CARTESIAN_POINT('',(1.775E-1,-1.444233597051E-1,-2.15E-1));
#446=VERTEX_POINT('',#444);
#447=VERTEX_POINT('',#445);
#448=CARTESIAN_POINT('',(1.775E-1,-1.444233597051E-1,-1.95E-1));
#449=VERTEX_POINT('',#448);
#450=CARTESIAN_POINT('',(1.575E-1,1.275766402949E-1,-2.15E-1));
#451=VERTEX_POINT('',#450);
#452=CARTESIAN_POINT('',(1.575E-1,-1.444233597051E-1,-1.95E-1));
#453=CARTESIAN_POINT('',(1.575E-1,-1.444233597051E-1,-2.15E-1));
#454=VERTEX_POINT('',#452);
#455=VERTEX_POINT('',#453);
#456=CARTESIAN_POINT('',(7.75E-2,1.275766402949E-1,-2.15E-1));
#457=CARTESIAN_POINT('',(7.75E-2,-1.444233597051E-1,-2.15E-1));
#458=VERTEX_POINT('',#456);
#459=VERTEX_POINT('',#457);
#460=CARTESIAN_POINT('',(7.75E-2,-1.444233597051E-1,-1.95E-1));
#461=VERTEX_POINT('',#460);
#462=CARTESIAN_POINT('',(5.75E-2,1.275766402949E-1,-2.15E-1));
#463=VERTEX_POINT('',#462);
#464=CARTESIAN_POINT('',(5.75E-2,-1.444233597051E-1,-1.95E-1));
#465=CARTESIAN_POINT('',(5.75E-2,-1.444233597051E-1,-2.15E-1));
#466=VERTEX_POINT('',#464);
#467=VERTEX_POINT('',#465);
#468=CARTESIAN_POINT('',(0.E0,2.350766402949E-1,0.E0));
#469=CARTESIAN_POINT('',(2.35E-1,2.350766402949E-1,0.E0));
#470=VERTEX_POINT('',#468);
#471=VERTEX_POINT('',#469);
#472=CARTESIAN_POINT('',(0.E0,7.664029488523E-5,0.E0));
#473=VERTEX_POINT('',#472);
#474=CARTESIAN_POINT('',(2.5E-2,7.664029488519E-5,0.E0));
#475=VERTEX_POINT('',#474);
#476=CARTESIAN_POINT('',(2.5E-2,3.007664029489E-2,0.E0));
#477=VERTEX_POINT('',#476);
#478=CARTESIAN_POINT('',(3.907806429322E-2,3.007664029488E-2,0.E0));
#479=VERTEX_POINT('',#478);
#480=CARTESIAN_POINT('',(1.959219357068E-1,3.007664029489E-2,0.E0));
#481=VERTEX_POINT('',#480);
#482=CARTESIAN_POINT('',(2.1E-1,3.007664029489E-2,0.E0));
#483=VERTEX_POINT('',#482);
#484=CARTESIAN_POINT('',(2.1E-1,7.664029488519E-5,0.E0));
#485=VERTEX_POINT('',#484);
#486=CARTESIAN_POINT('',(2.35E-1,7.664029488523E-5,0.E0));
#487=VERTEX_POINT('',#486);
#488=CARTESIAN_POINT('',(1.175E-1,2.190766402949E-1,0.E0));
#489=CARTESIAN_POINT('',(1.175E-1,1.607664029490E-2,0.E0));
#490=VERTEX_POINT('',#488);
#491=VERTEX_POINT('',#489);
#492=CARTESIAN_POINT('',(2.235E-1,2.080766402949E-1,0.E0));
#493=CARTESIAN_POINT('',(1.925E-1,2.080766402949E-1,0.E0));
#494=VERTEX_POINT('',#492);
#495=VERTEX_POINT('',#493);
#496=CARTESIAN_POINT('',(8.5E-2,2.350766402949E-1,-2.3E-1));
#497=CARTESIAN_POINT('',(1.5E-1,2.350766402949E-1,-2.3E-1));
#498=VERTEX_POINT('',#496);
#499=VERTEX_POINT('',#497);
#500=CARTESIAN_POINT('',(1.85E-1,2.350766402949E-1,-2.3E-1));
#501=CARTESIAN_POINT('',(2.35E-1,2.350766402949E-1,-2.3E-1));
#502=VERTEX_POINT('',#500);
#503=VERTEX_POINT('',#501);
#504=CARTESIAN_POINT('',(0.E0,2.350766402949E-1,-2.3E-1));
#505=VERTEX_POINT('',#504);
#506=CARTESIAN_POINT('',(5.E-2,2.350766402949E-1,-2.3E-1));
#507=VERTEX_POINT('',#506);
#508=CARTESIAN_POINT('',(2.1E-1,3.007664029489E-2,-2.3E-1));
#509=CARTESIAN_POINT('',(1.85E-1,3.007664029489E-2,-2.3E-1));
#510=VERTEX_POINT('',#508);
#511=VERTEX_POINT('',#509);
#512=CARTESIAN_POINT('',(2.1E-1,7.664029488519E-5,-2.3E-1));
#513=VERTEX_POINT('',#512);
#514=CARTESIAN_POINT('',(2.35E-1,7.664029488523E-5,-2.3E-1));
#515=VERTEX_POINT('',#514);
#516=CARTESIAN_POINT('',(5.E-2,3.007664029489E-2,-2.3E-1));
#517=CARTESIAN_POINT('',(2.5E-2,3.007664029489E-2,-2.3E-1));
#518=VERTEX_POINT('',#516);
#519=VERTEX_POINT('',#517);
#520=CARTESIAN_POINT('',(0.E0,7.664029488522E-5,-2.3E-1));
#521=VERTEX_POINT('',#520);
#522=CARTESIAN_POINT('',(2.5E-2,7.664029488519E-5,-2.3E-1));
#523=VERTEX_POINT('',#522);
#524=CARTESIAN_POINT('',(1.5E-1,3.007664029489E-2,-2.3E-1));
#525=CARTESIAN_POINT('',(8.5E-2,3.007664029489E-2,-2.3E-1));
#526=VERTEX_POINT('',#524);
#527=VERTEX_POINT('',#525);
#528=CARTESIAN_POINT('',(1.959219357068E-1,3.007664029490E-2,
-1.861836509646E-1));
#529=VERTEX_POINT('',#528);
#530=CARTESIAN_POINT('',(1.85E-1,3.007664029489E-2,-1.861836509646E-1));
#531=VERTEX_POINT('',#530);
#532=CARTESIAN_POINT('',(3.907806429322E-2,3.007664029488E-2,
-1.861836509646E-1));
#533=VERTEX_POINT('',#532);
#534=CARTESIAN_POINT('',(5.E-2,3.007664029489E-2,-1.861836509646E-1));
#535=VERTEX_POINT('',#534);
#536=CARTESIAN_POINT('',(1.5E-1,3.007664029489E-2,-1.861836509646E-1));
#537=CARTESIAN_POINT('',(8.5E-2,3.007664029489E-2,-1.861836509646E-1));
#538=VERTEX_POINT('',#536);
#539=VERTEX_POINT('',#537);
#540=CARTESIAN_POINT('',(1.925E-1,2.080766402949E-1,-1.5E-2));
#541=VERTEX_POINT('',#540);
#542=CARTESIAN_POINT('',(2.235E-1,2.080766402949E-1,-1.5E-2));
#543=VERTEX_POINT('',#542);
#544=CARTESIAN_POINT('',(1.175E-1,2.190766402949E-1,-1.5E-2));
#545=CARTESIAN_POINT('',(1.175E-1,1.607664029490E-2,-1.5E-2));
#546=VERTEX_POINT('',#544);
#547=VERTEX_POINT('',#545);
#548=CARTESIAN_POINT('',(2.16E-1,1.175766402949E-1,-1.5E-2));
#549=CARTESIAN_POINT('',(1.9E-2,1.175766402949E-1,-1.5E-2));
#550=VERTEX_POINT('',#548);
#551=VERTEX_POINT('',#549);
#552=CARTESIAN_POINT('',(1.775E-1,1.275766402949E-1,-2.033755315837E-1));
#553=CARTESIAN_POINT('',(1.775E-1,8.007664029461E-2,-1.95E-1));
#554=VERTEX_POINT('',#552);
#555=VERTEX_POINT('',#553);
#556=CARTESIAN_POINT('',(1.575E-1,1.275766402949E-1,-2.033755315837E-1));
#557=VERTEX_POINT('',#556);
#558=CARTESIAN_POINT('',(1.575E-1,8.007664029461E-2,-1.95E-1));
#559=VERTEX_POINT('',#558);
#560=CARTESIAN_POINT('',(7.75E-2,1.275766402949E-1,-2.033755315837E-1));
#561=CARTESIAN_POINT('',(7.75E-2,8.007664029461E-2,-1.95E-1));
#562=VERTEX_POINT('',#560);
#563=VERTEX_POINT('',#561);
#564=CARTESIAN_POINT('',(5.75E-2,1.275766402949E-1,-2.033755315837E-1));
#565=VERTEX_POINT('',#564);
#566=CARTESIAN_POINT('',(5.75E-2,8.007664029461E-2,-1.95E-1));
#567=VERTEX_POINT('',#566);
#568=CARTESIAN_POINT('',(1.5E-1,2.350766402949E-1,-2.223306820100E-1));
#569=VERTEX_POINT('',#568);
#570=CARTESIAN_POINT('',(1.85E-1,2.350766402949E-1,-2.223306820100E-1));
#571=VERTEX_POINT('',#570);
#572=CARTESIAN_POINT('',(5.E-2,2.350766402949E-1,-2.223306820100E-1));
#573=VERTEX_POINT('',#572);
#574=CARTESIAN_POINT('',(8.5E-2,2.350766402949E-1,-2.223306820100E-1));
#575=VERTEX_POINT('',#574);
#576=CARTESIAN_POINT('',(1.175E-1,1.175766402949E-1,0.E0));
#577=DIRECTION('',(0.E0,0.E0,1.E0));
#578=DIRECTION('',(-1.E0,0.E0,0.E0));
#579=AXIS2_PLACEMENT_3D('',#576,#577,#578);
#580=PLANE('',#579);
#582=ORIENTED_EDGE('',*,*,#581,.T.);
#584=ORIENTED_EDGE('',*,*,#583,.F.);
#586=ORIENTED_EDGE('',*,*,#585,.F.);
#588=ORIENTED_EDGE('',*,*,#587,.T.);
#590=ORIENTED_EDGE('',*,*,#589,.F.);
#592=ORIENTED_EDGE('',*,*,#591,.T.);
#594=ORIENTED_EDGE('',*,*,#593,.F.);
#596=ORIENTED_EDGE('',*,*,#595,.F.);
#598=ORIENTED_EDGE('',*,*,#597,.T.);
#600=ORIENTED_EDGE('',*,*,#599,.T.);
#601=EDGE_LOOP('',(#582,#584,#586,#588,#590,#592,#594,#596,#598,#600));
#602=FACE_OUTER_BOUND('',#601,.F.);
#604=ORIENTED_EDGE('',*,*,#603,.T.);
#606=ORIENTED_EDGE('',*,*,#605,.T.);
#607=EDGE_LOOP('',(#604,#606));
#608=FACE_BOUND('',#607,.F.);
#610=ORIENTED_EDGE('',*,*,#609,.T.);
#612=ORIENTED_EDGE('',*,*,#611,.T.);
#613=EDGE_LOOP('',(#610,#612));
#614=FACE_BOUND('',#613,.F.);
#615=ADVANCED_FACE('',(#602,#608,#614),#580,.T.);
#616=CARTESIAN_POINT('',(1.175E-1,2.350766402949E-1,-1.15E-1));
#617=DIRECTION('',(0.E0,1.E0,0.E0));
#618=DIRECTION('',(1.E0,0.E0,0.E0));
#619=AXIS2_PLACEMENT_3D('',#616,#617,#618);
#620=PLANE('',#619);
#622=ORIENTED_EDGE('',*,*,#621,.F.);
#624=ORIENTED_EDGE('',*,*,#623,.F.);
#626=ORIENTED_EDGE('',*,*,#625,.F.);
#628=ORIENTED_EDGE('',*,*,#627,.T.);
#630=ORIENTED_EDGE('',*,*,#629,.T.);
#632=ORIENTED_EDGE('',*,*,#631,.F.);
#634=ORIENTED_EDGE('',*,*,#633,.T.);
#636=ORIENTED_EDGE('',*,*,#635,.T.);
#638=ORIENTED_EDGE('',*,*,#637,.F.);
#639=ORIENTED_EDGE('',*,*,#581,.F.);
#641=ORIENTED_EDGE('',*,*,#640,.T.);
#643=ORIENTED_EDGE('',*,*,#642,.T.);
#644=EDGE_LOOP('',(#622,#624,#626,#628,#630,#632,#634,#636,#638,#639,#641,
#643));
#645=FACE_OUTER_BOUND('',#644,.F.);
#646=ADVANCED_FACE('',(#645),#620,.T.);
#647=CARTESIAN_POINT('',(5.E-2,1.325766402949E-1,-2.054469207716E-1));
#648=DIRECTION('',(1.E0,0.E0,0.E0));
#649=DIRECTION('',(0.E0,-1.E0,0.E0));
#650=AXIS2_PLACEMENT_3D('',#647,#648,#649);
#651=PLANE('',#650);
#653=ORIENTED_EDGE('',*,*,#652,.F.);
#654=ORIENTED_EDGE('',*,*,#621,.T.);
#656=ORIENTED_EDGE('',*,*,#655,.T.);
#658=ORIENTED_EDGE('',*,*,#657,.T.);
#659=EDGE_LOOP('',(#653,#654,#656,#658));
#660=FACE_OUTER_BOUND('',#659,.F.);
#661=ADVANCED_FACE('',(#660),#651,.T.);
#662=CARTESIAN_POINT('',(1.175E-1,4.007669484875E-2,-1.879469303910E-1));
#663=DIRECTION('',(0.E0,1.736481776676E-1,9.848077530121E-1));
#664=DIRECTION('',(0.E0,-9.848077530121E-1,1.736481776676E-1));
#665=AXIS2_PLACEMENT_3D('',#662,#663,#664);
#666=PLANE('',#665);
#668=ORIENTED_EDGE('',*,*,#667,.T.);
#669=ORIENTED_EDGE('',*,*,#623,.T.);
#670=ORIENTED_EDGE('',*,*,#652,.T.);
#672=ORIENTED_EDGE('',*,*,#671,.T.);
#674=ORIENTED_EDGE('',*,*,#673,.F.);
#676=ORIENTED_EDGE('',*,*,#675,.T.);
#678=ORIENTED_EDGE('',*,*,#677,.T.);
#679=ORIENTED_EDGE('',*,*,#631,.T.);
#681=ORIENTED_EDGE('',*,*,#680,.T.);
#683=ORIENTED_EDGE('',*,*,#682,.T.);
#684=EDGE_LOOP('',(#668,#669,#670,#672,#674,#676,#678,#679,#681,#683));
#685=FACE_OUTER_BOUND('',#684,.F.);
#687=ORIENTED_EDGE('',*,*,#686,.T.);
#689=ORIENTED_EDGE('',*,*,#688,.F.);
#691=ORIENTED_EDGE('',*,*,#690,.T.);
#693=ORIENTED_EDGE('',*,*,#692,.T.);
#694=EDGE_LOOP('',(#687,#689,#691,#693));
#695=FACE_BOUND('',#694,.F.);
#697=ORIENTED_EDGE('',*,*,#696,.T.);
#699=ORIENTED_EDGE('',*,*,#698,.F.);
#701=ORIENTED_EDGE('',*,*,#700,.T.);
#703=ORIENTED_EDGE('',*,*,#702,.T.);
#704=EDGE_LOOP('',(#697,#699,#701,#703));
#705=FACE_BOUND('',#704,.F.);
#706=ADVANCED_FACE('',(#685,#695,#705),#666,.F.);
#707=CARTESIAN_POINT('',(8.5E-2,1.325766402949E-1,-2.054469207716E-1));
#708=DIRECTION('',(1.E0,0.E0,0.E0));
#709=DIRECTION('',(0.E0,1.E0,0.E0));
#710=AXIS2_PLACEMENT_3D('',#707,#708,#709);
#711=PLANE('',#710);
#712=ORIENTED_EDGE('',*,*,#667,.F.);
#714=ORIENTED_EDGE('',*,*,#713,.T.);
#716=ORIENTED_EDGE('',*,*,#715,.T.);
#717=ORIENTED_EDGE('',*,*,#625,.T.);
#718=EDGE_LOOP('',(#712,#714,#716,#717));
#719=FACE_OUTER_BOUND('',#718,.F.);
#720=ADVANCED_FACE('',(#719),#711,.F.);
#721=CARTESIAN_POINT('',(1.175E-1,3.007664029489E-2,-2.080918254823E-1));
#722=DIRECTION('',(0.E0,1.E0,0.E0));
#723=DIRECTION('',(-1.E0,0.E0,0.E0));
#724=AXIS2_PLACEMENT_3D('',#721,#722,#723);
#725=PLANE('',#724);
#726=ORIENTED_EDGE('',*,*,#682,.F.);
#728=ORIENTED_EDGE('',*,*,#727,.T.);
#730=ORIENTED_EDGE('',*,*,#729,.T.);
#731=ORIENTED_EDGE('',*,*,#713,.F.);
#732=EDGE_LOOP('',(#726,#728,#730,#731));
#733=FACE_OUTER_BOUND('',#732,.F.);
#734=ADVANCED_FACE('',(#733),#725,.F.);
#735=CARTESIAN_POINT('',(1.5E-1,1.325766402949E-1,-2.054469207716E-1));
#736=DIRECTION('',(1.E0,0.E0,0.E0));
#737=DIRECTION('',(0.E0,1.E0,0.E0));
#738=AXIS2_PLACEMENT_3D('',#735,#736,#737);
#739=PLANE('',#738);
#740=ORIENTED_EDGE('',*,*,#680,.F.);
#741=ORIENTED_EDGE('',*,*,#629,.F.);
#743=ORIENTED_EDGE('',*,*,#742,.F.);
#744=ORIENTED_EDGE('',*,*,#727,.F.);
#745=EDGE_LOOP('',(#740,#741,#743,#744));
#746=FACE_OUTER_BOUND('',#745,.F.);
#747=ADVANCED_FACE('',(#746),#739,.T.);
#748=CARTESIAN_POINT('',(1.175E-1,1.325766402949E-1,-2.3E-1));
#749=DIRECTION('',(0.E0,0.E0,1.E0));
#750=DIRECTION('',(-1.E0,0.E0,0.E0));
#751=AXIS2_PLACEMENT_3D('',#748,#749,#750);
#752=PLANE('',#751);
#753=ORIENTED_EDGE('',*,*,#729,.F.);
#754=ORIENTED_EDGE('',*,*,#742,.T.);
#755=ORIENTED_EDGE('',*,*,#627,.F.);
#756=ORIENTED_EDGE('',*,*,#715,.F.);
#757=EDGE_LOOP('',(#753,#754,#755,#756));
#758=FACE_OUTER_BOUND('',#757,.F.);
#759=ADVANCED_FACE('',(#758),#752,.F.);
#760=CARTESIAN_POINT('',(3.75E-2,3.007664029489E-2,-1.15E-1));
#761=DIRECTION('',(0.E0,1.E0,0.E0));
#762=DIRECTION('',(-1.E0,0.E0,0.E0));
#763=AXIS2_PLACEMENT_3D('',#760,#761,#762);
#764=PLANE('',#763);
#766=ORIENTED_EDGE('',*,*,#765,.F.);
#767=ORIENTED_EDGE('',*,*,#671,.F.);
#768=ORIENTED_EDGE('',*,*,#657,.F.);
#770=ORIENTED_EDGE('',*,*,#769,.T.);
#772=ORIENTED_EDGE('',*,*,#771,.F.);
#773=ORIENTED_EDGE('',*,*,#593,.T.);
#774=EDGE_LOOP('',(#766,#767,#768,#770,#772,#773));
#775=FACE_OUTER_BOUND('',#774,.F.);
#776=ADVANCED_FACE('',(#775),#764,.F.);
#777=CARTESIAN_POINT('',(1.175E-1,1.175766402949E-1,-1.899073239839E-1));
#778=DIRECTION('',(0.E0,0.E0,1.E0));
#779=DIRECTION('',(1.E0,0.E0,0.E0));
#780=AXIS2_PLACEMENT_3D('',#777,#778,#779);
#781=CYLINDRICAL_SURFACE('',#780,1.175E-1);
#782=ORIENTED_EDGE('',*,*,#591,.F.);
#784=ORIENTED_EDGE('',*,*,#783,.T.);
#785=ORIENTED_EDGE('',*,*,#673,.T.);
#786=ORIENTED_EDGE('',*,*,#765,.T.);
#787=EDGE_LOOP('',(#782,#784,#785,#786));
#788=FACE_OUTER_BOUND('',#787,.F.);
#789=ADVANCED_FACE('',(#788),#781,.T.);
#790=CARTESIAN_POINT('',(1.975E-1,3.007664029489E-2,-1.15E-1));
#791=DIRECTION('',(0.E0,1.E0,0.E0));
#792=DIRECTION('',(-1.E0,0.E0,0.E0));
#793=AXIS2_PLACEMENT_3D('',#790,#791,#792);
#794=PLANE('',#793);
#795=ORIENTED_EDGE('',*,*,#783,.F.);
#796=ORIENTED_EDGE('',*,*,#589,.T.);
#798=ORIENTED_EDGE('',*,*,#797,.T.);
#800=ORIENTED_EDGE('',*,*,#799,.T.);
#802=ORIENTED_EDGE('',*,*,#801,.T.);
#803=ORIENTED_EDGE('',*,*,#675,.F.);
#804=EDGE_LOOP('',(#795,#796,#798,#800,#802,#803));
#805=FACE_OUTER_BOUND('',#804,.F.);
#806=ADVANCED_FACE('',(#805),#794,.F.);
#807=CARTESIAN_POINT('',(2.1E-1,1.507664029489E-2,-1.15E-1));
#808=DIRECTION('',(1.E0,0.E0,0.E0));
#809=DIRECTION('',(0.E0,-1.E0,0.E0));
#810=AXIS2_PLACEMENT_3D('',#807,#808,#809);
#811=PLANE('',#810);
#812=ORIENTED_EDGE('',*,*,#587,.F.);
#814=ORIENTED_EDGE('',*,*,#813,.F.);
#816=ORIENTED_EDGE('',*,*,#815,.F.);
#817=ORIENTED_EDGE('',*,*,#797,.F.);
#818=EDGE_LOOP('',(#812,#814,#816,#817));
#819=FACE_OUTER_BOUND('',#818,.F.);
#820=ADVANCED_FACE('',(#819),#811,.F.);
#821=CARTESIAN_POINT('',(2.225E-1,7.664029488506E-5,-1.15E-1));
#822=DIRECTION('',(0.E0,1.E0,0.E0));
#823=DIRECTION('',(1.E0,0.E0,0.E0));
#824=AXIS2_PLACEMENT_3D('',#821,#822,#823);
#825=PLANE('',#824);
#826=ORIENTED_EDGE('',*,*,#813,.T.);
#827=ORIENTED_EDGE('',*,*,#585,.T.);
#829=ORIENTED_EDGE('',*,*,#828,.F.);
#831=ORIENTED_EDGE('',*,*,#830,.T.);
#832=EDGE_LOOP('',(#826,#827,#829,#831));
#833=FACE_OUTER_BOUND('',#832,.F.);
#834=ADVANCED_FACE('',(#833),#825,.F.);
#835=CARTESIAN_POINT('',(2.35E-1,1.175766402949E-1,-1.15E-1));
#836=DIRECTION('',(1.E0,0.E0,0.E0));
#837=DIRECTION('',(0.E0,1.E0,0.E0));
#838=AXIS2_PLACEMENT_3D('',#835,#836,#837);
#839=PLANE('',#838);
#840=ORIENTED_EDGE('',*,*,#583,.T.);
#841=ORIENTED_EDGE('',*,*,#637,.T.);
#843=ORIENTED_EDGE('',*,*,#842,.T.);
#844=ORIENTED_EDGE('',*,*,#828,.T.);
#845=EDGE_LOOP('',(#840,#841,#843,#844));
#846=FACE_OUTER_BOUND('',#845,.F.);
#847=ADVANCED_FACE('',(#846),#839,.T.);
#848=CARTESIAN_POINT('',(2.1E-1,1.175766402949E-1,-2.3E-1));
#849=DIRECTION('',(0.E0,0.E0,1.E0));
#850=DIRECTION('',(-1.E0,0.E0,0.E0));
#851=AXIS2_PLACEMENT_3D('',#848,#849,#850);
#852=PLANE('',#851);
#853=ORIENTED_EDGE('',*,*,#799,.F.);
#854=ORIENTED_EDGE('',*,*,#815,.T.);
#855=ORIENTED_EDGE('',*,*,#830,.F.);
#856=ORIENTED_EDGE('',*,*,#842,.F.);
#857=ORIENTED_EDGE('',*,*,#635,.F.);
#859=ORIENTED_EDGE('',*,*,#858,.T.);
#860=EDGE_LOOP('',(#853,#854,#855,#856,#857,#859));
#861=FACE_OUTER_BOUND('',#860,.F.);
#862=ADVANCED_FACE('',(#861),#852,.F.);
#863=CARTESIAN_POINT('',(1.85E-1,1.325766402949E-1,-2.054469207716E-1));
#864=DIRECTION('',(1.E0,0.E0,0.E0));
#865=DIRECTION('',(0.E0,-1.E0,0.E0));
#866=AXIS2_PLACEMENT_3D('',#863,#864,#865);
#867=PLANE('',#866);
#868=ORIENTED_EDGE('',*,*,#677,.F.);
#869=ORIENTED_EDGE('',*,*,#801,.F.);
#870=ORIENTED_EDGE('',*,*,#858,.F.);
#871=ORIENTED_EDGE('',*,*,#633,.F.);
#872=EDGE_LOOP('',(#868,#869,#870,#871));
#873=FACE_OUTER_BOUND('',#872,.F.);
#874=ADVANCED_FACE('',(#873),#867,.F.);
#875=CARTESIAN_POINT('',(2.5E-2,1.175766402949E-1,-2.3E-1));
#876=DIRECTION('',(0.E0,0.E0,1.E0));
#877=DIRECTION('',(-1.E0,0.E0,0.E0));
#878=AXIS2_PLACEMENT_3D('',#875,#876,#877);
#879=PLANE('',#878);
#880=ORIENTED_EDGE('',*,*,#769,.F.);
#881=ORIENTED_EDGE('',*,*,#655,.F.);
#882=ORIENTED_EDGE('',*,*,#642,.F.);
#884=ORIENTED_EDGE('',*,*,#883,.T.);
#886=ORIENTED_EDGE('',*,*,#885,.T.);
#888=ORIENTED_EDGE('',*,*,#887,.F.);
#889=EDGE_LOOP('',(#880,#881,#882,#884,#886,#888));
#890=FACE_OUTER_BOUND('',#889,.F.);
#891=ADVANCED_FACE('',(#890),#879,.F.);
#892=CARTESIAN_POINT('',(0.E0,1.175766402949E-1,-1.15E-1));
#893=DIRECTION('',(1.E0,0.E0,0.E0));
#894=DIRECTION('',(0.E0,1.E0,0.E0));
#895=AXIS2_PLACEMENT_3D('',#892,#893,#894);
#896=PLANE('',#895);
#897=ORIENTED_EDGE('',*,*,#599,.F.);
#899=ORIENTED_EDGE('',*,*,#898,.F.);
#900=ORIENTED_EDGE('',*,*,#883,.F.);
#901=ORIENTED_EDGE('',*,*,#640,.F.);
#902=EDGE_LOOP('',(#897,#899,#900,#901));
#903=FACE_OUTER_BOUND('',#902,.F.);
#904=ADVANCED_FACE('',(#903),#896,.F.);
#905=CARTESIAN_POINT('',(1.25E-2,7.664029488506E-5,-1.15E-1));
#906=DIRECTION('',(0.E0,1.E0,0.E0));
#907=DIRECTION('',(-1.E0,0.E0,0.E0));
#908=AXIS2_PLACEMENT_3D('',#905,#906,#907);
#909=PLANE('',#908);
#911=ORIENTED_EDGE('',*,*,#910,.F.);
#912=ORIENTED_EDGE('',*,*,#885,.F.);
#913=ORIENTED_EDGE('',*,*,#898,.T.);
#914=ORIENTED_EDGE('',*,*,#597,.F.);
#915=EDGE_LOOP('',(#911,#912,#913,#914));
#916=FACE_OUTER_BOUND('',#915,.F.);
#917=ADVANCED_FACE('',(#916),#909,.F.);
#918=CARTESIAN_POINT('',(2.5E-2,1.507664029489E-2,-1.15E-1));
#919=DIRECTION('',(1.E0,0.E0,0.E0));
#920=DIRECTION('',(0.E0,-1.E0,0.E0));
#921=AXIS2_PLACEMENT_3D('',#918,#919,#920);
#922=PLANE('',#921);
#923=ORIENTED_EDGE('',*,*,#595,.T.);
#924=ORIENTED_EDGE('',*,*,#771,.T.);
#925=ORIENTED_EDGE('',*,*,#887,.T.);
#926=ORIENTED_EDGE('',*,*,#910,.T.);
#927=EDGE_LOOP('',(#923,#924,#925,#926));
#928=FACE_OUTER_BOUND('',#927,.F.);
#929=ADVANCED_FACE('',(#928),#922,.T.);
#930=CARTESIAN_POINT('',(6.75E-2,-1.842335970510E-2,-1.95E-1));
#931=DIRECTION('',(0.E0,0.E0,1.E0));
#932=DIRECTION('',(-1.E0,0.E0,0.E0));
#933=AXIS2_PLACEMENT_3D('',#930,#931,#932);
#934=PLANE('',#933);
#935=ORIENTED_EDGE('',*,*,#686,.F.);
#937=ORIENTED_EDGE('',*,*,#936,.F.);
#939=ORIENTED_EDGE('',*,*,#938,.T.);
#941=ORIENTED_EDGE('',*,*,#940,.F.);
#942=EDGE_LOOP('',(#935,#937,#939,#941));
#943=FACE_OUTER_BOUND('',#942,.F.);
#944=ADVANCED_FACE('',(#943),#934,.T.);
#945=CARTESIAN_POINT('',(7.75E-2,-8.423359705100E-3,-1.825E-1));
#946=DIRECTION('',(1.E0,0.E0,0.E0));
#947=DIRECTION('',(0.E0,-1.E0,0.E0));
#948=AXIS2_PLACEMENT_3D('',#945,#946,#947);
#949=PLANE('',#948);
#950=ORIENTED_EDGE('',*,*,#692,.F.);
#952=ORIENTED_EDGE('',*,*,#951,.T.);
#954=ORIENTED_EDGE('',*,*,#953,.T.);
#956=ORIENTED_EDGE('',*,*,#955,.T.);
#957=ORIENTED_EDGE('',*,*,#936,.T.);
#958=EDGE_LOOP('',(#950,#952,#954,#956,#957));
#959=FACE_OUTER_BOUND('',#958,.F.);
#960=ADVANCED_FACE('',(#959),#949,.T.);
#961=CARTESIAN_POINT('',(6.75E-2,1.275766402949E-1,-1.825E-1));
#962=DIRECTION('',(0.E0,1.E0,0.E0));
#963=DIRECTION('',(1.E0,0.E0,0.E0));
#964=AXIS2_PLACEMENT_3D('',#961,#962,#963);
#965=PLANE('',#964);
#966=ORIENTED_EDGE('',*,*,#690,.F.);
#968=ORIENTED_EDGE('',*,*,#967,.T.);
#970=ORIENTED_EDGE('',*,*,#969,.T.);
#971=ORIENTED_EDGE('',*,*,#951,.F.);
#972=EDGE_LOOP('',(#966,#968,#970,#971));
#973=FACE_OUTER_BOUND('',#972,.F.);
#974=ADVANCED_FACE('',(#973),#965,.T.);
#975=CARTESIAN_POINT('',(5.75E-2,-8.423359705100E-3,-1.825E-1));
#976=DIRECTION('',(1.E0,0.E0,0.E0));
#977=DIRECTION('',(0.E0,1.E0,0.E0));
#978=AXIS2_PLACEMENT_3D('',#975,#976,#977);
#979=PLANE('',#978);
#980=ORIENTED_EDGE('',*,*,#688,.T.);
#981=ORIENTED_EDGE('',*,*,#940,.T.);
#983=ORIENTED_EDGE('',*,*,#982,.T.);
#985=ORIENTED_EDGE('',*,*,#984,.T.);
#986=ORIENTED_EDGE('',*,*,#967,.F.);
#987=EDGE_LOOP('',(#980,#981,#983,#985,#986));
#988=FACE_OUTER_BOUND('',#987,.F.);
#989=ADVANCED_FACE('',(#988),#979,.F.);
#990=CARTESIAN_POINT('',(6.75E-2,-1.444233597051E-1,-2.05E-1));
#991=DIRECTION('',(0.E0,1.E0,0.E0));
#992=DIRECTION('',(0.E0,0.E0,-1.E0));
#993=AXIS2_PLACEMENT_3D('',#990,#991,#992);
#994=PLANE('',#993);
#995=ORIENTED_EDGE('',*,*,#938,.F.);
#996=ORIENTED_EDGE('',*,*,#955,.F.);
#998=ORIENTED_EDGE('',*,*,#997,.T.);
#999=ORIENTED_EDGE('',*,*,#982,.F.);
#1000=EDGE_LOOP('',(#995,#996,#998,#999));
#1001=FACE_OUTER_BOUND('',#1000,.F.);
#1002=ADVANCED_FACE('',(#1001),#994,.F.);
#1003=CARTESIAN_POINT('',(6.75E-2,-8.423359705100E-3,-2.15E-1));
#1004=DIRECTION('',(0.E0,0.E0,1.E0));
#1005=DIRECTION('',(1.E0,0.E0,0.E0));
#1006=AXIS2_PLACEMENT_3D('',#1003,#1004,#1005);
#1007=PLANE('',#1006);
#1008=ORIENTED_EDGE('',*,*,#969,.F.);
#1009=ORIENTED_EDGE('',*,*,#984,.F.);
#1010=ORIENTED_EDGE('',*,*,#997,.F.);
#1011=ORIENTED_EDGE('',*,*,#953,.F.);
#1012=EDGE_LOOP('',(#1008,#1009,#1010,#1011));
#1013=FACE_OUTER_BOUND('',#1012,.F.);
#1014=ADVANCED_FACE('',(#1013),#1007,.F.);
#1015=CARTESIAN_POINT('',(1.675E-1,-1.842335970510E-2,-1.95E-1));
#1016=DIRECTION('',(0.E0,0.E0,1.E0));
#1017=DIRECTION('',(-1.E0,0.E0,0.E0));
#1018=AXIS2_PLACEMENT_3D('',#1015,#1016,#1017);
#1019=PLANE('',#1018);
#1020=ORIENTED_EDGE('',*,*,#696,.F.);
#1022=ORIENTED_EDGE('',*,*,#1021,.F.);
#1024=ORIENTED_EDGE('',*,*,#1023,.T.);
#1026=ORIENTED_EDGE('',*,*,#1025,.F.);
#1027=EDGE_LOOP('',(#1020,#1022,#1024,#1026));
#1028=FACE_OUTER_BOUND('',#1027,.F.);
#1029=ADVANCED_FACE('',(#1028),#1019,.T.);
#1030=CARTESIAN_POINT('',(1.775E-1,-8.423359705100E-3,-1.825E-1));
#1031=DIRECTION('',(1.E0,0.E0,0.E0));
#1032=DIRECTION('',(0.E0,-1.E0,0.E0));
#1033=AXIS2_PLACEMENT_3D('',#1030,#1031,#1032);
#1034=PLANE('',#1033);
#1035=ORIENTED_EDGE('',*,*,#702,.F.);
#1037=ORIENTED_EDGE('',*,*,#1036,.T.);
#1039=ORIENTED_EDGE('',*,*,#1038,.T.);
#1041=ORIENTED_EDGE('',*,*,#1040,.T.);
#1042=ORIENTED_EDGE('',*,*,#1021,.T.);
#1043=EDGE_LOOP('',(#1035,#1037,#1039,#1041,#1042));
#1044=FACE_OUTER_BOUND('',#1043,.F.);
#1045=ADVANCED_FACE('',(#1044),#1034,.T.);
#1046=CARTESIAN_POINT('',(1.675E-1,1.275766402949E-1,-1.825E-1));
#1047=DIRECTION('',(0.E0,1.E0,0.E0));
#1048=DIRECTION('',(1.E0,0.E0,0.E0));
#1049=AXIS2_PLACEMENT_3D('',#1046,#1047,#1048);
#1050=PLANE('',#1049);
#1051=ORIENTED_EDGE('',*,*,#700,.F.);
#1053=ORIENTED_EDGE('',*,*,#1052,.T.);
#1055=ORIENTED_EDGE('',*,*,#1054,.T.);
#1056=ORIENTED_EDGE('',*,*,#1036,.F.);
#1057=EDGE_LOOP('',(#1051,#1053,#1055,#1056));
#1058=FACE_OUTER_BOUND('',#1057,.F.);
#1059=ADVANCED_FACE('',(#1058),#1050,.T.);
#1060=CARTESIAN_POINT('',(1.575E-1,-8.423359705100E-3,-1.825E-1));
#1061=DIRECTION('',(1.E0,0.E0,0.E0));
#1062=DIRECTION('',(0.E0,1.E0,0.E0));
#1063=AXIS2_PLACEMENT_3D('',#1060,#1061,#1062);
#1064=PLANE('',#1063);
#1065=ORIENTED_EDGE('',*,*,#698,.T.);
#1066=ORIENTED_EDGE('',*,*,#1025,.T.);
#1068=ORIENTED_EDGE('',*,*,#1067,.T.);
#1070=ORIENTED_EDGE('',*,*,#1069,.T.);
#1071=ORIENTED_EDGE('',*,*,#1052,.F.);
#1072=EDGE_LOOP('',(#1065,#1066,#1068,#1070,#1071));
#1073=FACE_OUTER_BOUND('',#1072,.F.);
#1074=ADVANCED_FACE('',(#1073),#1064,.F.);
#1075=CARTESIAN_POINT('',(1.675E-1,-1.444233597051E-1,-2.05E-1));
#1076=DIRECTION('',(0.E0,1.E0,0.E0));
#1077=DIRECTION('',(0.E0,0.E0,-1.E0));
#1078=AXIS2_PLACEMENT_3D('',#1075,#1076,#1077);
#1079=PLANE('',#1078);
#1080=ORIENTED_EDGE('',*,*,#1023,.F.);
#1081=ORIENTED_EDGE('',*,*,#1040,.F.);
#1083=ORIENTED_EDGE('',*,*,#1082,.T.);
#1084=ORIENTED_EDGE('',*,*,#1067,.F.);
#1085=EDGE_LOOP('',(#1080,#1081,#1083,#1084));
#1086=FACE_OUTER_BOUND('',#1085,.F.);
#1087=ADVANCED_FACE('',(#1086),#1079,.F.);
#1088=CARTESIAN_POINT('',(1.675E-1,-8.423359705100E-3,-2.15E-1));
#1089=DIRECTION('',(0.E0,0.E0,1.E0));
#1090=DIRECTION('',(1.E0,0.E0,0.E0));
#1091=AXIS2_PLACEMENT_3D('',#1088,#1089,#1090);
#1092=PLANE('',#1091);
#1093=ORIENTED_EDGE('',*,*,#1054,.F.);
#1094=ORIENTED_EDGE('',*,*,#1069,.F.);
#1095=ORIENTED_EDGE('',*,*,#1082,.F.);
#1096=ORIENTED_EDGE('',*,*,#1038,.F.);
#1097=EDGE_LOOP('',(#1093,#1094,#1095,#1096));
#1098=FACE_OUTER_BOUND('',#1097,.F.);
#1099=ADVANCED_FACE('',(#1098),#1092,.F.);
#1100=CARTESIAN_POINT('',(1.175E-1,1.175766402949E-1,-1.634279885897E-1));
#1101=DIRECTION('',(0.E0,0.E0,1.E0));
#1102=DIRECTION('',(1.E0,0.E0,0.E0));
#1103=AXIS2_PLACEMENT_3D('',#1100,#1101,#1102);
#1104=CYLINDRICAL_SURFACE('',#1103,1.015E-1);
#1106=ORIENTED_EDGE('',*,*,#1105,.T.);
#1108=ORIENTED_EDGE('',*,*,#1107,.F.);
#1109=ORIENTED_EDGE('',*,*,#603,.F.);
#1111=ORIENTED_EDGE('',*,*,#1110,.F.);
#1112=EDGE_LOOP('',(#1106,#1108,#1109,#1111));
#1113=FACE_OUTER_BOUND('',#1112,.F.);
#1114=ADVANCED_FACE('',(#1113),#1104,.F.);
#1115=CARTESIAN_POINT('',(1.175E-1,2.350766402949E-1,-1.5E-2));
#1116=DIRECTION('',(0.E0,0.E0,1.E0));
#1117=DIRECTION('',(1.E0,0.E0,0.E0));
#1118=AXIS2_PLACEMENT_3D('',#1115,#1116,#1117);
#1119=PLANE('',#1118);
#1121=ORIENTED_EDGE('',*,*,#1120,.T.);
#1122=ORIENTED_EDGE('',*,*,#1105,.F.);
#1123=EDGE_LOOP('',(#1121,#1122));
#1124=FACE_OUTER_BOUND('',#1123,.F.);
#1126=ORIENTED_EDGE('',*,*,#1125,.F.);
#1128=ORIENTED_EDGE('',*,*,#1127,.F.);
#1129=EDGE_LOOP('',(#1126,#1128));
#1130=FACE_BOUND('',#1129,.F.);
#1131=ADVANCED_FACE('',(#1124,#1130),#1119,.T.);
#1132=CARTESIAN_POINT('',(1.175E-1,1.175766402949E-1,3.204470364503E-3));
#1133=DIRECTION('',(0.E0,0.E0,-1.E0));
#1134=DIRECTION('',(-1.E0,0.E0,0.E0));
#1135=AXIS2_PLACEMENT_3D('',#1132,#1133,#1134);
#1136=CYLINDRICAL_SURFACE('',#1135,1.015E-1);
#1137=ORIENTED_EDGE('',*,*,#1120,.F.);
#1138=ORIENTED_EDGE('',*,*,#1110,.T.);
#1139=ORIENTED_EDGE('',*,*,#605,.F.);
#1140=ORIENTED_EDGE('',*,*,#1107,.T.);
#1141=EDGE_LOOP('',(#1137,#1138,#1139,#1140));
#1142=FACE_OUTER_BOUND('',#1141,.F.);
#1143=ADVANCED_FACE('',(#1142),#1136,.F.);
#1144=CARTESIAN_POINT('',(1.175E-1,1.175766402949E-1,9.633E-2));
#1145=DIRECTION('',(0.E0,0.E0,-1.E0));
#1146=DIRECTION('',(-1.E0,0.E0,0.E0));
#1147=AXIS2_PLACEMENT_3D('',#1144,#1145,#1146);
#1148=CYLINDRICAL_SURFACE('',#1147,9.85E-2);
#1149=ORIENTED_EDGE('',*,*,#1125,.T.);
#1151=ORIENTED_EDGE('',*,*,#1150,.F.);
#1153=ORIENTED_EDGE('',*,*,#1152,.F.);
#1155=ORIENTED_EDGE('',*,*,#1154,.F.);
#1156=EDGE_LOOP('',(#1149,#1151,#1153,#1155));
#1157=FACE_OUTER_BOUND('',#1156,.F.);
#1158=ADVANCED_FACE('',(#1157),#1148,.T.);
#1159=CARTESIAN_POINT('',(1.175E-1,1.175766402949E-1,9.633E-2));
#1160=DIRECTION('',(0.E0,0.E0,-1.E0));
#1161=DIRECTION('',(-1.E0,0.E0,0.E0));
#1162=AXIS2_PLACEMENT_3D('',#1159,#1160,#1161);
#1163=CYLINDRICAL_SURFACE('',#1162,9.85E-2);
#1164=ORIENTED_EDGE('',*,*,#1127,.T.);
#1165=ORIENTED_EDGE('',*,*,#1154,.T.);
#1167=ORIENTED_EDGE('',*,*,#1166,.F.);
#1168=ORIENTED_EDGE('',*,*,#1150,.T.);
#1169=EDGE_LOOP('',(#1164,#1165,#1167,#1168));
#1170=FACE_OUTER_BOUND('',#1169,.F.);
#1171=ADVANCED_FACE('',(#1170),#1163,.T.);
#1172=CARTESIAN_POINT('',(1.175E-1,1.175766402949E-1,9.15E-2));
#1173=DIRECTION('',(0.E0,0.E0,-1.E0));
#1174=DIRECTION('',(-1.E0,0.E0,0.E0));
#1175=AXIS2_PLACEMENT_3D('',#1172,#1173,#1174);
#1176=SPHERICAL_SURFACE('',#1175,9.85E-2);
#1178=ORIENTED_EDGE('',*,*,#1177,.F.);
#1180=ORIENTED_EDGE('',*,*,#1179,.F.);
#1181=ORIENTED_EDGE('',*,*,#1166,.T.);
#1182=EDGE_LOOP('',(#1178,#1180,#1181));
#1183=FACE_OUTER_BOUND('',#1182,.F.);
#1184=ADVANCED_FACE('',(#1183),#1176,.T.);
#1185=CARTESIAN_POINT('',(1.175E-1,1.175766402949E-1,9.15E-2));
#1186=DIRECTION('',(0.E0,0.E0,-1.E0));
#1187=DIRECTION('',(-1.E0,0.E0,0.E0));
#1188=AXIS2_PLACEMENT_3D('',#1185,#1186,#1187);
#1189=SPHERICAL_SURFACE('',#1188,9.85E-2);
#1190=ORIENTED_EDGE('',*,*,#1177,.T.);
#1191=ORIENTED_EDGE('',*,*,#1152,.T.);
#1192=ORIENTED_EDGE('',*,*,#1179,.T.);
#1193=EDGE_LOOP('',(#1190,#1191,#1192));
#1194=FACE_OUTER_BOUND('',#1193,.F.);
#1195=ADVANCED_FACE('',(#1194),#1189,.T.);
#1196=CARTESIAN_POINT('',(2.08E-1,2.080766402949E-1,-1.548505244934E-2));
#1197=DIRECTION('',(0.E0,0.E0,1.E0));
#1198=DIRECTION('',(1.E0,0.E0,0.E0));
#1199=AXIS2_PLACEMENT_3D('',#1196,#1197,#1198);
#1200=CYLINDRICAL_SURFACE('',#1199,1.55E-2);
#1201=ORIENTED_EDGE('',*,*,#609,.F.);
#1203=ORIENTED_EDGE('',*,*,#1202,.T.);
#1205=ORIENTED_EDGE('',*,*,#1204,.T.);
#1207=ORIENTED_EDGE('',*,*,#1206,.T.);
#1208=EDGE_LOOP('',(#1201,#1203,#1205,#1207));
#1209=FACE_OUTER_BOUND('',#1208,.F.);
#1210=ADVANCED_FACE('',(#1209),#1200,.F.);
#1211=CARTESIAN_POINT('',(2.08E-1,2.080766402949E-1,-1.548505244934E-2));
#1212=DIRECTION('',(0.E0,0.E0,1.E0));
#1213=DIRECTION('',(1.E0,0.E0,0.E0));
#1214=AXIS2_PLACEMENT_3D('',#1211,#1212,#1213);
#1215=CYLINDRICAL_SURFACE('',#1214,1.55E-2);
#1216=ORIENTED_EDGE('',*,*,#611,.F.);
#1217=ORIENTED_EDGE('',*,*,#1206,.F.);
#1219=ORIENTED_EDGE('',*,*,#1218,.T.);
#1220=ORIENTED_EDGE('',*,*,#1202,.F.);
#1221=EDGE_LOOP('',(#1216,#1217,#1219,#1220));
#1222=FACE_OUTER_BOUND('',#1221,.F.);
#1223=ADVANCED_FACE('',(#1222),#1215,.F.);
#1224=CARTESIAN_POINT('',(2.08E-1,2.080766402949E-1,-1.5E-2));
#1225=DIRECTION('',(0.E0,0.E0,1.E0));
#1226=DIRECTION('',(1.E0,0.E0,0.E0));
#1227=AXIS2_PLACEMENT_3D('',#1224,#1225,#1226);
#1228=PLANE('',#1227);
#1229=ORIENTED_EDGE('',*,*,#1204,.F.);
#1230=ORIENTED_EDGE('',*,*,#1218,.F.);
#1231=EDGE_LOOP('',(#1229,#1230));
#1232=FACE_OUTER_BOUND('',#1231,.F.);
#1233=ADVANCED_FACE('',(#1232),#1228,.T.);
#1234=CLOSED_SHELL('',(#615,#646,#661,#706,#720,#734,#747,#759,#776,#789,#806,
#820,#834,#847,#862,#874,#891,#904,#917,#929,#944,#960,#974,#989,#1002,#1014,
#1029,#1045,#1059,#1074,#1087,#1099,#1114,#1131,#1143,#1158,#1171,#1184,#1195,
#1210,#1223,#1233));
#1235=MANIFOLD_SOLID_BREP('',#1234);
#1236=DIMENSIONAL_EXPONENTS(1.E0,0.E0,0.E0,0.E0,0.E0,0.E0,0.E0);
#1237=(LENGTH_UNIT()NAMED_UNIT(*)SI_UNIT(.MILLI.,.METRE.));
#1238=LENGTH_MEASURE_WITH_UNIT(LENGTH_MEASURE(2.54E1),#1237);
#1239=(CONVERSION_BASED_UNIT('INCH',#1238)LENGTH_UNIT()NAMED_UNIT(#1236));
#1240=DIMENSIONAL_EXPONENTS(0.E0,0.E0,0.E0,0.E0,0.E0,0.E0,0.E0);
#1241=(NAMED_UNIT(*)PLANE_ANGLE_UNIT()SI_UNIT($,.RADIAN.));
#1242=PLANE_ANGLE_MEASURE_WITH_UNIT(PLANE_ANGLE_MEASURE(1.745329251994E-2),
#1241);
#1243=(CONVERSION_BASED_UNIT('DEGREE',#1242)NAMED_UNIT(#1240)PLANE_ANGLE_UNIT(
));
#1244=(NAMED_UNIT(*)SI_UNIT($,.STERADIAN.)SOLID_ANGLE_UNIT());
#1245=UNCERTAINTY_MEASURE_WITH_UNIT(LENGTH_MEASURE(6.128745377164E-5),#1239,
'closure',
'Maximum model space distance between geometric entities at asserted connectivities');
#1246=(GEOMETRIC_REPRESENTATION_CONTEXT(3)GLOBAL_UNCERTAINTY_ASSIGNED_CONTEXT((
#1245))GLOBAL_UNIT_ASSIGNED_CONTEXT((#1239,#1243,#1244))REPRESENTATION_CONTEXT(
'ID1','3'));
#1248=APPLICATION_CONTEXT(
'CONFIGURATION CONTROLLED 3D DESIGNS OF MECHANICAL PARTS AND ASSEMBLIES');
#1249=APPLICATION_PROTOCOL_DEFINITION('international standard',
'config_control_design',1994,#1248);
#1250=DESIGN_CONTEXT('',#1248,'design');
#1251=MECHANICAL_CONTEXT('',#1248,'mechanical');
#1252=PRODUCT('550XX05_ASM','550XX05_ASM','NOT SPECIFIED',(#1251));
#1253=PRODUCT_DEFINITION_FORMATION_WITH_SPECIFIED_SOURCE('','LAST_VERSION',
#1252,.MADE.);
#1257=PRODUCT_CATEGORY('part','');
#1258=PRODUCT_RELATED_PRODUCT_CATEGORY('detail','',(#1252));
#1259=PRODUCT_CATEGORY_RELATIONSHIP('','',#1257,#1258);
#1260=SECURITY_CLASSIFICATION_LEVEL('unclassified');
#1261=SECURITY_CLASSIFICATION('','',#1260);
#1262=CC_DESIGN_SECURITY_CLASSIFICATION(#1261,(#1253));
#1263=APPROVAL_STATUS('approved');
#1264=APPROVAL(#1263,'');
#1265=CC_DESIGN_APPROVAL(#1264,(#1261,#1253,#1254));
#1266=CALENDAR_DATE(111,4,3);
#1267=COORDINATED_UNIVERSAL_TIME_OFFSET(5,0,.BEHIND.);
#1268=LOCAL_TIME(16,21,4.9E1,#1267);
#1269=DATE_AND_TIME(#1266,#1268);
#1270=APPROVAL_DATE_TIME(#1269,#1264);
#1271=DATE_TIME_ROLE('creation_date');
#1272=CC_DESIGN_DATE_AND_TIME_ASSIGNMENT(#1269,#1271,(#1254));
#1273=DATE_TIME_ROLE('classification_date');
#1274=CC_DESIGN_DATE_AND_TIME_ASSIGNMENT(#1269,#1273,(#1261));
#1275=PERSON('UNSPECIFIED','UNSPECIFIED',$,$,$,$);
#1276=ORGANIZATION('UNSPECIFIED','UNSPECIFIED','UNSPECIFIED');
#1277=PERSON_AND_ORGANIZATION(#1275,#1276);
#1278=APPROVAL_ROLE('approver');
#1279=APPROVAL_PERSON_ORGANIZATION(#1277,#1264,#1278);
#1280=PERSON_AND_ORGANIZATION_ROLE('creator');
#1281=CC_DESIGN_PERSON_AND_ORGANIZATION_ASSIGNMENT(#1277,#1280,(#1253,#1254));
#1282=PERSON_AND_ORGANIZATION_ROLE('design_supplier');
#1283=CC_DESIGN_PERSON_AND_ORGANIZATION_ASSIGNMENT(#1277,#1282,(#1253));
#1284=PERSON_AND_ORGANIZATION_ROLE('classification_officer');
#1285=CC_DESIGN_PERSON_AND_ORGANIZATION_ASSIGNMENT(#1277,#1284,(#1261));
#1286=PERSON_AND_ORGANIZATION_ROLE('design_owner');
#1287=CC_DESIGN_PERSON_AND_ORGANIZATION_ASSIGNMENT(#1277,#1286,(#1252));
#5=CIRCLE('',#4,1.175E-1);
#10=CIRCLE('',#9,1.015E-1);
#15=CIRCLE('',#14,1.015E-1);
#20=CIRCLE('',#19,1.55E-2);
#25=CIRCLE('',#24,1.55E-2);
#139=B_SPLINE_CURVE_WITH_KNOTS('',3,(#130,#131,#132,#133,#134,#135,#136,#137,
#138),.UNSPECIFIED.,.F.,.F.,(4,1,1,1,1,1,4),(0.E0,1.25E-1,2.5E-1,5.E-1,7.5E-1,
8.75E-1,1.E0),.UNSPECIFIED.);
#368=CIRCLE('',#367,1.015E-1);
#381=CIRCLE('',#380,1.015E-1);
#386=CIRCLE('',#385,9.85E-2);
#391=CIRCLE('',#390,9.85E-2);
#404=CIRCLE('',#403,9.85E-2);
#409=CIRCLE('',#408,9.85E-2);
#414=CIRCLE('',#413,9.85E-2);
#419=CIRCLE('',#418,9.85E-2);
#432=CIRCLE('',#431,1.55E-2);
#437=CIRCLE('',#436,1.55E-2);
#581=EDGE_CURVE('',#470,#471,#29,.T.);
#583=EDGE_CURVE('',#487,#471,#179,.T.);
#585=EDGE_CURVE('',#485,#487,#171,.T.);
#587=EDGE_CURVE('',#485,#483,#155,.T.);
#589=EDGE_CURVE('',#481,#483,#147,.T.);
#591=EDGE_CURVE('',#481,#479,#5,.T.);
#593=EDGE_CURVE('',#477,#479,#125,.T.);
#595=EDGE_CURVE('',#475,#477,#243,.T.);
#597=EDGE_CURVE('',#475,#473,#239,.T.);
#599=EDGE_CURVE('',#473,#470,#215,.T.);
#603=EDGE_CURVE('',#490,#491,#10,.T.);
#605=EDGE_CURVE('',#491,#490,#15,.T.);
#609=EDGE_CURVE('',#494,#495,#20,.T.);
#611=EDGE_CURVE('',#495,#494,#25,.T.);
#621=EDGE_CURVE('',#573,#507,#33,.T.);
#623=EDGE_CURVE('',#575,#573,#49,.T.);
#625=EDGE_CURVE('',#498,#575,#97,.T.);
#627=EDGE_CURVE('',#498,#499,#117,.T.);
#629=EDGE_CURVE('',#499,#569,#105,.T.);
#631=EDGE_CURVE('',#571,#569,#69,.T.);
#633=EDGE_CURVE('',#571,#502,#207,.T.);
#635=EDGE_CURVE('',#502,#503,#195,.T.);
#637=EDGE_CURVE('',#471,#503,#183,.T.);
#640=EDGE_CURVE('',#470,#505,#227,.T.);
#642=EDGE_CURVE('',#505,#507,#211,.T.);
#652=EDGE_CURVE('',#573,#535,#53,.T.);
#655=EDGE_CURVE('',#507,#518,#37,.T.);
#657=EDGE_CURVE('',#518,#535,#41,.T.);
#667=EDGE_CURVE('',#539,#575,#45,.T.);
#671=EDGE_CURVE('',#535,#533,#57,.T.);
#673=EDGE_CURVE('',#529,#533,#139,.T.);
#675=EDGE_CURVE('',#529,#531,#61,.T.);
#677=EDGE_CURVE('',#531,#571,#65,.T.);
#680=EDGE_CURVE('',#569,#538,#73,.T.);
#682=EDGE_CURVE('',#538,#539,#77,.T.);
#686=EDGE_CURVE('',#563,#567,#81,.T.);
#688=EDGE_CURVE('',#565,#567,#275,.T.);
#690=EDGE_CURVE('',#565,#562,#267,.T.);
#692=EDGE_CURVE('',#562,#563,#263,.T.);
#696=EDGE_CURVE('',#555,#559,#85,.T.);
#698=EDGE_CURVE('',#557,#559,#331,.T.);
#700=EDGE_CURVE('',#557,#554,#323,.T.);
#702=EDGE_CURVE('',#554,#555,#319,.T.);
#713=EDGE_CURVE('',#539,#527,#89,.T.);
#715=EDGE_CURVE('',#527,#498,#93,.T.);
#727=EDGE_CURVE('',#538,#526,#113,.T.);
#729=EDGE_CURVE('',#526,#527,#101,.T.);
#742=EDGE_CURVE('',#526,#499,#109,.T.);
#765=EDGE_CURVE('',#533,#479,#143,.T.);
#769=EDGE_CURVE('',#518,#519,#121,.T.);
#771=EDGE_CURVE('',#477,#519,#247,.T.);
#783=EDGE_CURVE('',#481,#529,#129,.T.);
#797=EDGE_CURVE('',#483,#510,#163,.T.);
#799=EDGE_CURVE('',#510,#511,#151,.T.);
#801=EDGE_CURVE('',#511,#531,#199,.T.);
#813=EDGE_CURVE('',#513,#485,#167,.T.);
#815=EDGE_CURVE('',#510,#513,#159,.T.);
#828=EDGE_CURVE('',#515,#487,#191,.T.);
#830=EDGE_CURVE('',#515,#513,#175,.T.);
#842=EDGE_CURVE('',#503,#515,#187,.T.);
#858=EDGE_CURVE('',#502,#511,#203,.T.);
#883=EDGE_CURVE('',#505,#521,#223,.T.);
#885=EDGE_CURVE('',#521,#523,#235,.T.);
#887=EDGE_CURVE('',#519,#523,#251,.T.);
#898=EDGE_CURVE('',#521,#473,#219,.T.);
#910=EDGE_CURVE('',#523,#475,#231,.T.);
#936=EDGE_CURVE('',#461,#563,#255,.T.);
#938=EDGE_CURVE('',#461,#466,#283,.T.);
#940=EDGE_CURVE('',#567,#466,#259,.T.);
#951=EDGE_CURVE('',#562,#458,#271,.T.);
#953=EDGE_CURVE('',#458,#459,#307,.T.);
#955=EDGE_CURVE('',#459,#461,#287,.T.);
#967=EDGE_CURVE('',#565,#463,#279,.T.);
#969=EDGE_CURVE('',#463,#458,#295,.T.);
#982=EDGE_CURVE('',#466,#467,#291,.T.);
#984=EDGE_CURVE('',#467,#463,#299,.T.);
#997=EDGE_CURVE('',#459,#467,#303,.T.);
#1021=EDGE_CURVE('',#449,#555,#311,.T.);
#1023=EDGE_CURVE('',#449,#454,#339,.T.);
#1025=EDGE_CURVE('',#559,#454,#315,.T.);
#1036=EDGE_CURVE('',#554,#446,#327,.T.);
#1038=EDGE_CURVE('',#446,#447,#363,.T.);
#1040=EDGE_CURVE('',#447,#449,#343,.T.);
#1052=EDGE_CURVE('',#557,#451,#335,.T.);
#1054=EDGE_CURVE('',#451,#446,#351,.T.);
#1067=EDGE_CURVE('',#454,#455,#347,.T.);
#1069=EDGE_CURVE('',#455,#451,#355,.T.);
#1082=EDGE_CURVE('',#447,#455,#359,.T.);
#1105=EDGE_CURVE('',#546,#547,#368,.T.);
#1107=EDGE_CURVE('',#491,#547,#372,.T.);
#1110=EDGE_CURVE('',#546,#490,#376,.T.);
#1120=EDGE_CURVE('',#546,#547,#381,.T.);
#1125=EDGE_CURVE('',#550,#551,#386,.T.);
#1127=EDGE_CURVE('',#551,#550,#391,.T.);
#1150=EDGE_CURVE('',#441,#551,#399,.T.);
#1152=EDGE_CURVE('',#440,#441,#414,.T.);
#1154=EDGE_CURVE('',#550,#440,#395,.T.);
#1166=EDGE_CURVE('',#441,#440,#404,.T.);
#1177=EDGE_CURVE('',#443,#440,#409,.T.);
#1179=EDGE_CURVE('',#441,#443,#419,.T.);
#1202=EDGE_CURVE('',#494,#543,#427,.T.);
#1204=EDGE_CURVE('',#543,#541,#432,.T.);
#1206=EDGE_CURVE('',#541,#495,#423,.T.);
#1218=EDGE_CURVE('',#541,#543,#437,.T.);
#1247=ADVANCED_BREP_SHAPE_REPRESENTATION('',(#1235),#1246);
#1254=PRODUCT_DEFINITION('design','',#1253,#1250);
#1255=PRODUCT_DEFINITION_SHAPE('','SHAPE FOR 550XX05_ASM.',#1254);
#1256=SHAPE_DEFINITION_REPRESENTATION(#1255,#1247);
ENDSEC;
END-ISO-10303-21;
