ISO-10303-21;
HEADER;
FILE_DESCRIPTION (( 'STEP AP214' ),
    '1' );
FILE_NAME ('BBBE31E5-EA78-47BF-A5F9-230F80F2E3D7.STEP',
    '2023-11-06T08:05:01',
    ( '' ),
    ( '' ),
    'SwSTEP 2.0',
    'SolidWorks 2022',
    '' );
FILE_SCHEMA (( 'AUTOMOTIVE_DESIGN' ));
ENDSEC;

DATA;
#1 = VERTEX_POINT ( 'NONE', #721 ) ;
#2 = SURFACE_STYLE_USAGE ( .BOTH. , #931 ) ;
#3 = ORIENTED_EDGE ( 'NONE', *, *, #470, .T. ) ;
#4 = CARTESIAN_POINT ( 'NONE',  ( 1.237430683998515635, -0.1750000000000000167, 0.1199999999998047490 ) ) ;
#5 = DIRECTION ( 'NONE',  ( 0.2095290893580920577, 0.0000000000000000000, 0.9778024139430054884 ) ) ;
#6 = ADVANCED_FACE ( 'NONE', ( #83 ), #255, .T. ) ;
#7 = ORIENTED_EDGE ( 'NONE', *, *, #354, .T. ) ;
#8 = DIRECTION ( 'NONE',  ( 1.000000000000000000, 0.0000000000000000000, -0.0000000000000000000 ) ) ;
#9 = SURFACE_STYLE_USAGE ( .BOTH. , #862 ) ;
#10 = ORIENTED_EDGE ( 'NONE', *, *, #120, .F. ) ;
#11 = CARTESIAN_POINT ( 'NONE',  ( 0.0000000000000000000, 0.5750000000000000666, 0.1000000000000000056 ) ) ;
#12 = CARTESIAN_POINT ( 'NONE',  ( 1.180841579000000197, 0.1750000000000000167, -3.905194581339116455E-13 ) ) ;
#13 = ORIENTED_EDGE ( 'NONE', *, *, #800, .T. ) ;
#14 = EDGE_LOOP ( 'NONE', ( #348, #627, #867, #851, #291, #1210 ) ) ;
#15 = MECHANICAL_DESIGN_GEOMETRIC_PRESENTATION_REPRESENTATION (  '', ( #1009 ), #314 ) ;
#16 = AXIS2_PLACEMENT_3D ( 'NONE', #1189, #618, #327 ) ;
#17 = EDGE_CURVE ( 'NONE', #398, #623, #638, .T. ) ;
#18 = B_SPLINE_CURVE_WITH_KNOTS ( 'NONE', 3,
 ( #73, #725, #919, #82 ),
 .UNSPECIFIED., .F., .F.,
 ( 4, 4 ),
 ( 0.0000000000000000000, 1.000000000000000000 ),
 .UNSPECIFIED. ) ;
#19 = LINE ( 'NONE', #758, #114 ) ;
#20 = CARTESIAN_POINT ( 'NONE',  ( 1.011764706275403380, 0.0000000000000000000, 0.2529411765427783121 ) ) ;
#21 = ORIENTED_EDGE ( 'NONE', *, *, #485, .F. ) ;
#22 = EDGE_LOOP ( 'NONE', ( #514, #911, #229, #940, #432, #478, #886, #805, #1133, #48 ) ) ;
#23 = EDGE_CURVE ( 'NONE', #804, #521, #524, .T. ) ;
#24 = CARTESIAN_POINT ( 'NONE',  ( 1.083061337135983404, -0.0000000000000000000, 0.07904709094485362630 ) ) ;
#25 = DIRECTION ( 'NONE',  ( -0.9778024140847265677, 0.0000000000000000000, 0.2095290886967271504 ) ) ;
#26 = EDGE_LOOP ( 'NONE', ( #1089, #1064, #774, #961, #1128, #666, #738, #219 ) ) ;
#27 = LINE ( 'NONE', #786, #1140 ) ;
#28 = EDGE_CURVE ( 'NONE', #811, #292, #850, .T. ) ;
#29 = LINE ( 'NONE', #474, #356 ) ;
#30 = PRESENTATION_STYLE_ASSIGNMENT (( #111 ) ) ;
#31 = B_SPLINE_CURVE_WITH_KNOTS ( 'NONE', 3,
 ( #156, #1104, #339, #236 ),
 .UNSPECIFIED., .F., .F.,
 ( 4, 4 ),
 ( 0.0000000000000000000, 1.000000000000000000 ),
 .UNSPECIFIED. ) ;
#32 = ORIENTED_EDGE ( 'NONE', *, *, #408, .F. ) ;
#33 = FACE_OUTER_BOUND ( 'NONE', #903, .T. ) ;
#34 = B_SPLINE_CURVE_WITH_KNOTS ( 'NONE', 3,
 ( #202, #289, #952, #860 ),
 .UNSPECIFIED., .F., .F.,
 ( 4, 4 ),
 ( 0.0000000000000000000, 1.000000000000000000 ),
 .UNSPECIFIED. ) ;
#35 = AXIS2_PLACEMENT_3D ( 'NONE', #195, #1068, #1211 ) ;
#36 = MECHANICAL_DESIGN_GEOMETRIC_PRESENTATION_REPRESENTATION (  '', ( #1123 ), #1038 ) ;
#37 = VECTOR ( 'NONE', #148, 1000.000000000000000 ) ;
#38 = ORIENTED_EDGE ( 'NONE', *, *, #1216, .T. ) ;
#39 = LINE ( 'NONE', #767, #732 ) ;
#40 = CARTESIAN_POINT ( 'NONE',  ( -0.8799669973016659430, -0.1750000000000000167, 0.7801320124920698706 ) ) ;
#41 = CARTESIAN_POINT ( 'NONE',  ( 1.300000000000000266, -0.1750000000000000167, 0.0000000000000000000 ) ) ;
#42 = DIRECTION ( 'NONE',  ( 0.2425356250128035684, 0.0000000000000000000, 0.9701425001512141710 ) ) ;
#43 = EDGE_CURVE ( 'NONE', #297, #1198, #149, .T. ) ;
#44 = ORIENTED_EDGE ( 'NONE', *, *, #997, .T. ) ;
#45 =( LENGTH_UNIT ( ) NAMED_UNIT ( * ) SI_UNIT ( .MILLI., .METRE. ) );
#46 = SURFACE_STYLE_USAGE ( .BOTH. , #801 ) ;
#47 = DIRECTION ( 'NONE',  ( 1.000000000000000000, 0.0000000000000000000, -0.0000000000000000000 ) ) ;
#48 = ORIENTED_EDGE ( 'NONE', *, *, #585, .F. ) ;
#49 = CARTESIAN_POINT ( 'NONE',  ( 0.0000000000000000000, 0.1750000000000000167, 0.0000000000000000000 ) ) ;
#50 = COLOUR_RGB ( '',0.1215686274509803905, 0.1215686274509803905, 0.1215686274509803905 ) ;
#51 = VECTOR ( 'NONE', #1111, 1000.000000000000000 ) ;
#52 = VERTEX_POINT ( 'NONE', #1014 ) ;
#53 = CARTESIAN_POINT ( 'NONE',  ( -1.135518146089393277, -0.1750000000000000167, 3.993366565370067614E-10 ) ) ;
#54 = EDGE_CURVE ( 'NONE', #625, #398, #710, .T. ) ;
#55 = DIRECTION ( 'NONE',  ( -0.2095290886967271227, 0.0000000000000000000, 0.9778024140847264567 ) ) ;
#56 = ADVANCED_FACE ( 'NONE', ( #1130 ), #956, .F. ) ;
#57 =( NAMED_UNIT ( * ) PLANE_ANGLE_UNIT ( ) SI_UNIT ( $, .RADIAN. ) );
#58 = VERTEX_POINT ( 'NONE', #1143 ) ;
#59 = LINE ( 'NONE', #435, #51 ) ;
#60 = DIRECTION ( 'NONE',  ( -0.0000000000000000000, -1.000000000000000000, -0.0000000000000000000 ) ) ;
#61 = EDGE_LOOP ( 'NONE', ( #205, #1177, #856, #1052, #1042, #245, #735, #1162, #1135, #977 ) ) ;
#62 = DIRECTION ( 'NONE',  ( 0.2095290895954797228, 0.0000000000000000000, 0.9778024138921366237 ) ) ;
#63 = EDGE_CURVE ( 'NONE', #275, #376, #461, .T. ) ;
#64 = EDGE_LOOP ( 'NONE', ( #1146, #760, #671, #612 ) ) ;
#65 = FACE_OUTER_BOUND ( 'NONE', #844, .T. ) ;
#66 = DIRECTION ( 'NONE',  ( 0.0000000000000000000, 1.000000000000000000, -0.0000000000000000000 ) ) ;
#67 = DIRECTION ( 'NONE',  ( 0.0000000000000000000, -1.000000000000000000, -0.0000000000000000000 ) ) ;
#68 = VECTOR ( 'NONE', #978, 1000.000000000000000 ) ;
#69 = AXIS2_PLACEMENT_3D ( 'NONE', #990, #1132, #302 ) ;
#70 = VERTEX_POINT ( 'NONE', #747 ) ;
#71 = VECTOR ( 'NONE', #62, 1000.000000000000227 ) ;
#72 = EDGE_CURVE ( 'NONE', #292, #625, #19, .T. ) ;
#73 = CARTESIAN_POINT ( 'NONE',  ( -0.8695544583768102243, 0.1750000000000000444, 0.8200990093111149015 ) ) ;
#74 = ORIENTED_EDGE ( 'NONE', *, *, #800, .F. ) ;
#75 = CYLINDRICAL_SURFACE ( 'NONE', #677, 0.1000000000000000056 ) ;
#76 = LINE ( 'NONE', #930, #755 ) ;
#77 = EDGE_CURVE ( 'NONE', #70, #555, #865, .T. ) ;
#78 = ORIENTED_EDGE ( 'NONE', *, *, #600, .F. ) ;
#79 = EDGE_CURVE ( 'NONE', #170, #521, #34, .T. ) ;
#80 = CARTESIAN_POINT ( 'NONE',  ( -1.237430683998515635, 0.1750000000000000167, 0.1200000001737807076 ) ) ;
#81 = ORIENTED_EDGE ( 'NONE', *, *, #585, .T. ) ;
#82 = CARTESIAN_POINT ( 'NONE',  ( -0.8996143177426213500, 0.1750000000000000167, 0.6976859052593303856 ) ) ;
#83 = FACE_OUTER_BOUND ( 'NONE', #14, .T. ) ;
#84 = FACE_OUTER_BOUND ( 'NONE', #1069, .T. ) ;
#85 = ORIENTED_EDGE ( 'NONE', *, *, #927, .F. ) ;
#86 = CARTESIAN_POINT ( 'NONE',  ( -0.8695544583778574976, -0.1749999999999999889, 0.8200990093116875546 ) ) ;
#87 = CARTESIAN_POINT ( 'NONE',  ( 0.8695544583778576087, 0.1749999999999999889, 0.8200990093447650953 ) ) ;
#88 = EDGE_CURVE ( 'NONE', #1051, #283, #209, .T. ) ;
#89 = CARTESIAN_POINT ( 'NONE',  ( -0.9686963342440200186, 0.1750000000000000167, 0.8024297463928090623 ) ) ;
#90 = EDGE_CURVE ( 'NONE', #283, #129, #946, .T. ) ;
#91 = B_SPLINE_CURVE_WITH_KNOTS ( 'NONE', 3,
 ( #1020, #1199, #1002, #252 ),
 .UNSPECIFIED., .F., .F.,
 ( 4, 4 ),
 ( 0.0000000000000000000, 1.000000000000000000 ),
 .UNSPECIFIED. ) ;
#92 = CARTESIAN_POINT ( 'NONE',  ( 0.8695544583768100022, -0.1750000000000000444, 0.8200990093441924422 ) ) ;
#93 = CARTESIAN_POINT ( 'NONE',  ( 1.237430683999999781, 0.1750000000000000167, 0.1200000000000000233 ) ) ;
#94 = VECTOR ( 'NONE', #556, 1000.000000000000114 ) ;
#95 = VECTOR ( 'NONE', #409, 1000.000000000000000 ) ;
#96 = COLOUR_RGB ( '',0.1215686274509803905, 0.1215686274509803905, 0.1215686274509803905 ) ;
#97 = FACE_OUTER_BOUND ( 'NONE', #731, .T. ) ;
#98 = EDGE_CURVE ( 'NONE', #275, #58, #654, .T. ) ;
#99 = VECTOR ( 'NONE', #226, 1000.000000000000000 ) ;
#100 = SURFACE_STYLE_FILL_AREA ( #381 ) ;
#101 = EDGE_CURVE ( 'NONE', #604, #170, #29, .T. ) ;
#102 = LINE ( 'NONE', #447, #377 ) ;
#103 = VERTEX_POINT ( 'NONE', #388 ) ;
#104 = SURFACE_STYLE_FILL_AREA ( #945 ) ;
#105 = PRESENTATION_STYLE_ASSIGNMENT (( #197 ) ) ;
#106 = EDGE_CURVE ( 'NONE', #376, #1198, #768, .T. ) ;
#107 = FILL_AREA_STYLE ('',( #1041 ) ) ;
#108 = ORIENTED_EDGE ( 'NONE', *, *, #269, .T. ) ;
#109 = CARTESIAN_POINT ( 'NONE',  ( 0.7999999999967120079, -0.5750000000295919511, 0.09999999999561599850 ) ) ;
#110 = CARTESIAN_POINT ( 'NONE',  ( 1.180841579000000197, 0.0000000000000000000, 0.0000000000000000000 ) ) ;
#111 = SURFACE_STYLE_USAGE ( .BOTH. , #301 ) ;
#112 = EDGE_LOOP ( 'NONE', ( #234, #286, #642, #163 ) ) ;
#113 = VERTEX_POINT ( 'NONE', #300 ) ;
#114 = VECTOR ( 'NONE', #751, 1000.000000000000227 ) ;
#115 = STYLED_ITEM ( 'NONE', ( #701 ), #665 ) ;
#116 =( GEOMETRIC_REPRESENTATION_CONTEXT ( 3 ) GLOBAL_UNCERTAINTY_ASSIGNED_CONTEXT ( ( #756 ) ) GLOBAL_UNIT_ASSIGNED_CONTEXT ( ( #182, #557, #828 ) ) REPRESENTATION_CONTEXT ( 'NONE', 'WORKASPACE' ) );
#117 = CARTESIAN_POINT ( 'NONE',  ( 0.0000000000000000000, -0.1750000000000000167, 0.0000000000000000000 ) ) ;
#118 =( GEOMETRIC_REPRESENTATION_CONTEXT ( 3 ) GLOBAL_UNCERTAINTY_ASSIGNED_CONTEXT ( ( #542 ) ) GLOBAL_UNIT_ASSIGNED_CONTEXT ( ( #720, #826, #175 ) ) REPRESENTATION_CONTEXT ( 'NONE', 'WORKASPACE' ) );
#119 =( NAMED_UNIT ( * ) SI_UNIT ( $, .STERADIAN. ) SOLID_ANGLE_UNIT ( ) );
#120 = EDGE_CURVE ( 'NONE', #177, #329, #184, .T. ) ;
#121 = ORIENTED_EDGE ( 'NONE', *, *, #687, .F. ) ;
#122 = CARTESIAN_POINT ( 'NONE',  ( -0.8992286350577040066, 0.0000000000000000000, 0.6953718104070496508 ) ) ;
#123 = VERTEX_POINT ( 'NONE', #935 ) ;
#124 = PRESENTATION_STYLE_ASSIGNMENT (( #966 ) ) ;
#125 = CARTESIAN_POINT ( 'NONE',  ( -0.8000000001358199553, 0.5750000000068719030, 1.102500000035673056 ) ) ;
#126 = CARTESIAN_POINT ( 'NONE',  ( 0.8691584210000001809, -0.1750000000000000167, 0.6000000000000000888 ) ) ;
#127 = CARTESIAN_POINT ( 'NONE',  ( 1.092557915279889214, -0.1750000000000000167, 0.03472972876291141597 ) ) ;
#128 = SURFACE_STYLE_FILL_AREA ( #779 ) ;
#129 = VERTEX_POINT ( 'NONE', #12 ) ;
#130 =( NAMED_UNIT ( * ) PLANE_ANGLE_UNIT ( ) SI_UNIT ( $, .RADIAN. ) );
#131 = EDGE_CURVE ( 'NONE', #170, #761, #941, .T. ) ;
#132 = CARTESIAN_POINT ( 'NONE',  ( 0.8899834988497121735, 0.1750000000000000167, 0.7400660062957549190 ) ) ;
#133 = DIRECTION ( 'NONE',  ( -0.0000000000000000000, -1.000000000000000000, -0.0000000000000000000 ) ) ;
#134 = STYLED_ITEM ( 'NONE', ( #397 ), #579 ) ;
#135 = B_SPLINE_CURVE_WITH_KNOTS ( 'NONE', 3,
 ( #493, #310, #974, #498 ),
 .UNSPECIFIED., .F., .F.,
 ( 4, 4 ),
 ( 0.0000000000000000000, 1.000000000000000000 ),
 .UNSPECIFIED. ) ;
#136 = AXIS2_PLACEMENT_3D ( 'NONE', #649, #1006, #742 ) ;
#137 = ORIENTED_EDGE ( 'NONE', *, *, #734, .T. ) ;
#138 = FILL_AREA_STYLE_COLOUR ( '', #1081 ) ;
#139 = CARTESIAN_POINT ( 'NONE',  ( 0.8996143177401632052, 0.1750000000000000167, 0.6976859052558950225 ) ) ;
#140 = CARTESIAN_POINT ( 'NONE',  ( 0.0000000000000000000, 0.5432432432876310724, -0.09054054054793857220 ) ) ;
#141 = CARTESIAN_POINT ( 'NONE',  ( -0.9669386624025001487, 0.1750000000000000167, 0.6209529088924999884 ) ) ;
#142 = VERTEX_POINT ( 'NONE', #373 ) ;
#143 = ADVANCED_FACE ( 'NONE', ( #322 ), #601, .T. ) ;
#144 = SURFACE_SIDE_STYLE ('',( #497 ) ) ;
#145 = ORIENTED_EDGE ( 'NONE', *, *, #228, .T. ) ;
#146 = LINE ( 'NONE', #393, #95 ) ;
#147 = CARTESIAN_POINT ( 'NONE',  ( 0.8000000000000000444, -0.5750000000412310852, 1.100000000006871925 ) ) ;
#148 = DIRECTION ( 'NONE',  ( -0.2095290893580920577, 0.0000000000000000000, -0.9778024139430054884 ) ) ;
#149 = B_SPLINE_CURVE_WITH_KNOTS ( 'NONE', 3,
 ( #452, #1217, #363, #740 ),
 .UNSPECIFIED., .F., .F.,
 ( 4, 4 ),
 ( 0.0000000000000000000, 1.000000000000000000 ),
 .UNSPECIFIED. ) ;
#150 = AXIS2_PLACEMENT_3D ( 'NONE', #126, #1178, #487 ) ;
#151 = VECTOR ( 'NONE', #227, 1000.000000000000000 ) ;
#152 = DIRECTION ( 'NONE',  ( 0.0000000000000000000, -0.2425356250128035684, -0.9701425001512141710 ) ) ;
#153 = VECTOR ( 'NONE', #495, 1000.000000000000000 ) ;
#154 = EDGE_LOOP ( 'NONE', ( #831, #21, #1168, #1085 ) ) ;
#155 = EDGE_CURVE ( 'NONE', #123, #563, #963, .T. ) ;
#156 = CARTESIAN_POINT ( 'NONE',  ( 1.083061337583877792, 0.1750000000000000167, 0.07904709106279525499 ) ) ;
#157 = CARTESIAN_POINT ( 'NONE',  ( -0.8695544583768102243, 0.1750000000000000444, 0.8200990093111149015 ) ) ;
#158 = LINE ( 'NONE', #513, #875 ) ;
#159 = ORIENTED_EDGE ( 'NONE', *, *, #23, .T. ) ;
#160 = DIRECTION ( 'NONE',  ( -0.9778024140847265677, 0.0000000000000000000, -0.2095290886967271504 ) ) ;
#161 = DIRECTION ( 'NONE',  ( 1.000000000000000000, 0.0000000000000000000, -0.0000000000000000000 ) ) ;
#162 = EDGE_CURVE ( 'NONE', #297, #697, #239, .T. ) ;
#163 = ORIENTED_EDGE ( 'NONE', *, *, #216, .T. ) ;
#164 = LINE ( 'NONE', #1116, #636 ) ;
#165 = SHAPE_DEFINITION_REPRESENTATION ( #242, #1046 ) ;
#166 = ADVANCED_FACE ( 'NONE', ( #225 ), #777, .F. ) ;
#167 = CARTESIAN_POINT ( 'NONE',  ( 0.9669386624000001484, 0.1750000000000000167, 0.6209529088999999891 ) ) ;
#168 = PRESENTATION_LAYER_ASSIGNMENT (  '', '', ( #770 ) ) ;
#169 = VECTOR ( 'NONE', #889, 1000.000000000000000 ) ;
#170 = VERTEX_POINT ( 'NONE', #1160 ) ;
#171 = VECTOR ( 'NONE', #355, 1000.000000000000227 ) ;
#172 = VECTOR ( 'NONE', #231, 1000.000000000000000 ) ;
#173 = CARTESIAN_POINT ( 'NONE',  ( -1.214768967793121268, -0.1750000000000000167, 0.1200000006959038301 ) ) ;
#174 = DIRECTION ( 'NONE',  ( 0.0000000000000000000, 0.0000000000000000000, 1.000000000000000000 ) ) ;
#175 =( NAMED_UNIT ( * ) SI_UNIT ( $, .STERADIAN. ) SOLID_ANGLE_UNIT ( ) );
#176 = DIRECTION ( 'NONE',  ( 1.000000000000000000, -0.0000000000000000000, 0.0000000000000000000 ) ) ;
#177 = VERTEX_POINT ( 'NONE', #783 ) ;
#178 = CARTESIAN_POINT ( 'NONE',  ( -1.083061337681495706, -0.1750000000000000167, 0.07904709108371341109 ) ) ;
#179 = SURFACE_STYLE_FILL_AREA ( #350 ) ;
#180 = CARTESIAN_POINT ( 'NONE',  ( -0.8000000001358199553, 0.5750000000068719030, 1.102500000035673056 ) ) ;
#181 = CARTESIAN_POINT ( 'NONE',  ( 0.0000000000000000000, -0.1750000000000000167, 0.1200000000000000233 ) ) ;
#182 =( LENGTH_UNIT ( ) NAMED_UNIT ( * ) SI_UNIT ( .MILLI., .METRE. ) );
#183 = FACE_OUTER_BOUND ( 'NONE', #1204, .T. ) ;
#184 = LINE ( 'NONE', #848, #94 ) ;
#185 = CARTESIAN_POINT ( 'NONE',  ( 0.0000000000000000000, -0.1750000000000000167, 0.0000000000000000000 ) ) ;
#186 = VERTEX_POINT ( 'NONE', #984 ) ;
#187 = VECTOR ( 'NONE', #1171, 1000.000000000000000 ) ;
#188 = MECHANICAL_DESIGN_GEOMETRIC_PRESENTATION_REPRESENTATION (  '', ( #454 ), #490 ) ;
#189 = VERTEX_POINT ( 'NONE', #147 ) ;
#190 = VECTOR ( 'NONE', #764, 1000.000000000000227 ) ;
#191 = DIRECTION ( 'NONE',  ( 0.0000000000000000000, 0.0000000000000000000, 1.000000000000000000 ) ) ;
#192 = DIRECTION ( 'NONE',  ( 0.0000000000000000000, 1.000000000000000000, 0.0000000000000000000 ) ) ;
#193 = CARTESIAN_POINT ( 'NONE',  ( 0.8691584210000001809, 0.05833333333333334814, 0.8200000000000000622 ) ) ;
#194 = EDGE_LOOP ( 'NONE', ( #1142, #44, #287, #1195, #571 ) ) ;
#195 = CARTESIAN_POINT ( 'NONE',  ( -1.169043606278566072, 0.0000000000000000000, 0.2505093441598505444 ) ) ;
#196 = ORIENTED_EDGE ( 'NONE', *, *, #864, .F. ) ;
#197 = SURFACE_STYLE_USAGE ( .BOTH. , #572 ) ;
#198 = LINE ( 'NONE', #122, #1102 ) ;
#199 = ADVANCED_FACE ( 'NONE', ( #222 ), #1165, .F. ) ;
#200 = ORIENTED_EDGE ( 'NONE', *, *, #762, .T. ) ;
#201 = ORIENTED_EDGE ( 'NONE', *, *, #77, .T. ) ;
#202 = CARTESIAN_POINT ( 'NONE',  ( -0.8996143177413211678, -0.1750000000000000167, 0.6976859052595673072 ) ) ;
#203 = FACE_OUTER_BOUND ( 'NONE', #544, .T. ) ;
#204 = EDGE_CURVE ( 'NONE', #186, #972, #416, .T. ) ;
#205 = ORIENTED_EDGE ( 'NONE', *, *, #155, .F. ) ;
#206 = AXIS2_PLACEMENT_3D ( 'NONE', #1037, #482, #854 ) ;
#207 = AXIS2_PLACEMENT_3D ( 'NONE', #868, #983, #679 ) ;
#208 = AXIS2_PLACEMENT_3D ( 'NONE', #342, #551, #1114 ) ;
#209 = LINE ( 'NONE', #117, #656 ) ;
#210 = MECHANICAL_DESIGN_GEOMETRIC_PRESENTATION_REPRESENTATION (  '', ( #396 ), #118 ) ;
#211 = ORIENTED_EDGE ( 'NONE', *, *, #992, .F. ) ;
#212 = CARTESIAN_POINT ( 'NONE',  ( -1.180841579000000197, -0.1750000000000000167, 0.1000000000000000056 ) ) ;
#213 = DIRECTION ( 'NONE',  ( 0.0000000000000000000, 0.0000000000000000000, 1.000000000000000000 ) ) ;
#214 = CARTESIAN_POINT ( 'NONE',  ( 0.9000000002029554524, 0.6750000000144247281, 0.7000000000913541021 ) ) ;
#215 = ORIENTED_EDGE ( 'NONE', *, *, #228, .F. ) ;
#216 = EDGE_CURVE ( 'NONE', #797, #604, #404, .T. ) ;
#217 = EDGE_CURVE ( 'NONE', #186, #891, #135, .T. ) ;
#218 = LINE ( 'NONE', #895, #598 ) ;
#219 = ORIENTED_EDGE ( 'NONE', *, *, #1190, .T. ) ;
#220 = FACE_OUTER_BOUND ( 'NONE', #619, .T. ) ;
#221 = AXIS2_PLACEMENT_3D ( 'NONE', #628, #174, #616 ) ;
#222 = FACE_OUTER_BOUND ( 'NONE', #917, .T. ) ;
#223 = UNCERTAINTY_MEASURE_WITH_UNIT (LENGTH_MEASURE( 1.000000000000000082E-05 ), #451, 'distance_accuracy_value', 'NONE');
#224 = ORIENTED_EDGE ( 'NONE', *, *, #1163, .F. ) ;
#225 = FACE_OUTER_BOUND ( 'NONE', #436, .T. ) ;
#226 = DIRECTION ( 'NONE',  ( -0.0000000000000000000, 0.0000000000000000000, -1.000000000000000000 ) ) ;
#227 = DIRECTION ( 'NONE',  ( 0.0000000000000000000, 1.000000000000000000, -0.0000000000000000000 ) ) ;
#228 = EDGE_CURVE ( 'NONE', #563, #292, #787, .T. ) ;
#229 = ORIENTED_EDGE ( 'NONE', *, *, #1112, .F. ) ;
#230 = DIRECTION ( 'NONE',  ( 1.000000000000000000, 0.0000000000000000000, 0.0000000000000000000 ) ) ;
#231 = DIRECTION ( 'NONE',  ( 1.000000000000000000, 0.0000000000000000000, -0.0000000000000000000 ) ) ;
#232 =( NAMED_UNIT ( * ) SI_UNIT ( $, .STERADIAN. ) SOLID_ANGLE_UNIT ( ) );
#233 = EDGE_CURVE ( 'NONE', #702, #189, #316, .T. ) ;
#234 = ORIENTED_EDGE ( 'NONE', *, *, #1207, .F. ) ;
#235 = EDGE_CURVE ( 'NONE', #718, #177, #351, .T. ) ;
#236 = CARTESIAN_POINT ( 'NONE',  ( 1.180841579000000197, 0.1750000000000000167, -3.905194581339116455E-13 ) ) ;
#237 = DIRECTION ( 'NONE',  ( 0.0000000000000000000, 0.1643989873053573469, 0.9863939238321436376 ) ) ;
#238 = VECTOR ( 'NONE', #304, 1000.000000000000000 ) ;
#239 = B_SPLINE_CURVE_WITH_KNOTS ( 'NONE', 3,
 ( #139, #132, #1183, #1087 ),
 .UNSPECIFIED., .F., .F.,
 ( 4, 4 ),
 ( 0.0000000000000000000, 1.000000000000000000 ),
 .UNSPECIFIED. ) ;
#240 = AXIS2_PLACEMENT_3D ( 'NONE', #1021, #897, #1011 ) ;
#241 = ORIENTED_EDGE ( 'NONE', *, *, #120, .T. ) ;
#242 = PRODUCT_DEFINITION_SHAPE ( 'NONE', 'NONE',  #608 ) ;
#243 =( LENGTH_UNIT ( ) NAMED_UNIT ( * ) SI_UNIT ( .MILLI., .METRE. ) );
#244 = DIRECTION ( 'NONE',  ( -0.1643989873053573469, 0.0000000000000000000, 0.9863939238321436376 ) ) ;
#245 = ORIENTED_EDGE ( 'NONE', *, *, #269, .F. ) ;
#246 = DIRECTION ( 'NONE',  ( 0.9863939238321437486, 0.0000000000000000000, -0.1643989873053573747 ) ) ;
#247 = CARTESIAN_POINT ( 'NONE',  ( -1.193288852795429511, -0.1750000000000000167, 0.1373648647963891800 ) ) ;
#248 = ADVANCED_FACE ( 'NONE', ( #522 ), #1196, .T. ) ;
#249 = FILL_AREA_STYLE_COLOUR ( '', #810 ) ;
#250 = APPLICATION_PROTOCOL_DEFINITION ( 'draft international standard', 'automotive_design', 1998, #553 ) ;
#251 = ORIENTED_EDGE ( 'NONE', *, *, #98, .T. ) ;
#252 = CARTESIAN_POINT ( 'NONE',  ( -0.3000000000000000444, -0.5750000000137438505, 1.102500000003435954 ) ) ;
#253 = CARTESIAN_POINT ( 'NONE',  ( -0.8000000004074599991, -0.1916666666666667074, 1.100000000101865050 ) ) ;
#254 = CARTESIAN_POINT ( 'NONE',  ( 1.180841579000000197, -0.1750000000000000167, 0.0000000000000000000 ) ) ;
#255 = PLANE ( 'NONE',  #475 ) ;
#256 = FACE_OUTER_BOUND ( 'NONE', #943, .T. ) ;
#257 = CARTESIAN_POINT ( 'NONE',  ( -0.4666666666666666741, 0.5750000000000000666, 1.104999999999999982 ) ) ;
#258 = VECTOR ( 'NONE', #763, 1000.000000000000000 ) ;
#259 = MECHANICAL_DESIGN_GEOMETRIC_PRESENTATION_REPRESENTATION (  '', ( #115 ), #989 ) ;
#260 = ORIENTED_EDGE ( 'NONE', *, *, #481, .F. ) ;
#261 = VECTOR ( 'NONE', #727, 1000.000000000000000 ) ;
#262 = VECTOR ( 'NONE', #60, 1000.000000000000000 ) ;
#263 = FACE_OUTER_BOUND ( 'NONE', #22, .T. ) ;
#264 = CARTESIAN_POINT ( 'NONE',  ( -0.8000000000679099443, -0.5750000000137436285, 1.102500000020413262 ) ) ;
#265 = ORIENTED_EDGE ( 'NONE', *, *, #1099, .F. ) ;
#266 =( NAMED_UNIT ( * ) SI_UNIT ( $, .STERADIAN. ) SOLID_ANGLE_UNIT ( ) );
#267 = LINE ( 'NONE', #1024, #857 ) ;
#268 = DIRECTION ( 'NONE',  ( -0.0000000000000000000, -1.000000000000000000, -0.0000000000000000000 ) ) ;
#269 = EDGE_CURVE ( 'NONE', #58, #129, #31, .T. ) ;
#270 = ORIENTED_EDGE ( 'NONE', *, *, #1063, .F. ) ;
#271 = ADVANCED_FACE ( 'NONE', ( #644 ), #515, .F. ) ;
#272 = ORIENTED_EDGE ( 'NONE', *, *, #204, .T. ) ;
#273 = CARTESIAN_POINT ( 'NONE',  ( 0.0000000000000000000, 0.0000000000000000000, 1.100000000000000089 ) ) ;
#274 = EDGE_CURVE ( 'NONE', #1022, #186, #428, .T. ) ;
#275 = VERTEX_POINT ( 'NONE', #621 ) ;
#276 = CARTESIAN_POINT ( 'NONE',  ( -1.073014505067017010, -0.1750000000000000444, 0.6968642075824658111 ) ) ;
#277 = ORIENTED_EDGE ( 'NONE', *, *, #900, .T. ) ;
#278 = DIRECTION ( 'NONE',  ( 0.2357022603726492971, 0.2357022603955160611, -0.9428090415877798947 ) ) ;
#279 = LINE ( 'NONE', #937, #394 ) ;
#280 = ORIENTED_EDGE ( 'NONE', *, *, #706, .T. ) ;
#281 = VECTOR ( 'NONE', #1023, 1000.000000000000000 ) ;
#282 = MECHANICAL_DESIGN_GEOMETRIC_PRESENTATION_REPRESENTATION (  '', ( #134 ), #1101 ) ;
#283 = VERTEX_POINT ( 'NONE', #254 ) ;
#284 = EDGE_CURVE ( 'NONE', #555, #297, #59, .T. ) ;
#285 = CARTESIAN_POINT ( 'NONE',  ( 1.300000000000000266, 0.0000000000000000000, 0.1200000000000000233 ) ) ;
#286 = ORIENTED_EDGE ( 'NONE', *, *, #686, .F. ) ;
#287 = ORIENTED_EDGE ( 'NONE', *, *, #772, .F. ) ;
#288 = LINE ( 'NONE', #293, #833 ) ;
#289 = CARTESIAN_POINT ( 'NONE',  ( -0.9327446484750459010, -0.1750000000000000167, 0.6848043933463777710 ) ) ;
#290 = CARTESIAN_POINT ( 'NONE',  ( 0.0000000000000000000, 0.1750000000000000167, 0.1200000000000000233 ) ) ;
#291 = ORIENTED_EDGE ( 'NONE', *, *, #235, .F. ) ;
#292 = VERTEX_POINT ( 'NONE', #1003 ) ;
#293 = CARTESIAN_POINT ( 'NONE',  ( -0.0000000000000000000, 0.6750000000315298232, 0.7000000000078824280 ) ) ;
#294 =( NAMED_UNIT ( * ) SI_UNIT ( $, .STERADIAN. ) SOLID_ANGLE_UNIT ( ) );
#295 =( NAMED_UNIT ( * ) PLANE_ANGLE_UNIT ( ) SI_UNIT ( $, .RADIAN. ) );
#296 = UNCERTAINTY_MEASURE_WITH_UNIT (LENGTH_MEASURE( 1.000000000000000082E-05 ), #1137, 'distance_accuracy_value', 'NONE');
#297 = VERTEX_POINT ( 'NONE', #540 ) ;
#298 = CLOSED_SHELL ( 'NONE', ( #248, #665, #892, #579, #1060, #724, #56, #6, #509, #816, #887, #473, #765, #143, #1150, #440, #1125, #271, #1086, #449, #501, #166, #565, #403, #568, #870, #1093, #932, #795, #637, #988, #309, #199 ) ) ;
#299 = FILL_AREA_STYLE_COLOUR ( '', #711 ) ;
#300 = CARTESIAN_POINT ( 'NONE',  ( -1.084274952025500172, -0.1750000000000000167, 0.6460963995035000629 ) ) ;
#301 = SURFACE_SIDE_STYLE ('',( #488 ) ) ;
#302 = DIRECTION ( 'NONE',  ( 0.0000000000000000000, -0.0000000000000000000, 1.000000000000000000 ) ) ;
#303 = ORIENTED_EDGE ( 'NONE', *, *, #706, .F. ) ;
#304 = DIRECTION ( 'NONE',  ( -0.0000000000000000000, -1.000000000000000000, -0.0000000000000000000 ) ) ;
#305 = CARTESIAN_POINT ( 'NONE',  ( 1.180841579000000197, -0.1750000000000000167, 0.0000000000000000000 ) ) ;
#306 = PLANE ( 'NONE',  #1057 ) ;
#307 = PRODUCT_RELATED_PRODUCT_CATEGORY ( 'part', '', ( #434 ) ) ;
#308 = EDGE_LOOP ( 'NONE', ( #918, #303, #196, #519, #224, #829, #1151, #950, #472, #1115 ) ) ;
#309 = ADVANCED_FACE ( 'NONE', ( #531 ), #914, .F. ) ;
#310 = CARTESIAN_POINT ( 'NONE',  ( -1.193288852795429511, 0.1750000000000000167, 0.1373648647963891800 ) ) ;
#311 = LINE ( 'NONE', #884, #599 ) ;
#312 = FILL_AREA_STYLE_COLOUR ( '', #659 ) ;
#313 = ORIENTED_EDGE ( 'NONE', *, *, #328, .F. ) ;
#314 =( GEOMETRIC_REPRESENTATION_CONTEXT ( 3 ) GLOBAL_UNCERTAINTY_ASSIGNED_CONTEXT ( ( #766 ) ) GLOBAL_UNIT_ASSIGNED_CONTEXT ( ( #1005, #333, #1025 ) ) REPRESENTATION_CONTEXT ( 'NONE', 'WORKASPACE' ) );
#315 = COLOUR_RGB ( '',0.1215686274509803905, 0.1215686274509803905, 0.1215686274509803905 ) ;
#316 = LINE ( 'NONE', #606, #68 ) ;
#317 = AXIS2_PLACEMENT_3D ( 'NONE', #808, #1167, #152 ) ;
#318 = PRESENTATION_LAYER_ASSIGNMENT (  '', '', ( #694 ) ) ;
#319 = CARTESIAN_POINT ( 'NONE',  ( 1.188540563483521995, -0.1750000000000000167, 0.1595235455183439399 ) ) ;
#320 = ORIENTED_EDGE ( 'NONE', *, *, #882, .T. ) ;
#321 = EDGE_CURVE ( 'NONE', #881, #489, #18, .T. ) ;
#322 = FACE_OUTER_BOUND ( 'NONE', #368, .T. ) ;
#323 = FACE_OUTER_BOUND ( 'NONE', #194, .T. ) ;
#324 = ORIENTED_EDGE ( 'NONE', *, *, #354, .F. ) ;
#325 = FACE_OUTER_BOUND ( 'NONE', #154, .T. ) ;
#326 = DIRECTION ( 'NONE',  ( 0.0000000000000000000, -0.0000000000000000000, 1.000000000000000000 ) ) ;
#327 = DIRECTION ( 'NONE',  ( 0.0000000000000000000, 0.0000000000000000000, -1.000000000000000000 ) ) ;
#328 = EDGE_CURVE ( 'NONE', #142, #446, #443, .T. ) ;
#329 = VERTEX_POINT ( 'NONE', #180 ) ;
#330 = CARTESIAN_POINT ( 'NONE',  ( -1.300000000000000266, -0.0000000000000000000, 0.1200000000000000233 ) ) ;
#331 = LINE ( 'NONE', #417, #99 ) ;
#332 = PRESENTATION_LAYER_ASSIGNMENT (  '', '', ( #1139 ) ) ;
#333 =( NAMED_UNIT ( * ) PLANE_ANGLE_UNIT ( ) SI_UNIT ( $, .RADIAN. ) );
#334 = COLOUR_RGB ( '',0.6196078431372549211, 0.6196078431372549211, 0.6196078431372549211 ) ;
#335 = CARTESIAN_POINT ( 'NONE',  ( -0.3000000000000000444, -0.5750000000137438505, 1.102500000003435954 ) ) ;
#336 = EDGE_CURVE ( 'NONE', #881, #1022, #1049, .T. ) ;
#337 = ORIENTED_EDGE ( 'NONE', *, *, #780, .T. ) ;
#338 = EDGE_CURVE ( 'NONE', #749, #123, #1110, .T. ) ;
#339 = CARTESIAN_POINT ( 'NONE',  ( 1.135518145908400278, 0.1750000000000000167, -5.550519726199730450E-18 ) ) ;
#340 = SURFACE_SIDE_STYLE ('',( #104 ) ) ;
#341 = ORIENTED_EDGE ( 'NONE', *, *, #88, .F. ) ;
#342 = CARTESIAN_POINT ( 'NONE',  ( 0.0000000000000000000, -0.5432432432876310724, -0.09054054054793857220 ) ) ;
#343 = ORIENTED_EDGE ( 'NONE', *, *, #28, .T. ) ;
#344 = CARTESIAN_POINT ( 'NONE',  ( -0.8000000004074599991, 0.1916666666666667074, 1.100000000101865050 ) ) ;
#345 = VERTEX_POINT ( 'NONE', #109 ) ;
#346 = CARTESIAN_POINT ( 'NONE',  ( -0.3000000000000000444, 0.5750000000068719030, 1.102500000001717773 ) ) ;
#347 = DIRECTION ( 'NONE',  ( 0.2095290893580920577, 0.0000000000000000000, -0.9778024139430054884 ) ) ;
#348 = ORIENTED_EDGE ( 'NONE', *, *, #1207, .T. ) ;
#349 = DIRECTION ( 'NONE',  ( 0.0000000000000000000, 0.0000000000000000000, -1.000000000000000000 ) ) ;
#350 = FILL_AREA_STYLE ('',( #1206 ) ) ;
#351 = LINE ( 'NONE', #1187, #872 ) ;
#352 = CARTESIAN_POINT ( 'NONE',  ( 0.9669386623905509293, 0.1750000000000000167, 0.6209529088919512052 ) ) ;
#353 = CARTESIAN_POINT ( 'NONE',  ( -0.9669386624000001484, 0.0000000000000000000, 0.6209529088999999891 ) ) ;
#354 = EDGE_CURVE ( 'NONE', #177, #555, #288, .T. ) ;
#355 = DIRECTION ( 'NONE',  ( 0.2357022603955158113, 0.2357022603726492971, 0.9428090415877798947 ) ) ;
#356 = VECTOR ( 'NONE', #384, 1000.000000000000000 ) ;
#357 = AXIS2_PLACEMENT_3D ( 'NONE', #1205, #349, #1121 ) ;
#358 = ORIENTED_EDGE ( 'NONE', *, *, #744, .F. ) ;
#359 = MECHANICAL_DESIGN_GEOMETRIC_PRESENTATION_REPRESENTATION (  '', ( #893 ), #116 ) ;
#360 = VECTOR ( 'NONE', #915, 1000.000000000000227 ) ;
#361 =( LENGTH_UNIT ( ) NAMED_UNIT ( * ) SI_UNIT ( .MILLI., .METRE. ) );
#362 = CARTESIAN_POINT ( 'NONE',  ( -0.8000000000000000444, -0.5750000000443878934, 0.09999999999260206218 ) ) ;
#363 = CARTESIAN_POINT ( 'NONE',  ( 0.9595752918854051350, 0.1750000000000000167, 0.6553153044776600655 ) ) ;
#364 =( NAMED_UNIT ( * ) SI_UNIT ( $, .STERADIAN. ) SOLID_ANGLE_UNIT ( ) );
#365 = EDGE_LOOP ( 'NONE', ( #280, #691, #425, #272 ) ) ;
#366 = CYLINDRICAL_SURFACE ( 'NONE', #580, 0.04999999930409610577 ) ;
#367 = DIRECTION ( 'NONE',  ( -0.2095290893580920577, 0.0000000000000000000, 0.9778024139430054884 ) ) ;
#368 = EDGE_LOOP ( 'NONE', ( #343, #215, #590, #538 ) ) ;
#369 = PLANE ( 'NONE',  #35 ) ;
#370 = EDGE_CURVE ( 'NONE', #103, #718, #853, .T. ) ;
#371 = ORIENTED_EDGE ( 'NONE', *, *, #900, .F. ) ;
#372 = CARTESIAN_POINT ( 'NONE',  ( 0.9327446484603557630, -0.1750000000000000167, 0.6848043933267856653 ) ) ;
#373 = CARTESIAN_POINT ( 'NONE',  ( -1.300000000000000266, 0.1750000000000000167, 0.1200000000000000233 ) ) ;
#374 = DIRECTION ( 'NONE',  ( 0.0000000000000000000, 0.0000000000000000000, 1.000000000000000000 ) ) ;
#375 = VECTOR ( 'NONE', #898, 1000.000000000000227 ) ;
#376 = VERTEX_POINT ( 'NONE', #577 ) ;
#377 = VECTOR ( 'NONE', #845, 1000.000000000000000 ) ;
#378 = EDGE_CURVE ( 'NONE', #376, #576, #1028, .T. ) ;
#379 = COLOUR_RGB ( '',0.1215686274509803905, 0.1215686274509803905, 0.1215686274509803905 ) ;
#380 = ORIENTED_EDGE ( 'NONE', *, *, #106, .T. ) ;
#381 = FILL_AREA_STYLE ('',( #842 ) ) ;
#382 = LINE ( 'NONE', #1048, #958 ) ;
#383 = ORIENTED_EDGE ( 'NONE', *, *, #1063, .T. ) ;
#384 = DIRECTION ( 'NONE',  ( 0.0000000000000000000, 1.000000000000000000, -0.0000000000000000000 ) ) ;
#385 = LINE ( 'NONE', #855, #1214 ) ;
#386 = ORIENTED_EDGE ( 'NONE', *, *, #338, .T. ) ;
#387 = CARTESIAN_POINT ( 'NONE',  ( -1.083061337681495706, -0.1750000000000000167, 0.07904709108371341109 ) ) ;
#388 = CARTESIAN_POINT ( 'NONE',  ( 0.7999999999934240824, 0.5750000000000000666, 0.1000000000010959900 ) ) ;
#389 = DIRECTION ( 'NONE',  ( 1.000000000000000000, 0.0000000000000000000, -0.0000000000000000000 ) ) ;
#390 = CARTESIAN_POINT ( 'NONE',  ( 1.084274952074015141, 0.1750000000000000167, 0.6460963995138961913 ) ) ;
#391 = ORIENTED_EDGE ( 'NONE', *, *, #882, .F. ) ;
#392 = COLOUR_RGB ( '',0.1215686274509803905, 0.1215686274509803905, 0.1215686274509803905 ) ;
#393 = CARTESIAN_POINT ( 'NONE',  ( 1.300000000000000266, -0.1750000000000000167, -0.0000000000000000000 ) ) ;
#394 = VECTOR ( 'NONE', #849, 1000.000000000000000 ) ;
#395 = CARTESIAN_POINT ( 'NONE',  ( 1.188540564000000410, 0.1750000000000000167, 0.1595235456000000107 ) ) ;
#396 = STYLED_ITEM ( 'NONE', ( #1013 ), #1046 ) ;
#397 = PRESENTATION_STYLE_ASSIGNMENT (( #2 ) ) ;
#398 = VERTEX_POINT ( 'NONE', #934 ) ;
#399 = CARTESIAN_POINT ( 'NONE',  ( -1.300000000000000266, 0.0000000000000000000, 0.0000000000000000000 ) ) ;
#400 = DIRECTION ( 'NONE',  ( 0.9701425001512142821, 0.0000000000000000000, 0.2425356250128035962 ) ) ;
#401 = CARTESIAN_POINT ( 'NONE',  ( -0.9000000000994397009, -0.6750000000347442519, 0.7000000000269518408 ) ) ;
#402 = ORIENTED_EDGE ( 'NONE', *, *, #131, .F. ) ;
#403 = ADVANCED_FACE ( 'NONE', ( #97 ), #366, .F. ) ;
#404 = LINE ( 'NONE', #1066, #708 ) ;
#405 = CARTESIAN_POINT ( 'NONE',  ( -0.9669386624000001484, -0.1750000000000000167, 0.6209529088999999891 ) ) ;
#406 = LINE ( 'NONE', #789, #153 ) ;
#407 = ORIENTED_EDGE ( 'NONE', *, *, #1076, .T. ) ;
#408 = EDGE_CURVE ( 'NONE', #623, #1051, #146, .T. ) ;
#409 = DIRECTION ( 'NONE',  ( -0.0000000000000000000, 0.0000000000000000000, -1.000000000000000000 ) ) ;
#410 = MECHANICAL_DESIGN_GEOMETRIC_PRESENTATION_REPRESENTATION (  '', ( #770 ), #558 ) ;
#411 = AXIS2_PLACEMENT_3D ( 'NONE', #998, #66, #634 ) ;
#412 = VECTOR ( 'NONE', #799, 1000.000000000000000 ) ;
#413 = CARTESIAN_POINT ( 'NONE',  ( -0.9595752919062938702, 0.1750000000000000167, 0.6553153044904392877 ) ) ;
#414 = VERTEX_POINT ( 'NONE', #387 ) ;
#415 = CARTESIAN_POINT ( 'NONE',  ( -1.180841579000000197, -0.1750000000000000167, 1.992777924825824692E-10 ) ) ;
#416 = LINE ( 'NONE', #878, #238 ) ;
#417 = CARTESIAN_POINT ( 'NONE',  ( -1.300000000000000266, 0.1750000000000000167, 0.0000000000000000000 ) ) ;
#418 = EDGE_CURVE ( 'NONE', #113, #1022, #39, .T. ) ;
#419 = DIRECTION ( 'NONE',  ( 0.0000000000000000000, 1.000000000000000000, 0.0000000000000000000 ) ) ;
#420 = ORIENTED_EDGE ( 'NONE', *, *, #72, .T. ) ;
#421 =( NAMED_UNIT ( * ) PLANE_ANGLE_UNIT ( ) SI_UNIT ( $, .RADIAN. ) );
#422 = CARTESIAN_POINT ( 'NONE',  ( -1.180841579000000197, 0.1750000000000000167, 1.996683119407163809E-10 ) ) ;
#423 = EDGE_CURVE ( 'NONE', #1008, #982, #27, .T. ) ;
#424 = FILL_AREA_STYLE_COLOUR ( '', #315 ) ;
#425 = ORIENTED_EDGE ( 'NONE', *, *, #274, .T. ) ;
#426 = CARTESIAN_POINT ( 'NONE',  ( 0.8691584210000001809, -0.1750000000000000167, 0.6000000000000000888 ) ) ;
#427 = ORIENTED_EDGE ( 'NONE', *, *, #88, .T. ) ;
#428 = LINE ( 'NONE', #806, #375 ) ;
#429 = PLANE ( 'NONE',  #641 ) ;
#430 = CARTESIAN_POINT ( 'NONE',  ( 0.9190141974309791184, -0.1750000000000000167, 0.8200000000000000622 ) ) ;
#431 = VECTOR ( 'NONE', #827, 1000.000000000000000 ) ;
#432 = ORIENTED_EDGE ( 'NONE', *, *, #470, .F. ) ;
#433 = FACE_OUTER_BOUND ( 'NONE', #308, .T. ) ;
#434 = PRODUCT ( 'BBBE31E5-EA78-47BF-A5F9-230F80F2E3D7', 'BBBE31E5-EA78-47BF-A5F9-230F80F2E3D7', '', ( #548 ) ) ;
#435 = CARTESIAN_POINT ( 'NONE',  ( 0.9000000003977585150, 0.0000000000000000000, 0.7000000000994398563 ) ) ;
#436 = EDGE_LOOP ( 'NONE', ( #631, #313, #586, #681 ) ) ;
#437 = CARTESIAN_POINT ( 'NONE',  ( 0.8695544583778576087, 0.1749999999999999889, 0.8200990093447650953 ) ) ;
#438 = LINE ( 'NONE', #1107, #171 ) ;
#439 = ORIENTED_EDGE ( 'NONE', *, *, #1148, .F. ) ;
#440 = ADVANCED_FACE ( 'NONE', ( #220 ), #1164, .F. ) ;
#441 = FACE_OUTER_BOUND ( 'NONE', #839, .T. ) ;
#442 = EDGE_LOOP ( 'NONE', ( #241, #74, #137, #201, #324 ) ) ;
#443 = LINE ( 'NONE', #330, #281 ) ;
#444 = LINE ( 'NONE', #1201, #971 ) ;
#445 = PLANE ( 'NONE',  #773 ) ;
#446 = VERTEX_POINT ( 'NONE', #1170 ) ;
#447 = CARTESIAN_POINT ( 'NONE',  ( -0.7999999999901362679, 0.0000000000000000000, 0.1000000000016439683 ) ) ;
#448 = ORIENTED_EDGE ( 'NONE', *, *, #79, .T. ) ;
#449 = ADVANCED_FACE ( 'NONE', ( #883 ), #877, .T. ) ;
#450 = CARTESIAN_POINT ( 'NONE',  ( -1.046238627447774183, 0.1749999999999999889, 0.7397433321559371278 ) ) ;
#451 =( LENGTH_UNIT ( ) NAMED_UNIT ( * ) SI_UNIT ( .MILLI., .METRE. ) );
#452 = CARTESIAN_POINT ( 'NONE',  ( 0.8996143177401632052, 0.1750000000000000167, 0.6976859052558950225 ) ) ;
#453 = AXIS2_PLACEMENT_3D ( 'NONE', #399, #230, #1078 ) ;
#454 = STYLED_ITEM ( 'NONE', ( #124 ), #440 ) ;
#455 = VERTEX_POINT ( 'NONE', #782 ) ;
#456 = VECTOR ( 'NONE', #5, 1000.000000000000000 ) ;
#457 = UNCERTAINTY_MEASURE_WITH_UNIT (LENGTH_MEASURE( 1.000000000000000082E-05 ), #243, 'distance_accuracy_value', 'NONE');
#458 =( NAMED_UNIT ( * ) PLANE_ANGLE_UNIT ( ) SI_UNIT ( $, .RADIAN. ) );
#459 = PRESENTATION_STYLE_ASSIGNMENT (( #9 ) ) ;
#460 = ORIENTED_EDGE ( 'NONE', *, *, #1190, .F. ) ;
#461 = LINE ( 'NONE', #578, #933 ) ;
#462 = CARTESIAN_POINT ( 'NONE',  ( 1.180841579000000197, -0.1750000000000000167, 0.1000000000000000056 ) ) ;
#463 = CARTESIAN_POINT ( 'NONE',  ( -0.8695544583778574976, -0.1749999999999999889, 0.8200990093116875546 ) ) ;
#464 = ORIENTED_EDGE ( 'NONE', *, *, #28, .F. ) ;
#465 = CARTESIAN_POINT ( 'NONE',  ( -1.047412014671641689, -0.1750000000000000167, 0.7385275875277405033 ) ) ;
#466 = ORIENTED_EDGE ( 'NONE', *, *, #1169, .T. ) ;
#467 = DIRECTION ( 'NONE',  ( 1.000000000000000000, 0.0000000000000000000, 0.0000000000000000000 ) ) ;
#468 = DIRECTION ( 'NONE',  ( 0.0000000000000000000, 1.000000000000000000, 0.0000000000000000000 ) ) ;
#469 = LINE ( 'NONE', #185, #431 ) ;
#470 = EDGE_CURVE ( 'NONE', #891, #142, #1065, .T. ) ;
#471 = UNCERTAINTY_MEASURE_WITH_UNIT (LENGTH_MEASURE( 1.000000000000000082E-05 ), #885, 'distance_accuracy_value', 'NONE');
#472 = ORIENTED_EDGE ( 'NONE', *, *, #79, .F. ) ;
#473 = ADVANCED_FACE ( 'NONE', ( #33 ), #698, .T. ) ;
#474 = CARTESIAN_POINT ( 'NONE',  ( -0.9000000003977585150, 0.0000000000000000000, 0.7000000000994398563 ) ) ;
#475 = AXIS2_PLACEMENT_3D ( 'NONE', #716, #1209, #244 ) ;
#476 = PRESENTATION_LAYER_ASSIGNMENT (  '', '', ( #1036 ) ) ;
#477 = AXIS2_PLACEMENT_3D ( 'NONE', #545, #539, #1200 ) ;
#478 = ORIENTED_EDGE ( 'NONE', *, *, #217, .F. ) ;
#479 = PLANE ( 'NONE',  #1083 ) ;
#480 = ORIENTED_EDGE ( 'NONE', *, *, #106, .F. ) ;
#481 = EDGE_CURVE ( 'NONE', #949, #702, #91, .T. ) ;
#482 = DIRECTION ( 'NONE',  ( 0.0000000000000000000, -0.9701425001512142821, -0.2425356250128035962 ) ) ;
#483 = LINE ( 'NONE', #1144, #913 ) ;
#484 = EDGE_LOOP ( 'NONE', ( #1197, #85, #3, #1055 ) ) ;
#485 = EDGE_CURVE ( 'NONE', #823, #455, #164, .T. ) ;
#486 = CARTESIAN_POINT ( 'NONE',  ( 0.8695544583768100022, -0.1750000000000000444, 0.8200990093441924422 ) ) ;
#487 = DIRECTION ( 'NONE',  ( 0.0000000000000000000, 0.0000000000000000000, 1.000000000000000000 ) ) ;
#488 = SURFACE_STYLE_FILL_AREA ( #664 ) ;
#489 = VERTEX_POINT ( 'NONE', #1010 ) ;
#490 =( GEOMETRIC_REPRESENTATION_CONTEXT ( 3 ) GLOBAL_UNCERTAINTY_ASSIGNED_CONTEXT ( ( #561 ) ) GLOBAL_UNIT_ASSIGNED_CONTEXT ( ( #1152, #130, #591 ) ) REPRESENTATION_CONTEXT ( 'NONE', 'WORKASPACE' ) );
#491 = DIRECTION ( 'NONE',  ( -1.000000000000000000, -0.0000000000000000000, 0.0000000000000000000 ) ) ;
#492 = AXIS2_PLACEMENT_3D ( 'NONE', #20, #400, #968 ) ;
#493 = CARTESIAN_POINT ( 'NONE',  ( -1.188540563823750285, 0.1750000000000000167, 0.1595235455912500100 ) ) ;
#494 = LINE ( 'NONE', #1067, #190 ) ;
#495 = DIRECTION ( 'NONE',  ( -1.000000000000000000, -0.0000000000000000000, 0.0000000000000000000 ) ) ;
#496 = ORIENTED_EDGE ( 'NONE', *, *, #63, .T. ) ;
#497 = SURFACE_STYLE_FILL_AREA ( #794 ) ;
#498 = CARTESIAN_POINT ( 'NONE',  ( -1.237430683998515635, 0.1750000000000000167, 0.1200000001737807076 ) ) ;
#499 = DIRECTION ( 'NONE',  ( 0.0000000000000000000, 1.000000000000000000, 0.0000000000000000000 ) ) ;
#500 = CARTESIAN_POINT ( 'NONE',  ( 1.237430683999999781, 0.0000000000000000000, 0.1200000000000000233 ) ) ;
#501 = ADVANCED_FACE ( 'NONE', ( #325 ), #824, .T. ) ;
#502 = ORIENTED_EDGE ( 'NONE', *, *, #992, .T. ) ;
#503 = EDGE_CURVE ( 'NONE', #414, #876, #533, .T. ) ;
#504 = FACE_OUTER_BOUND ( 'NONE', #1094, .T. ) ;
#505 = FACE_OUTER_BOUND ( 'NONE', #999, .T. ) ;
#506 = ORIENTED_EDGE ( 'NONE', *, *, #98, .F. ) ;
#507 = CARTESIAN_POINT ( 'NONE',  ( -1.083061337135983404, 0.0000000000000000000, 0.07904709094485362630 ) ) ;
#508 = STYLED_ITEM ( 'NONE', ( #838 ), #575 ) ;
#509 = ADVANCED_FACE ( 'NONE', ( #263 ), #798, .T. ) ;
#510 = DIRECTION ( 'NONE',  ( -0.9778024140847265677, 0.0000000000000000000, -0.2095290886967271504 ) ) ;
#511 = AXIS2_PLACEMENT_3D ( 'NONE', #273, #1039, #648 ) ;
#512 = VECTOR ( 'NONE', #67, 1000.000000000000000 ) ;
#513 = CARTESIAN_POINT ( 'NONE',  ( 0.0000000000000000000, 0.1750000000000000167, 0.0000000000000000000 ) ) ;
#514 = ORIENTED_EDGE ( 'NONE', *, *, #954, .F. ) ;
#515 = CYLINDRICAL_SURFACE ( 'NONE', #1080, 0.09999999999806995221 ) ;
#516 = FILL_AREA_STYLE_COLOUR ( '', #1157 ) ;
#517 = CARTESIAN_POINT ( 'NONE',  ( 1.188540563483521995, -0.1750000000000000167, 0.1595235455183439399 ) ) ;
#518 = LINE ( 'NONE', #902, #71 ) ;
#519 = ORIENTED_EDGE ( 'NONE', *, *, #1050, .F. ) ;
#520 = CARTESIAN_POINT ( 'NONE',  ( 1.047412014671643243, 0.1749999999999999889, 0.7385275875277341751 ) ) ;
#521 = VERTEX_POINT ( 'NONE', #745 ) ;
#522 = FACE_OUTER_BOUND ( 'NONE', #785, .T. ) ;
#523 = CARTESIAN_POINT ( 'NONE',  ( 0.0000000000000000000, 0.1750000000000000167, 0.0000000000000000000 ) ) ;
#524 = LINE ( 'NONE', #353, #690 ) ;
#525 = CARTESIAN_POINT ( 'NONE',  ( 0.9000000001503323244, -0.6750000000359170915, 0.7000000000339885453 ) ) ;
#526 = EDGE_CURVE ( 'NONE', #761, #113, #905, .T. ) ;
#527 = ORIENTED_EDGE ( 'NONE', *, *, #378, .F. ) ;
#528 = UNCERTAINTY_MEASURE_WITH_UNIT (LENGTH_MEASURE( 1.000000000000000082E-05 ), #584, 'distance_accuracy_value', 'NONE');
#529 = CARTESIAN_POINT ( 'NONE',  ( 0.7621621621522984835, 0.0000000000000000000, -0.1270270270253831546 ) ) ;
#530 = B_SPLINE_CURVE_WITH_KNOTS ( 'NONE', 3,
 ( #437, #193, #821, #567 ),
 .UNSPECIFIED., .F., .F.,
 ( 4, 4 ),
 ( 0.0000000000000000000, 1.000000000000000000 ),
 .UNSPECIFIED. ) ;
#531 = FACE_OUTER_BOUND ( 'NONE', #926, .T. ) ;
#532 = AXIS2_PLACEMENT_3D ( 'NONE', #554, #603, #42 ) ;
#533 = B_SPLINE_CURVE_WITH_KNOTS ( 'NONE', 3,
 ( #178, #894, #53, #415 ),
 .UNSPECIFIED., .F., .F.,
 ( 4, 4 ),
 ( 0.0000000000000000000, 1.000000000000000000 ),
 .UNSPECIFIED. ) ;
#534 = SURFACE_STYLE_FILL_AREA ( #1113 ) ;
#535 = AXIS2_PLACEMENT_3D ( 'NONE', #700, #160, #985 ) ;
#536 = FACE_OUTER_BOUND ( 'NONE', #707, .T. ) ;
#537 = CARTESIAN_POINT ( 'NONE',  ( 0.8996143177414637204, -0.1750000000000000167, 0.6976859052556582119 ) ) ;
#538 = ORIENTED_EDGE ( 'NONE', *, *, #948, .T. ) ;
#539 = DIRECTION ( 'NONE',  ( -0.0000000000000000000, 1.000000000000000000, 0.0000000000000000000 ) ) ;
#540 = CARTESIAN_POINT ( 'NONE',  ( 0.8996143177401632052, 0.1750000000000000167, 0.6976859052558950225 ) ) ;
#541 = CARTESIAN_POINT ( 'NONE',  ( 0.8799669973016659430, -0.1750000000000000167, 0.7801320124920698706 ) ) ;
#542 = UNCERTAINTY_MEASURE_WITH_UNIT (LENGTH_MEASURE( 1.000000000000000082E-05 ), #720, 'distance_accuracy_value', 'NONE');
#543 = EDGE_CURVE ( 'NONE', #52, #718, #102, .T. ) ;
#544 = EDGE_LOOP ( 'NONE', ( #1186, #1108, #965, #159 ) ) ;
#545 = CARTESIAN_POINT ( 'NONE',  ( -0.8691584210000001809, -0.1750000000000000167, 0.6000000000000000888 ) ) ;
#546 = ORIENTED_EDGE ( 'NONE', *, *, #217, .T. ) ;
#547 = CARTESIAN_POINT ( 'NONE',  ( -0.8695544583768102243, 0.1750000000000000444, 0.8200990093111149015 ) ) ;
#548 = PRODUCT_CONTEXT ( 'NONE', #553, 'mechanical' ) ;
#549 = CARTESIAN_POINT ( 'NONE',  ( 0.9686963342889173267, -0.1750000000000000167, 0.8024297464841168015 ) ) ;
#550 =( NAMED_UNIT ( * ) PLANE_ANGLE_UNIT ( ) SI_UNIT ( $, .RADIAN. ) );
#551 = DIRECTION ( 'NONE',  ( 0.0000000000000000000, 0.9863939238321437486, 0.1643989873053573747 ) ) ;
#552 = ORIENTED_EDGE ( 'NONE', *, *, #481, .T. ) ;
#553 = APPLICATION_CONTEXT ( 'automotive_design' ) ;
#554 = CARTESIAN_POINT ( 'NONE',  ( -1.011764706275403380, 0.0000000000000000000, 0.2529411765427783121 ) ) ;
#555 = VERTEX_POINT ( 'NONE', #214 ) ;
#556 = DIRECTION ( 'NONE',  ( 0.2357022603726492971, -0.2357022603955160611, 0.9428090415877798947 ) ) ;
#557 =( NAMED_UNIT ( * ) PLANE_ANGLE_UNIT ( ) SI_UNIT ( $, .RADIAN. ) );
#558 =( GEOMETRIC_REPRESENTATION_CONTEXT ( 3 ) GLOBAL_UNCERTAINTY_ASSIGNED_CONTEXT ( ( #528 ) ) GLOBAL_UNIT_ASSIGNED_CONTEXT ( ( #584, #673, #294 ) ) REPRESENTATION_CONTEXT ( 'NONE', 'WORKASPACE' ) );
#559 = ORIENTED_EDGE ( 'NONE', *, *, #63, .F. ) ;
#560 = AXIS2_PLACEMENT_3D ( 'NONE', #1015, #213, #1054 ) ;
#561 = UNCERTAINTY_MEASURE_WITH_UNIT (LENGTH_MEASURE( 1.000000000000000082E-05 ), #1152, 'distance_accuracy_value', 'NONE');
#562 = CARTESIAN_POINT ( 'NONE',  ( -0.9675229471601067832, -0.1750000000000000167, 0.8036454911719090877 ) ) ;
#563 = VERTEX_POINT ( 'NONE', #390 ) ;
#564 = SURFACE_STYLE_USAGE ( .BOTH. , #340 ) ;
#565 = ADVANCED_FACE ( 'NONE', ( #589 ), #306, .T. ) ;
#566 = CARTESIAN_POINT ( 'NONE',  ( 1.214768967477713568, -0.1750000000000000167, 0.1200000000000000233 ) ) ;
#567 = CARTESIAN_POINT ( 'NONE',  ( 0.8695544583768100022, -0.1750000000000000444, 0.8200990093441924422 ) ) ;
#568 = ADVANCED_FACE ( 'NONE', ( #830 ), #369, .T. ) ;
#569 = ORIENTED_EDGE ( 'NONE', *, *, #650, .T. ) ;
#570 = SURFACE_STYLE_FILL_AREA ( #107 ) ;
#571 = ORIENTED_EDGE ( 'NONE', *, *, #1045, .F. ) ;
#572 = SURFACE_SIDE_STYLE ('',( #100 ) ) ;
#573 = CARTESIAN_POINT ( 'NONE',  ( -1.237430683999999781, -0.1750000000000000167, 0.1200000001739759820 ) ) ;
#574 = EDGE_LOOP ( 'NONE', ( #1127, #923, #7, #38 ) ) ;
#575 = MANIFOLD_SOLID_BREP ( 'Imported1', #298 ) ;
#576 = VERTEX_POINT ( 'NONE', #651 ) ;
#577 = CARTESIAN_POINT ( 'NONE',  ( 0.9669386623912051837, -0.1750000000000000167, 0.6209529088900798133 ) ) ;
#578 = CARTESIAN_POINT ( 'NONE',  ( 1.083061337999999818, -0.1750000000000000167, 0.07904709112999999676 ) ) ;
#579 = ADVANCED_FACE ( 'NONE', ( #183 ), #1156, .T. ) ;
#580 = AXIS2_PLACEMENT_3D ( 'NONE', #944, #746, #191 ) ;
#581 = ORIENTED_EDGE ( 'NONE', *, *, #155, .T. ) ;
#582 =( GEOMETRIC_REPRESENTATION_CONTEXT ( 3 ) GLOBAL_UNCERTAINTY_ASSIGNED_CONTEXT ( ( #1074 ) ) GLOBAL_UNIT_ASSIGNED_CONTEXT ( ( #888, #695, #611 ) ) REPRESENTATION_CONTEXT ( 'NONE', 'WORKASPACE' ) );
#583 = CARTESIAN_POINT ( 'NONE',  ( 0.8996143177414637204, -0.1750000000000000167, 0.6976859052556582119 ) ) ;
#584 =( LENGTH_UNIT ( ) NAMED_UNIT ( * ) SI_UNIT ( .MILLI., .METRE. ) );
#585 = EDGE_CURVE ( 'NONE', #804, #489, #597, .T. ) ;
#586 = ORIENTED_EDGE ( 'NONE', *, *, #1136, .T. ) ;
#587 = SURFACE_STYLE_FILL_AREA ( #1090 ) ;
#588 = DIRECTION ( 'NONE',  ( -1.000000000000000000, 0.0000000000000000000, 0.0000000000000000000 ) ) ;
#589 = FACE_OUTER_BOUND ( 'NONE', #484, .T. ) ;
#590 = ORIENTED_EDGE ( 'NONE', *, *, #859, .F. ) ;
#591 =( NAMED_UNIT ( * ) SI_UNIT ( $, .STERADIAN. ) SOLID_ANGLE_UNIT ( ) );
#592 = CARTESIAN_POINT ( 'NONE',  ( 1.084274952097030287, 0.0000000000000000000, 0.6460963995207922306 ) ) ;
#593 = CARTESIAN_POINT ( 'NONE',  ( -0.7999999999901362679, 0.5750000000000000666, 0.1000000000010959761 ) ) ;
#594 = B_SPLINE_CURVE_WITH_KNOTS ( 'NONE', 3,
 ( #617, #975, #907, #157 ),
 .UNSPECIFIED., .F., .F.,
 ( 4, 4 ),
 ( 0.0000000000000000000, 1.000000000000000000 ),
 .UNSPECIFIED. ) ;
#595 = ORIENTED_EDGE ( 'NONE', *, *, #72, .F. ) ;
#596 = PRESENTATION_LAYER_ASSIGNMENT (  '', '', ( #508 ) ) ;
#597 = B_SPLINE_CURVE_WITH_KNOTS ( 'NONE', 3,
 ( #141, #413, #980, #689 ),
 .UNSPECIFIED., .F., .F.,
 ( 4, 4 ),
 ( 0.0000000000000000000, 1.000000000000000000 ),
 .UNSPECIFIED. ) ;
#598 = VECTOR ( 'NONE', #419, 1000.000000000000000 ) ;
#599 = VECTOR ( 'NONE', #920, 1000.000000000000000 ) ;
#600 = EDGE_CURVE ( 'NONE', #489, #177, #1098, .T. ) ;
#601 = CYLINDRICAL_SURFACE ( 'NONE', #150, 0.2200000000000000289 ) ;
#602 = DIRECTION ( 'NONE',  ( 0.0000000000000000000, 0.9863939238321437486, -0.1643989873053573747 ) ) ;
#603 = DIRECTION ( 'NONE',  ( -0.9701425001512142821, 0.0000000000000000000, 0.2425356250128035962 ) ) ;
#604 = VERTEX_POINT ( 'NONE', #401 ) ;
#605 =( NAMED_UNIT ( * ) SI_UNIT ( $, .STERADIAN. ) SOLID_ANGLE_UNIT ( ) );
#606 = CARTESIAN_POINT ( 'NONE',  ( 0.0000000000000000000, -0.5750000000412311962, 1.100000000010308066 ) ) ;
#607 = LINE ( 'NONE', #899, #262 ) ;
#608 = PRODUCT_DEFINITION ( 'UNKNOWN', '', #678, #1018 ) ;
#609 = ORIENTED_EDGE ( 'NONE', *, *, #734, .F. ) ;
#610 = CARTESIAN_POINT ( 'NONE',  ( 0.0000000000000000000, 0.1750000000000000167, 0.1200000000000000233 ) ) ;
#611 =( NAMED_UNIT ( * ) SI_UNIT ( $, .STERADIAN. ) SOLID_ANGLE_UNIT ( ) );
#612 = ORIENTED_EDGE ( 'NONE', *, *, #418, .F. ) ;
#613 = AXIS2_PLACEMENT_3D ( 'NONE', #967, #510, #55 ) ;
#614 = CARTESIAN_POINT ( 'NONE',  ( -0.8695544583768102243, 0.1750000000000000444, 0.8200990093111149015 ) ) ;
#615 =( GEOMETRIC_REPRESENTATION_CONTEXT ( 3 ) GLOBAL_UNCERTAINTY_ASSIGNED_CONTEXT ( ( #660 ) ) GLOBAL_UNIT_ASSIGNED_CONTEXT ( ( #45, #693, #605 ) ) REPRESENTATION_CONTEXT ( 'NONE', 'WORKASPACE' ) );
#616 = DIRECTION ( 'NONE',  ( 1.000000000000000000, 0.0000000000000000000, -0.0000000000000000000 ) ) ;
#617 = CARTESIAN_POINT ( 'NONE',  ( -0.8695544583778574976, -0.1749999999999999889, 0.8200990093116875546 ) ) ;
#618 = DIRECTION ( 'NONE',  ( 1.000000000000000000, 0.0000000000000000000, 0.0000000000000000000 ) ) ;
#619 = EDGE_LOOP ( 'NONE', ( #1192, #383, #1040, #685 ) ) ;
#620 = CARTESIAN_POINT ( 'NONE',  ( -1.237430683999999781, -0.1750000000000000167, 0.1200000001739759820 ) ) ;
#621 = CARTESIAN_POINT ( 'NONE',  ( 1.083061337584259487, -0.1750000000000000167, 0.07904709106287707843 ) ) ;
#622 = CARTESIAN_POINT ( 'NONE',  ( 0.9000000003977585150, 0.0000000000000000000, 0.7000000000994398563 ) ) ;
#623 = VERTEX_POINT ( 'NONE', #705 ) ;
#624 = CARTESIAN_POINT ( 'NONE',  ( 0.0000000000000000000, 0.0000000000000000000, 0.0000000000000000000 ) ) ;
#625 = VERTEX_POINT ( 'NONE', #319 ) ;
#626 = DIRECTION ( 'NONE',  ( -0.1643989873053573469, 0.0000000000000000000, -0.9863939238321436376 ) ) ;
#627 = ORIENTED_EDGE ( 'NONE', *, *, #101, .T. ) ;
#628 = CARTESIAN_POINT ( 'NONE',  ( 0.0000000000000000000, 0.0000000000000000000, 1.104999999999999982 ) ) ;
#629 = SURFACE_SIDE_STYLE ('',( #534 ) ) ;
#630 = SURFACE_SIDE_STYLE ('',( #815 ) ) ;
#631 = ORIENTED_EDGE ( 'NONE', *, *, #1163, .T. ) ;
#632 = DIRECTION ( 'NONE',  ( -0.0000000000000000000, -1.000000000000000000, -0.0000000000000000000 ) ) ;
#633 = PLANE ( 'NONE',  #240 ) ;
#634 = DIRECTION ( 'NONE',  ( 0.0000000000000000000, 0.0000000000000000000, 1.000000000000000000 ) ) ;
#635 = DIRECTION ( 'NONE',  ( -0.1622214211307627663, -0.1622214211307625720, -0.9733285267845751543 ) ) ;
#636 = VECTOR ( 'NONE', #632, 1000.000000000000000 ) ;
#637 = ADVANCED_FACE ( 'NONE', ( #505 ), #796, .T. ) ;
#638 = LINE ( 'NONE', #181, #1191 ) ;
#639 = PRESENTATION_LAYER_ASSIGNMENT (  '', '', ( #1058 ) ) ;
#640 = PLANE ( 'NONE',  #560 ) ;
#641 = AXIS2_PLACEMENT_3D ( 'NONE', #140, #602, #237 ) ;
#642 = ORIENTED_EDGE ( 'NONE', *, *, #1017, .F. ) ;
#643 = CYLINDRICAL_SURFACE ( 'NONE', #1176, 0.09999999997496722415 ) ;
#644 = FACE_OUTER_BOUND ( 'NONE', #858, .T. ) ;
#645 = DIRECTION ( 'NONE',  ( 1.000000000000000000, 0.0000000000000000000, 0.0000000000000000000 ) ) ;
#646 = VERTEX_POINT ( 'NONE', #1082 ) ;
#647 = ORIENTED_EDGE ( 'NONE', *, *, #233, .T. ) ;
#648 = DIRECTION ( 'NONE',  ( -1.000000000000000000, 0.0000000000000000000, -0.0000000000000000000 ) ) ;
#649 = CARTESIAN_POINT ( 'NONE',  ( 0.0000000000000000000, -0.1750000000000000167, 0.0000000000000000000 ) ) ;
#650 = EDGE_CURVE ( 'NONE', #398, #749, #784, .T. ) ;
#651 = CARTESIAN_POINT ( 'NONE',  ( 0.8996143177414637204, -0.1750000000000000167, 0.6976859052556582119 ) ) ;
#652 = ORIENTED_EDGE ( 'NONE', *, *, #981, .T. ) ;
#653 = FILL_AREA_STYLE_COLOUR ( '', #991 ) ;
#654 = LINE ( 'NONE', #24, #258 ) ;
#655 = DIRECTION ( 'NONE',  ( 0.0000000000000000000, 1.000000000000000000, -0.0000000000000000000 ) ) ;
#656 = VECTOR ( 'NONE', #1134, 1000.000000000000000 ) ;
#657 =( GEOMETRIC_REPRESENTATION_CONTEXT ( 3 ) GLOBAL_UNCERTAINTY_ASSIGNED_CONTEXT ( ( #296 ) ) GLOBAL_UNIT_ASSIGNED_CONTEXT ( ( #1137, #661, #873 ) ) REPRESENTATION_CONTEXT ( 'NONE', 'WORKASPACE' ) );
#658 = ORIENTED_EDGE ( 'NONE', *, *, #772, .T. ) ;
#659 = COLOUR_RGB ( '',0.1215686274509803905, 0.1215686274509803905, 0.1215686274509803905 ) ;
#660 = UNCERTAINTY_MEASURE_WITH_UNIT (LENGTH_MEASURE( 1.000000000000000082E-05 ), #45, 'distance_accuracy_value', 'NONE');
#661 =( NAMED_UNIT ( * ) PLANE_ANGLE_UNIT ( ) SI_UNIT ( $, .RADIAN. ) );
#662 = ORIENTED_EDGE ( 'NONE', *, *, #90, .F. ) ;
#663 = CARTESIAN_POINT ( 'NONE',  ( -0.8996143177413211678, -0.1750000000000000167, 0.6976859052595673072 ) ) ;
#664 = FILL_AREA_STYLE ('',( #866 ) ) ;
#665 = ADVANCED_FACE ( 'NONE', ( #323 ), #1185, .T. ) ;
#666 = ORIENTED_EDGE ( 'NONE', *, *, #284, .F. ) ;
#667 = DIRECTION ( 'NONE',  ( -1.000000000000000000, -0.0000000000000000000, 0.0000000000000000000 ) ) ;
#668 = DIRECTION ( 'NONE',  ( -1.000000000000000000, -0.0000000000000000000, 0.0000000000000000000 ) ) ;
#669 = B_SPLINE_CURVE_WITH_KNOTS ( 'NONE', 3,
 ( #728, #257, #753, #125 ),
 .UNSPECIFIED., .F., .F.,
 ( 4, 4 ),
 ( 0.0000000000000000000, 1.000000000000000000 ),
 .UNSPECIFIED. ) ;
#670 = ORIENTED_EDGE ( 'NONE', *, *, #1216, .F. ) ;
#671 = ORIENTED_EDGE ( 'NONE', *, *, #336, .T. ) ;
#672 = CARTESIAN_POINT ( 'NONE',  ( 0.9669386623912051837, -0.1750000000000000167, 0.6209529088900798133 ) ) ;
#673 =( NAMED_UNIT ( * ) PLANE_ANGLE_UNIT ( ) SI_UNIT ( $, .RADIAN. ) );
#674 = EDGE_CURVE ( 'NONE', #129, #1008, #158, .T. ) ;
#675 = VECTOR ( 'NONE', #1091, 1000.000000000000227 ) ;
#676 = PRESENTATION_LAYER_ASSIGNMENT (  '', '', ( #134 ) ) ;
#677 = AXIS2_PLACEMENT_3D ( 'NONE', #462, #655, #374 ) ;
#678 = PRODUCT_DEFINITION_FORMATION_WITH_SPECIFIED_SOURCE ( 'ANY', '', #434, .NOT_KNOWN. ) ;
#679 = DIRECTION ( 'NONE',  ( 1.000000000000000000, 0.0000000000000000000, -0.0000000000000000000 ) ) ;
#680 = CARTESIAN_POINT ( 'NONE',  ( -1.084274952025500172, -0.1750000000000000167, 0.6460963995035000629 ) ) ;
#681 = ORIENTED_EDGE ( 'NONE', *, *, #485, .T. ) ;
#682 = DIRECTION ( 'NONE',  ( 0.0000000000000000000, 0.0000000000000000000, 1.000000000000000000 ) ) ;
#683 = CARTESIAN_POINT ( 'NONE',  ( -1.084274952024330663, 0.1750000000000000167, 0.6460963995048565334 ) ) ;
#684 = FILL_AREA_STYLE_COLOUR ( '', #334 ) ;
#685 = ORIENTED_EDGE ( 'NONE', *, *, #543, .T. ) ;
#686 = EDGE_CURVE ( 'NONE', #345, #52, #406, .T. ) ;
#687 = EDGE_CURVE ( 'NONE', #625, #123, #218, .T. ) ;
#688 = PRESENTATION_STYLE_ASSIGNMENT (( #46 ) ) ;
#689 = CARTESIAN_POINT ( 'NONE',  ( -0.8996143177426213500, 0.1750000000000000167, 0.6976859052593303856 ) ) ;
#690 = VECTOR ( 'NONE', #268, 1000.000000000000000 ) ;
#691 = ORIENTED_EDGE ( 'NONE', *, *, #418, .T. ) ;
#692 = PRESENTATION_LAYER_ASSIGNMENT (  '', '', ( #893 ) ) ;
#693 =( NAMED_UNIT ( * ) PLANE_ANGLE_UNIT ( ) SI_UNIT ( $, .RADIAN. ) );
#694 = STYLED_ITEM ( 'NONE', ( #688 ), #1125 ) ;
#695 =( NAMED_UNIT ( * ) PLANE_ANGLE_UNIT ( ) SI_UNIT ( $, .RADIAN. ) );
#696 = B_SPLINE_CURVE_WITH_KNOTS ( 'NONE', 3,
 ( #620, #173, #247, #709 ),
 .UNSPECIFIED., .F., .F.,
 ( 4, 4 ),
 ( 0.0000000000000000000, 1.000000000000000000 ),
 .UNSPECIFIED. ) ;
#697 = VERTEX_POINT ( 'NONE', #802 ) ;
#698 = PLANE ( 'NONE',  #771 ) ;
#699 = CARTESIAN_POINT ( 'NONE',  ( -0.8695544583778574976, -0.1749999999999999889, 0.8200990093116875546 ) ) ;
#700 = CARTESIAN_POINT ( 'NONE',  ( 1.051707316590231533, 0.0000000000000000000, 0.2253658535166359889 ) ) ;
#701 = PRESENTATION_STYLE_ASSIGNMENT (( #970 ) ) ;
#702 = VERTEX_POINT ( 'NONE', #335 ) ;
#703 = DIRECTION ( 'NONE',  ( -0.1622214211307627663, 0.1622214211307625720, 0.9733285267845751543 ) ) ;
#704 = FILL_AREA_STYLE ('',( #516 ) ) ;
#705 = CARTESIAN_POINT ( 'NONE',  ( 1.300000000000000266, -0.1750000000000000167, 0.1200000000000000233 ) ) ;
#706 = EDGE_CURVE ( 'NONE', #972, #113, #518, .T. ) ;
#707 = EDGE_LOOP ( 'NONE', ( #502, #251, #108, #662 ) ) ;
#708 = VECTOR ( 'NONE', #1071, 1000.000000000000000 ) ;
#709 = CARTESIAN_POINT ( 'NONE',  ( -1.188540563824252105, -0.1750000000000000167, 0.1595235455898397214 ) ) ;
#710 = B_SPLINE_CURVE_WITH_KNOTS ( 'NONE', 3,
 ( #517, #901, #566, #4 ),
 .UNSPECIFIED., .F., .F.,
 ( 4, 4 ),
 ( 0.0000000000000000000, 1.000000000000000000 ),
 .UNSPECIFIED. ) ;
#711 = COLOUR_RGB ( '',0.1215686274509803905, 0.1215686274509803905, 0.1215686274509803905 ) ;
#712 = CARTESIAN_POINT ( 'NONE',  ( -1.084274952024330663, 0.1750000000000000167, 0.6460963995048565334 ) ) ;
#713 = CARTESIAN_POINT ( 'NONE',  ( -1.083061337681877623, 0.1750000000000000167, 0.07904709108379522065 ) ) ;
#714 = VECTOR ( 'NONE', #1202, 1000.000000000000000 ) ;
#715 = AXIS2_PLACEMENT_3D ( 'NONE', #523, #499, #326 ) ;
#716 = CARTESIAN_POINT ( 'NONE',  ( -0.7621621621522984835, 0.0000000000000000000, -0.1270270270253831546 ) ) ;
#717 = SURFACE_STYLE_FILL_AREA ( #1180 ) ;
#718 = VERTEX_POINT ( 'NONE', #593 ) ;
#719 = CARTESIAN_POINT ( 'NONE',  ( -0.8691584210000001809, -0.1750000000000000167, 0.6000000000000000888 ) ) ;
#720 =( LENGTH_UNIT ( ) NAMED_UNIT ( * ) SI_UNIT ( .MILLI., .METRE. ) );
#721 = CARTESIAN_POINT ( 'NONE',  ( -0.8000000000679099443, -0.5750000000137436285, 1.102500000020413262 ) ) ;
#722 = ORIENTED_EDGE ( 'NONE', *, *, #803, .T. ) ;
#723 = CARTESIAN_POINT ( 'NONE',  ( -0.8000000001358199553, 0.5750000000068719030, 1.102500000035673056 ) ) ;
#724 = ADVANCED_FACE ( 'NONE', ( #1175 ), #880, .F. ) ;
#725 = CARTESIAN_POINT ( 'NONE',  ( -0.8799669973016659430, 0.1750000000000000167, 0.7801320124920698706 ) ) ;
#726 = SURFACE_STYLE_USAGE ( .BOTH. , #629 ) ;
#727 = DIRECTION ( 'NONE',  ( -0.0000000000000000000, 1.000000000000000000, 0.0000000000000000000 ) ) ;
#728 = CARTESIAN_POINT ( 'NONE',  ( -0.3000000000000000444, 0.5750000000068719030, 1.102500000001717773 ) ) ;
#729 = ORIENTED_EDGE ( 'NONE', *, *, #17, .F. ) ;
#730 = DIRECTION ( 'NONE',  ( 0.0000000000000000000, 1.000000000000000000, 0.0000000000000000000 ) ) ;
#731 = EDGE_LOOP ( 'NONE', ( #987, #852, #546, #1019 ) ) ;
#732 = VECTOR ( 'NONE', #1159, 1000.000000000000000 ) ;
#733 = PRESENTATION_LAYER_ASSIGNMENT (  '', '', ( #396 ) ) ;
#734 = EDGE_CURVE ( 'NONE', #949, #70, #76, .T. ) ;
#735 = ORIENTED_EDGE ( 'NONE', *, *, #780, .F. ) ;
#736 = SURFACE_SIDE_STYLE ('',( #128 ) ) ;
#737 = DIRECTION ( 'NONE',  ( 0.0000000000000000000, 0.0000000000000000000, 1.000000000000000000 ) ) ;
#738 = ORIENTED_EDGE ( 'NONE', *, *, #77, .F. ) ;
#739 = APPLICATION_PROTOCOL_DEFINITION ( 'draft international standard', 'automotive_design', 1998, #959 ) ;
#740 = CARTESIAN_POINT ( 'NONE',  ( 0.9669386623905509293, 0.1750000000000000167, 0.6209529088919512052 ) ) ;
#741 =( NAMED_UNIT ( * ) SI_UNIT ( $, .STERADIAN. ) SOLID_ANGLE_UNIT ( ) );
#742 = DIRECTION ( 'NONE',  ( 0.0000000000000000000, -0.0000000000000000000, 1.000000000000000000 ) ) ;
#743 = ORIENTED_EDGE ( 'NONE', *, *, #408, .T. ) ;
#744 = EDGE_CURVE ( 'NONE', #576, #297, #938, .T. ) ;
#745 = CARTESIAN_POINT ( 'NONE',  ( -0.9669386624018458942, -0.1750000000000000167, 0.6209529088943716024 ) ) ;
#746 = DIRECTION ( 'NONE',  ( 0.0000000000000000000, 1.000000000000000000, 0.0000000000000000000 ) ) ;
#747 = CARTESIAN_POINT ( 'NONE',  ( 0.8000000001358198443, 0.5750000000000000666, 1.100000000033955150 ) ) ;
#748 = ORIENTED_EDGE ( 'NONE', *, *, #503, .T. ) ;
#749 = VERTEX_POINT ( 'NONE', #93 ) ;
#750 =( GEOMETRIC_REPRESENTATION_CONTEXT ( 3 ) GLOBAL_UNCERTAINTY_ASSIGNED_CONTEXT ( ( #457 ) ) GLOBAL_UNIT_ASSIGNED_CONTEXT ( ( #243, #421, #266 ) ) REPRESENTATION_CONTEXT ( 'NONE', 'WORKASPACE' ) );
#751 = DIRECTION ( 'NONE',  ( 0.2095290895954797228, 0.0000000000000000000, -0.9778024138921366237 ) ) ;
#752 = CARTESIAN_POINT ( 'NONE',  ( -1.188540563824252105, -0.1750000000000000167, 0.1595235455898397214 ) ) ;
#753 = CARTESIAN_POINT ( 'NONE',  ( -0.6333333333333334147, 0.5750000000000000666, 1.104999999999999982 ) ) ;
#754 = VECTOR ( 'NONE', #667, 1000.000000000000000 ) ;
#755 = VECTOR ( 'NONE', #176, 1000.000000000000000 ) ;
#756 = UNCERTAINTY_MEASURE_WITH_UNIT (LENGTH_MEASURE( 1.000000000000000082E-05 ), #182, 'distance_accuracy_value', 'NONE');
#757 = ORIENTED_EDGE ( 'NONE', *, *, #23, .F. ) ;
#758 = CARTESIAN_POINT ( 'NONE',  ( 1.084274951999999903, -0.1750000000000000167, 0.6460963995000000848 ) ) ;
#759 = PLANE ( 'NONE',  #492 ) ;
#760 = ORIENTED_EDGE ( 'NONE', *, *, #1099, .T. ) ;
#761 = VERTEX_POINT ( 'NONE', #463 ) ;
#762 = EDGE_CURVE ( 'NONE', #811, #576, #1007, .T. ) ;
#763 = DIRECTION ( 'NONE',  ( 0.0000000000000000000, 1.000000000000000000, 0.0000000000000000000 ) ) ;
#764 = DIRECTION ( 'NONE',  ( 0.2357022603955158113, -0.2357022603726492971, -0.9428090415877798947 ) ) ;
#765 = ADVANCED_FACE ( 'NONE', ( #1119 ), #922, .F. ) ;
#766 = UNCERTAINTY_MEASURE_WITH_UNIT (LENGTH_MEASURE( 1.000000000000000082E-05 ), #1005, 'distance_accuracy_value', 'NONE');
#767 = CARTESIAN_POINT ( 'NONE',  ( -1.084274951999999903, 0.0000000000000000000, 0.6460963995000000848 ) ) ;
#768 = LINE ( 'NONE', #1153, #1056 ) ;
#769 = CARTESIAN_POINT ( 'NONE',  ( 1.300000000000000266, 0.1750000000000000167, 0.0000000000000000000 ) ) ;
#770 = STYLED_ITEM ( 'NONE', ( #105 ), #56 ) ;
#771 = AXIS2_PLACEMENT_3D ( 'NONE', #529, #246, #626 ) ;
#772 = EDGE_CURVE ( 'NONE', #604, #1, #438, .T. ) ;
#773 = AXIS2_PLACEMENT_3D ( 'NONE', #624, #1032, #1000 ) ;
#774 = ORIENTED_EDGE ( 'NONE', *, *, #762, .F. ) ;
#775 = MECHANICAL_DESIGN_GEOMETRIC_PRESENTATION_REPRESENTATION (  '', ( #694 ), #582 ) ;
#776 = SURFACE_STYLE_USAGE ( .BOTH. , #962 ) ;
#777 = PLANE ( 'NONE',  #453 ) ;
#778 = CARTESIAN_POINT ( 'NONE',  ( 0.7999999999901362679, 0.0000000000000000000, 0.1000000000016439683 ) ) ;
#779 = FILL_AREA_STYLE ('',( #684 ) ) ;
#780 = EDGE_CURVE ( 'NONE', #1198, #58, #1131, .T. ) ;
#781 = EDGE_LOOP ( 'NONE', ( #527, #559, #211, #341, #32, #729, #791, #595, #464, #200 ) ) ;
#782 = CARTESIAN_POINT ( 'NONE',  ( -1.300000000000000266, -0.1750000000000000167, 0.0000000000000000000 ) ) ;
#783 = CARTESIAN_POINT ( 'NONE',  ( -0.9000000002958529199, 0.6750000000078826279, 0.7000000000521013899 ) ) ;
#784 = LINE ( 'NONE', #500, #169 ) ;
#785 = EDGE_LOOP ( 'NONE', ( #260, #13, #391, #1158 ) ) ;
#786 = CARTESIAN_POINT ( 'NONE',  ( 1.300000000000000266, 0.1750000000000000167, 0.0000000000000000000 ) ) ;
#787 = LINE ( 'NONE', #592, #187 ) ;
#788 = PLANE ( 'NONE',  #535 ) ;
#789 = CARTESIAN_POINT ( 'NONE',  ( 0.0000000000000000000, -0.5750000000443878934, 0.09999999999260206218 ) ) ;
#790 = VECTOR ( 'NONE', #278, 1000.000000000000114 ) ;
#791 = ORIENTED_EDGE ( 'NONE', *, *, #54, .F. ) ;
#792 = PRESENTATION_LAYER_ASSIGNMENT (  '', '', ( #115 ) ) ;
#793 = MECHANICAL_DESIGN_GEOMETRIC_PRESENTATION_REPRESENTATION (  '', ( #1058 ), #936 ) ;
#794 = FILL_AREA_STYLE ('',( #299 ) ) ;
#795 = ADVANCED_FACE ( 'NONE', ( #84 ), #445, .T. ) ;
#796 = PLANE ( 'NONE',  #16 ) ;
#797 = VERTEX_POINT ( 'NONE', #525 ) ;
#798 = PLANE ( 'NONE',  #69 ) ;
#799 = DIRECTION ( 'NONE',  ( -0.0000000000000000000, -1.000000000000000000, 0.0000000000000000000 ) ) ;
#800 = EDGE_CURVE ( 'NONE', #949, #329, #669, .T. ) ;
#801 = SURFACE_SIDE_STYLE ('',( #979 ) ) ;
#802 = CARTESIAN_POINT ( 'NONE',  ( 0.8695544583778576087, 0.1749999999999999889, 0.8200990093447650953 ) ) ;
#803 = EDGE_CURVE ( 'NONE', #1145, #414, #910, .T. ) ;
#804 = VERTEX_POINT ( 'NONE', #1182 ) ;
#805 = ORIENTED_EDGE ( 'NONE', *, *, #336, .F. ) ;
#806 = CARTESIAN_POINT ( 'NONE',  ( -1.084274951999999903, 0.1750000000000000167, 0.6460963995000000848 ) ) ;
#807 = CARTESIAN_POINT ( 'NONE',  ( -1.135518146089393277, 0.1750000000000000167, 3.993366565370067614E-10 ) ) ;
#808 = CARTESIAN_POINT ( 'NONE',  ( 0.0000000000000000000, -0.8000000000242537546, 0.1999999999854479293 ) ) ;
#809 = ORIENTED_EDGE ( 'NONE', *, *, #650, .F. ) ;
#810 = COLOUR_RGB ( '',0.3176470588235293935, 0.3176470588235293935, 0.3176470588235293935 ) ;
#811 = VERTEX_POINT ( 'NONE', #486 ) ;
#812 = MECHANICAL_DESIGN_GEOMETRIC_PRESENTATION_REPRESENTATION (  '', ( #508 ), #657 ) ;
#813 = CARTESIAN_POINT ( 'NONE',  ( -1.300000000000000266, -0.1750000000000000167, 0.0000000000000000000 ) ) ;
#814 = VECTOR ( 'NONE', #668, 1000.000000000000000 ) ;
#815 = SURFACE_STYLE_FILL_AREA ( #822 ) ;
#816 = ADVANCED_FACE ( 'NONE', ( #869 ), #1213, .T. ) ;
#817 = B_SPLINE_CURVE_WITH_KNOTS ( 'NONE', 3,
 ( #87, #912, #1109, #520, #1122, #925 ),
 .UNSPECIFIED., .F., .F.,
 ( 4, 2, 4 ),
 ( 0.0000000000000000000, 0.5000000000000000000, 1.000000000000000000 ),
 .UNSPECIFIED. ) ;
#818 = ORIENTED_EDGE ( 'NONE', *, *, #284, .T. ) ;
#819 = FILL_AREA_STYLE ('',( #249 ) ) ;
#820 = FILL_AREA_STYLE_COLOUR ( '', #50 ) ;
#821 = CARTESIAN_POINT ( 'NONE',  ( 0.8691584210000001809, -0.05833333333333334814, 0.8200000000000000622 ) ) ;
#822 = FILL_AREA_STYLE ('',( #312 ) ) ;
#823 = VERTEX_POINT ( 'NONE', #1194 ) ;
#824 = PLANE ( 'NONE',  #357 ) ;
#825 = SURFACE_STYLE_USAGE ( .BOTH. , #1117 ) ;
#826 =( NAMED_UNIT ( * ) PLANE_ANGLE_UNIT ( ) SI_UNIT ( $, .RADIAN. ) );
#827 = DIRECTION ( 'NONE',  ( -1.000000000000000000, -0.0000000000000000000, 0.0000000000000000000 ) ) ;
#828 =( NAMED_UNIT ( * ) SI_UNIT ( $, .STERADIAN. ) SOLID_ANGLE_UNIT ( ) );
#829 = ORIENTED_EDGE ( 'NONE', *, *, #908, .F. ) ;
#830 = FACE_OUTER_BOUND ( 'NONE', #365, .T. ) ;
#831 = ORIENTED_EDGE ( 'NONE', *, *, #908, .T. ) ;
#832 = DIRECTION ( 'NONE',  ( -0.0000000000000000000, 1.000000000000000000, 0.0000000000000000000 ) ) ;
#833 = VECTOR ( 'NONE', #467, 1000.000000000000000 ) ;
#834 = CARTESIAN_POINT ( 'NONE',  ( 1.073828716693476792, -0.1750000000000000444, 0.6948454980707070572 ) ) ;
#835 = PRESENTATION_LAYER_ASSIGNMENT (  '', '', ( #1123 ) ) ;
#836 = CARTESIAN_POINT ( 'NONE',  ( 0.8695544583768100022, -0.1750000000000000444, 0.8200990093441924422 ) ) ;
#837 = ORIENTED_EDGE ( 'NONE', *, *, #981, .F. ) ;
#838 = PRESENTATION_STYLE_ASSIGNMENT (( #924 ) ) ;
#839 = EDGE_LOOP ( 'NONE', ( #647, #460, #609, #552 ) ) ;
#840 = CARTESIAN_POINT ( 'NONE',  ( 1.188540563484023815, 0.1750000000000000167, 0.1595235455169336514 ) ) ;
#841 =( NAMED_UNIT ( * ) SI_UNIT ( $, .STERADIAN. ) SOLID_ANGLE_UNIT ( ) );
#842 = FILL_AREA_STYLE_COLOUR ( '', #1173 ) ;
#843 = LINE ( 'NONE', #947, #456 ) ;
#844 = EDGE_LOOP ( 'NONE', ( #896, #480, #846, #1001 ) ) ;
#845 = DIRECTION ( 'NONE',  ( 0.0000000000000000000, 1.000000000000000000, 0.0000000000000000000 ) ) ;
#846 = ORIENTED_EDGE ( 'NONE', *, *, #378, .T. ) ;
#847 = CARTESIAN_POINT ( 'NONE',  ( 0.9595752918854051350, -0.1750000000000000167, 0.6553153044776600655 ) ) ;
#848 = CARTESIAN_POINT ( 'NONE',  ( -0.9000000003977585150, 0.6750000000000001554, 0.7000000000994398563 ) ) ;
#849 = DIRECTION ( 'NONE',  ( 0.0000000000000000000, -1.000000000000000000, -0.0000000000000000000 ) ) ;
#850 = B_SPLINE_CURVE_WITH_KNOTS ( 'NONE', 3,
 ( #92, #430, #549, #1030, #834, #921 ),
 .UNSPECIFIED., .F., .F.,
 ( 4, 2, 4 ),
 ( 0.0000000000000000000, 0.5000000000000000000, 1.000000000000000000 ),
 .UNSPECIFIED. ) ;
#851 = ORIENTED_EDGE ( 'NONE', *, *, #600, .T. ) ;
#852 = ORIENTED_EDGE ( 'NONE', *, *, #204, .F. ) ;
#853 = LINE ( 'NONE', #11, #754 ) ;
#854 = DIRECTION ( 'NONE',  ( 0.0000000000000000000, 0.2425356250128035684, -0.9701425001512141710 ) ) ;
#855 = CARTESIAN_POINT ( 'NONE',  ( 0.0000000000000000000, -0.5737500000439370584, 1.104999999999999982 ) ) ;
#856 = ORIENTED_EDGE ( 'NONE', *, *, #1076, .F. ) ;
#857 = VECTOR ( 'NONE', #635, 1000.000000000000227 ) ;
#858 = EDGE_LOOP ( 'NONE', ( #448, #757, #81, #909 ) ) ;
#859 = EDGE_CURVE ( 'NONE', #697, #563, #817, .T. ) ;
#860 = CARTESIAN_POINT ( 'NONE',  ( -0.9669386624018458942, -0.1750000000000000167, 0.6209529088943716024 ) ) ;
#861 = CARTESIAN_POINT ( 'NONE',  ( -1.051707316590231533, 0.0000000000000000000, 0.2253658535166359889 ) ) ;
#862 = SURFACE_SIDE_STYLE ('',( #179 ) ) ;
#863 = ORIENTED_EDGE ( 'NONE', *, *, #423, .T. ) ;
#864 = EDGE_CURVE ( 'NONE', #1033, #972, #696, .T. ) ;
#865 = LINE ( 'NONE', #1053, #790 ) ;
#866 = FILL_AREA_STYLE_COLOUR ( '', #379 ) ;
#867 = ORIENTED_EDGE ( 'NONE', *, *, #1027, .F. ) ;
#868 = CARTESIAN_POINT ( 'NONE',  ( 0.0000000000000000000, 0.0000000000000000000, 0.1000000000000000056 ) ) ;
#869 = FACE_OUTER_BOUND ( 'NONE', #64, .T. ) ;
#870 = ADVANCED_FACE ( 'NONE', ( #65 ), #643, .F. ) ;
#871 =( LENGTH_UNIT ( ) NAMED_UNIT ( * ) SI_UNIT ( .MILLI., .METRE. ) );
#872 = VECTOR ( 'NONE', #703, 1000.000000000000227 ) ;
#873 =( NAMED_UNIT ( * ) SI_UNIT ( $, .STERADIAN. ) SOLID_ANGLE_UNIT ( ) );
#874 = VECTOR ( 'NONE', #491, 1000.000000000000000 ) ;
#875 = VECTOR ( 'NONE', #47, 1000.000000000000000 ) ;
#876 = VERTEX_POINT ( 'NONE', #1103 ) ;
#877 = CYLINDRICAL_SURFACE ( 'NONE', #1155, 0.09999999960066335847 ) ;
#878 = CARTESIAN_POINT ( 'NONE',  ( -1.188540564000000410, 0.0000000000000000000, 0.1595235456000000107 ) ) ;
#879 = DIRECTION ( 'NONE',  ( -0.1622214211307625165, 0.1622214211307625165, -0.9733285267845751543 ) ) ;
#880 = PLANE ( 'NONE',  #208 ) ;
#881 = VERTEX_POINT ( 'NONE', #614 ) ;
#882 = EDGE_CURVE ( 'NONE', #1, #329, #1147, .T. ) ;
#883 = FACE_OUTER_BOUND ( 'NONE', #960, .T. ) ;
#884 = CARTESIAN_POINT ( 'NONE',  ( 0.8000000000000000444, -0.0000000000000000000, 1.100000000000000089 ) ) ;
#885 =( LENGTH_UNIT ( ) NAMED_UNIT ( * ) SI_UNIT ( .MILLI., .METRE. ) );
#886 = ORIENTED_EDGE ( 'NONE', *, *, #274, .F. ) ;
#887 = ADVANCED_FACE ( 'NONE', ( #433 ), #633, .F. ) ;
#888 =( LENGTH_UNIT ( ) NAMED_UNIT ( * ) SI_UNIT ( .MILLI., .METRE. ) );
#889 = DIRECTION ( 'NONE',  ( -0.0000000000000000000, 1.000000000000000000, 0.0000000000000000000 ) ) ;
#890 = VECTOR ( 'NONE', #192, 1000.000000000000000 ) ;
#891 = VERTEX_POINT ( 'NONE', #80 ) ;
#892 = ADVANCED_FACE ( 'NONE', ( #441 ), #916, .F. ) ;
#893 = STYLED_ITEM ( 'NONE', ( #1026 ), #724 ) ;
#894 = CARTESIAN_POINT ( 'NONE',  ( -1.092557915632438315, -0.1750000000000000167, 0.03472972902355953712 ) ) ;
#895 = CARTESIAN_POINT ( 'NONE',  ( 1.188540563319543830, 0.0000000000000000000, 0.1595235454541878428 ) ) ;
#896 = ORIENTED_EDGE ( 'NONE', *, *, #43, .T. ) ;
#897 = DIRECTION ( 'NONE',  ( 0.0000000000000000000, 1.000000000000000000, 0.0000000000000000000 ) ) ;
#898 = DIRECTION ( 'NONE',  ( -0.2095290895954797228, 0.0000000000000000000, -0.9778024138921366237 ) ) ;
#899 = CARTESIAN_POINT ( 'NONE',  ( -1.180841579000000197, 0.0000000000000000000, 3.993365967763784496E-10 ) ) ;
#900 = EDGE_CURVE ( 'NONE', #1051, #1008, #444, .T. ) ;
#901 = CARTESIAN_POINT ( 'NONE',  ( 1.193288852181060067, -0.1750000000000000167, 0.1373648643421708782 ) ) ;
#902 = CARTESIAN_POINT ( 'NONE',  ( -1.188540564000000410, -0.1750000000000000167, 0.1595235456000000107 ) ) ;
#903 = EDGE_LOOP ( 'NONE', ( #670, #818, #358, #955, #1075, #270 ) ) ;
#904 = UNCERTAINTY_MEASURE_WITH_UNIT (LENGTH_MEASURE( 1.000000000000000082E-05 ), #361, 'distance_accuracy_value', 'NONE');
#905 = B_SPLINE_CURVE_WITH_KNOTS ( 'NONE', 3,
 ( #86, #942, #562, #465, #276, #680 ),
 .UNSPECIFIED., .F., .F.,
 ( 4, 2, 4 ),
 ( 0.0000000000000000000, 0.5000000000000004441, 1.000000000000000000 ),
 .UNSPECIFIED. ) ;
#906 = ORIENTED_EDGE ( 'NONE', *, *, #17, .T. ) ;
#907 = CARTESIAN_POINT ( 'NONE',  ( -0.8691584210000004029, 0.05833333333333334814, 0.8199999999007671070 ) ) ;
#908 = EDGE_CURVE ( 'NONE', #876, #455, #469, .T. ) ;
#909 = ORIENTED_EDGE ( 'NONE', *, *, #1027, .T. ) ;
#910 = LINE ( 'NONE', #507, #412 ) ;
#911 = ORIENTED_EDGE ( 'NONE', *, *, #1169, .F. ) ;
#912 = CARTESIAN_POINT ( 'NONE',  ( 0.9218222061321118543, 0.1750000000000000167, 0.8196220788558400416 ) ) ;
#913 = VECTOR ( 'NONE', #389, 1000.000000000000000 ) ;
#914 = CYLINDRICAL_SURFACE ( 'NONE', #411, 0.04999999999999999584 ) ;
#915 = DIRECTION ( 'NONE',  ( -0.1622214211307625165, -0.1622214211307625165, 0.9733285267845751543 ) ) ;
#916 = PLANE ( 'NONE',  #511 ) ;
#917 = EDGE_LOOP ( 'NONE', ( #420, #1100, #581, #145 ) ) ;
#918 = ORIENTED_EDGE ( 'NONE', *, *, #526, .T. ) ;
#919 = CARTESIAN_POINT ( 'NONE',  ( -0.8899834988497121735, 0.1750000000000000167, 0.7400660062957549190 ) ) ;
#920 = DIRECTION ( 'NONE',  ( -0.0000000000000000000, -1.000000000000000000, -0.0000000000000000000 ) ) ;
#921 = CARTESIAN_POINT ( 'NONE',  ( 1.084274952072845855, -0.1750000000000000167, 0.6460963995152526618 ) ) ;
#922 = PLANE ( 'NONE',  #136 ) ;
#923 = ORIENTED_EDGE ( 'NONE', *, *, #235, .T. ) ;
#924 = SURFACE_STYLE_USAGE ( .BOTH. , #736 ) ;
#925 = CARTESIAN_POINT ( 'NONE',  ( 1.084274952074015141, 0.1750000000000000167, 0.6460963995138961913 ) ) ;
#926 = EDGE_LOOP ( 'NONE', ( #1181, #569, #386, #121 ) ) ;
#927 = EDGE_CURVE ( 'NONE', #891, #1033, #279, .T. ) ;
#928 = CARTESIAN_POINT ( 'NONE',  ( -0.9190141974084909959, 0.1750000000000000167, 0.8199999999007669960 ) ) ;
#929 = ORIENTED_EDGE ( 'NONE', *, *, #101, .F. ) ;
#930 = CARTESIAN_POINT ( 'NONE',  ( 0.0000000000000000000, 0.5750000000000000666, 1.100000000000000089 ) ) ;
#931 = SURFACE_SIDE_STYLE ('',( #570 ) ) ;
#932 = ADVANCED_FACE ( 'NONE', ( #536 ), #75, .T. ) ;
#933 = VECTOR ( 'NONE', #367, 1000.000000000000000 ) ;
#934 = CARTESIAN_POINT ( 'NONE',  ( 1.237430683998515635, -0.1750000000000000167, 0.1199999999998047490 ) ) ;
#935 = CARTESIAN_POINT ( 'NONE',  ( 1.188540563484023815, 0.1750000000000000167, 0.1595235455169336514 ) ) ;
#936 =( GEOMETRIC_REPRESENTATION_CONTEXT ( 3 ) GLOBAL_UNCERTAINTY_ASSIGNED_CONTEXT ( ( #1062 ) ) GLOBAL_UNIT_ASSIGNED_CONTEXT ( ( #1218, #550, #741 ) ) REPRESENTATION_CONTEXT ( 'NONE', 'WORKASPACE' ) );
#937 = CARTESIAN_POINT ( 'NONE',  ( -1.237430683999999781, 0.0000000000000000000, 0.1200000000000000233 ) ) ;
#938 = LINE ( 'NONE', #1126, #714 ) ;
#939 =( GEOMETRIC_REPRESENTATION_CONTEXT ( 3 ) GLOBAL_UNCERTAINTY_ASSIGNED_CONTEXT ( ( #223 ) ) GLOBAL_UNIT_ASSIGNED_CONTEXT ( ( #451, #1215, #841 ) ) REPRESENTATION_CONTEXT ( 'NONE', 'WORKASPACE' ) );
#940 = ORIENTED_EDGE ( 'NONE', *, *, #1136, .F. ) ;
#941 = B_SPLINE_CURVE_WITH_KNOTS ( 'NONE', 3,
 ( #663, #1047, #40, #699 ),
 .UNSPECIFIED., .F., .F.,
 ( 4, 4 ),
 ( 0.0000000000000000000, 1.000000000000000000 ),
 .UNSPECIFIED. ) ;
#942 = CARTESIAN_POINT ( 'NONE',  ( -0.9218222061321059702, -0.1750000000000000999, 0.8196220788558400416 ) ) ;
#943 = EDGE_LOOP ( 'NONE', ( #906, #652, #407, #809 ) ) ;
#944 = CARTESIAN_POINT ( 'NONE',  ( -1.237430683999999781, -0.1750000000000000167, 0.1700000000000000122 ) ) ;
#945 = FILL_AREA_STYLE ('',( #653 ) ) ;
#946 = LINE ( 'NONE', #110, #890 ) ;
#947 = CARTESIAN_POINT ( 'NONE',  ( -1.083061337999999818, 0.1750000000000000167, 0.07904709112999999676 ) ) ;
#948 = EDGE_CURVE ( 'NONE', #697, #811, #530, .T. ) ;
#949 = VERTEX_POINT ( 'NONE', #346 ) ;
#950 = ORIENTED_EDGE ( 'NONE', *, *, #1095, .F. ) ;
#951 = CARTESIAN_POINT ( 'NONE',  ( 1.214768967477713568, 0.1750000000000000167, 0.1200000000000000233 ) ) ;
#952 = CARTESIAN_POINT ( 'NONE',  ( -0.9595752919062938702, -0.1750000000000000167, 0.6553153044904392877 ) ) ;
#953 = CARTESIAN_POINT ( 'NONE',  ( 1.083061337584259487, -0.1750000000000000167, 0.07904709106287707843 ) ) ;
#954 = EDGE_CURVE ( 'NONE', #1145, #804, #843, .T. ) ;
#955 = ORIENTED_EDGE ( 'NONE', *, *, #1174, .T. ) ;
#956 = PLANE ( 'NONE',  #206 ) ;
#957 = FACE_OUTER_BOUND ( 'NONE', #26, .T. ) ;
#958 = VECTOR ( 'NONE', #879, 1000.000000000000227 ) ;
#959 = APPLICATION_CONTEXT ( 'automotive_design' ) ;
#960 = EDGE_LOOP ( 'NONE', ( #748, #439, #466, #722 ) ) ;
#961 = ORIENTED_EDGE ( 'NONE', *, *, #948, .F. ) ;
#962 = SURFACE_SIDE_STYLE ('',( #587 ) ) ;
#963 = LINE ( 'NONE', #395, #675 ) ;
#964 = DIRECTION ( 'NONE',  ( 0.0000000000000000000, 0.0000000000000000000, 1.000000000000000000 ) ) ;
#965 = ORIENTED_EDGE ( 'NONE', *, *, #954, .T. ) ;
#966 = SURFACE_STYLE_USAGE ( .BOTH. , #144 ) ;
#967 = CARTESIAN_POINT ( 'NONE',  ( 1.169043606278566072, 0.0000000000000000000, 0.2505093441598505444 ) ) ;
#968 = DIRECTION ( 'NONE',  ( 0.2425356250128035684, 0.0000000000000000000, -0.9701425001512141710 ) ) ;
#969 = PRESENTATION_LAYER_ASSIGNMENT (  '', '', ( #454 ) ) ;
#970 = SURFACE_STYLE_USAGE ( .BOTH. , #995 ) ;
#971 = VECTOR ( 'NONE', #1031, 1000.000000000000000 ) ;
#972 = VERTEX_POINT ( 'NONE', #752 ) ;
#973 = DIRECTION ( 'NONE',  ( 0.0000000000000000000, 1.000000000000000000, 0.0000000000000000000 ) ) ;
#974 = CARTESIAN_POINT ( 'NONE',  ( -1.214768967793121268, 0.1750000000000000167, 0.1200000006959038301 ) ) ;
#975 = CARTESIAN_POINT ( 'NONE',  ( -0.8691584210000004029, -0.05833333333333334814, 0.8199999999007671070 ) ) ;
#976 = CARTESIAN_POINT ( 'NONE',  ( -0.9000000003977585150, 0.0000000000000000000, 0.7000000000994398563 ) ) ;
#977 = ORIENTED_EDGE ( 'NONE', *, *, #859, .T. ) ;
#978 = DIRECTION ( 'NONE',  ( 1.000000000000000000, 0.0000000000000000000, 0.0000000000000000000 ) ) ;
#979 = SURFACE_STYLE_FILL_AREA ( #704 ) ;
#980 = CARTESIAN_POINT ( 'NONE',  ( -0.9327446484750459010, 0.1750000000000000167, 0.6848043933463777710 ) ) ;
#981 = EDGE_CURVE ( 'NONE', #623, #982, #1141, .T. ) ;
#982 = VERTEX_POINT ( 'NONE', #1118 ) ;
#983 = DIRECTION ( 'NONE',  ( 0.0000000000000000000, 0.0000000000000000000, 1.000000000000000000 ) ) ;
#984 = CARTESIAN_POINT ( 'NONE',  ( -1.188540563823750285, 0.1750000000000000167, 0.1595235455912500100 ) ) ;
#985 = DIRECTION ( 'NONE',  ( -0.2095290886967271227, 0.0000000000000000000, 0.9778024140847264567 ) ) ;
#986 = PRESENTATION_LAYER_ASSIGNMENT (  '', '', ( #1009 ) ) ;
#987 = ORIENTED_EDGE ( 'NONE', *, *, #864, .T. ) ;
#988 = ADVANCED_FACE ( 'NONE', ( #256 ), #640, .T. ) ;
#989 =( GEOMETRIC_REPRESENTATION_CONTEXT ( 3 ) GLOBAL_UNCERTAINTY_ASSIGNED_CONTEXT ( ( #471 ) ) GLOBAL_UNIT_ASSIGNED_CONTEXT ( ( #885, #57, #232 ) ) REPRESENTATION_CONTEXT ( 'NONE', 'WORKASPACE' ) );
#990 = CARTESIAN_POINT ( 'NONE',  ( 0.0000000000000000000, 0.1750000000000000167, 0.0000000000000000000 ) ) ;
#991 = COLOUR_RGB ( '',0.6196078431372549211, 0.6196078431372549211, 0.6196078431372549211 ) ;
#992 = EDGE_CURVE ( 'NONE', #283, #275, #1059, .T. ) ;
#993 = SURFACE_STYLE_FILL_AREA ( #819 ) ;
#994 = DIRECTION ( 'NONE',  ( 0.0000000000000000000, -0.0000000000000000000, 1.000000000000000000 ) ) ;
#995 = SURFACE_SIDE_STYLE ('',( #717 ) ) ;
#996 = ORIENTED_EDGE ( 'NONE', *, *, #321, .F. ) ;
#997 = EDGE_CURVE ( 'NONE', #702, #1, #385, .T. ) ;
#998 = CARTESIAN_POINT ( 'NONE',  ( 1.237430683999999781, -0.1750000000000000167, 0.1700000000000000122 ) ) ;
#999 = EDGE_LOOP ( 'NONE', ( #743, #277, #863, #837 ) ) ;
#1000 = DIRECTION ( 'NONE',  ( -1.000000000000000000, 0.0000000000000000000, -0.0000000000000000000 ) ) ;
#1001 = ORIENTED_EDGE ( 'NONE', *, *, #744, .T. ) ;
#1002 = CARTESIAN_POINT ( 'NONE',  ( -0.3000000000000000444, -0.1916666666666667074, 1.100000000000000089 ) ) ;
#1003 = CARTESIAN_POINT ( 'NONE',  ( 1.084274952072845855, -0.1750000000000000167, 0.6460963995152526618 ) ) ;
#1004 = DIRECTION ( 'NONE',  ( 0.0000000000000000000, 0.0000000000000000000, 1.000000000000000000 ) ) ;
#1005 =( LENGTH_UNIT ( ) NAMED_UNIT ( * ) SI_UNIT ( .MILLI., .METRE. ) );
#1006 = DIRECTION ( 'NONE',  ( 0.0000000000000000000, 1.000000000000000000, 0.0000000000000000000 ) ) ;
#1007 = B_SPLINE_CURVE_WITH_KNOTS ( 'NONE', 3,
 ( #836, #541, #1219, #537 ),
 .UNSPECIFIED., .F., .F.,
 ( 4, 4 ),
 ( 0.0000000000000000000, 1.000000000000000000 ),
 .UNSPECIFIED. ) ;
#1008 = VERTEX_POINT ( 'NONE', #769 ) ;
#1009 = STYLED_ITEM ( 'NONE', ( #1106 ), #6 ) ;
#1010 = CARTESIAN_POINT ( 'NONE',  ( -0.8996143177426213500, 0.1750000000000000167, 0.6976859052593303856 ) ) ;
#1011 = DIRECTION ( 'NONE',  ( 0.0000000000000000000, -0.0000000000000000000, 1.000000000000000000 ) ) ;
#1012 = VECTOR ( 'NONE', #347, 1000.000000000000000 ) ;
#1013 = PRESENTATION_STYLE_ASSIGNMENT (( #564 ) ) ;
#1014 = CARTESIAN_POINT ( 'NONE',  ( -0.7999999999967120079, -0.5750000000443878934, 0.09999999999561604014 ) ) ;
#1015 = CARTESIAN_POINT ( 'NONE',  ( 0.0000000000000000000, 0.0000000000000000000, 0.1200000000000000233 ) ) ;
#1016 = SURFACE_STYLE_USAGE ( .BOTH. , #630 ) ;
#1017 = EDGE_CURVE ( 'NONE', #797, #345, #382, .T. ) ;
#1018 = PRODUCT_DEFINITION_CONTEXT ( 'detailed design', #959, 'design' ) ;
#1019 = ORIENTED_EDGE ( 'NONE', *, *, #927, .T. ) ;
#1020 = CARTESIAN_POINT ( 'NONE',  ( -0.3000000000000000444, 0.5750000000068719030, 1.102500000001717773 ) ) ;
#1021 = CARTESIAN_POINT ( 'NONE',  ( 0.0000000000000000000, -0.1750000000000000167, 0.0000000000000000000 ) ) ;
#1022 = VERTEX_POINT ( 'NONE', #683 ) ;
#1023 = DIRECTION ( 'NONE',  ( 0.0000000000000000000, -1.000000000000000000, -0.0000000000000000000 ) ) ;
#1024 = CARTESIAN_POINT ( 'NONE',  ( 0.8999999999901364678, 0.6750000000000001554, 0.7000000000016440849 ) ) ;
#1025 =( NAMED_UNIT ( * ) SI_UNIT ( $, .STERADIAN. ) SOLID_ANGLE_UNIT ( ) );
#1026 = PRESENTATION_STYLE_ASSIGNMENT (( #1016 ) ) ;
#1027 = EDGE_CURVE ( 'NONE', #489, #170, #198, .T. ) ;
#1028 = B_SPLINE_CURVE_WITH_KNOTS ( 'NONE', 3,
 ( #672, #847, #372, #583 ),
 .UNSPECIFIED., .F., .F.,
 ( 4, 4 ),
 ( 0.0000000000000000000, 1.000000000000000000 ),
 .UNSPECIFIED. ) ;
#1029 = LINE ( 'NONE', #362, #360 ) ;
#1030 = CARTESIAN_POINT ( 'NONE',  ( 1.046238627527648291, -0.1749999999999999889, 0.7397433322189698179 ) ) ;
#1031 = DIRECTION ( 'NONE',  ( 0.0000000000000000000, 1.000000000000000000, 0.0000000000000000000 ) ) ;
#1032 = DIRECTION ( 'NONE',  ( 0.0000000000000000000, 0.0000000000000000000, -1.000000000000000000 ) ) ;
#1033 = VERTEX_POINT ( 'NONE', #573 ) ;
#1034 = MECHANICAL_DESIGN_GEOMETRIC_PRESENTATION_REPRESENTATION (  '', ( #1139 ), #750 ) ;
#1035 = CARTESIAN_POINT ( 'NONE',  ( 1.237430683999999781, 0.1750000000000000167, 0.1200000000000000233 ) ) ;
#1036 = STYLED_ITEM ( 'NONE', ( #1070 ), #473 ) ;
#1037 = CARTESIAN_POINT ( 'NONE',  ( 0.0000000000000000000, 0.8000000000242537546, 0.1999999999854479293 ) ) ;
#1038 =( GEOMETRIC_REPRESENTATION_CONTEXT ( 3 ) GLOBAL_UNCERTAINTY_ASSIGNED_CONTEXT ( ( #1203 ) ) GLOBAL_UNIT_ASSIGNED_CONTEXT ( ( #871, #295, #119 ) ) REPRESENTATION_CONTEXT ( 'NONE', 'WORKASPACE' ) );
#1039 = DIRECTION ( 'NONE',  ( 0.0000000000000000000, 0.0000000000000000000, -1.000000000000000000 ) ) ;
#1040 = ORIENTED_EDGE ( 'NONE', *, *, #686, .T. ) ;
#1041 = FILL_AREA_STYLE_COLOUR ( '', #392 ) ;
#1042 = ORIENTED_EDGE ( 'NONE', *, *, #674, .F. ) ;
#1043 = B_SPLINE_CURVE_WITH_KNOTS ( 'NONE', 3,
 ( #422, #807, #1188, #713 ),
 .UNSPECIFIED., .F., .F.,
 ( 4, 4 ),
 ( 0.0000000000000000000, 1.000000000000000000 ),
 .UNSPECIFIED. ) ;
#1044 = CARTESIAN_POINT ( 'NONE',  ( 1.193288852181060067, 0.1750000000000000167, 0.1373648643421708782 ) ) ;
#1045 = EDGE_CURVE ( 'NONE', #189, #797, #494, .T. ) ;
#1046 = ADVANCED_BREP_SHAPE_REPRESENTATION ( 'BBBE31E5-EA78-47BF-A5F9-230F80F2E3D7', ( #575, #1084 ), #939 ) ;
#1047 = CARTESIAN_POINT ( 'NONE',  ( -0.8899834988497121735, -0.1750000000000000167, 0.7400660062957549190 ) ) ;
#1048 = CARTESIAN_POINT ( 'NONE',  ( 0.9000000000000001332, -0.6750000000443878712, 0.6999999999926023175 ) ) ;
#1049 = B_SPLINE_CURVE_WITH_KNOTS ( 'NONE', 3,
 ( #547, #928, #89, #450, #1096, #712 ),
 .UNSPECIFIED., .F., .F.,
 ( 4, 2, 4 ),
 ( 0.0000000000000000000, 0.5000000000000000000, 1.000000000000000000 ),
 .UNSPECIFIED. ) ;
#1050 = EDGE_CURVE ( 'NONE', #446, #1033, #483, .T. ) ;
#1051 = VERTEX_POINT ( 'NONE', #41 ) ;
#1052 = ORIENTED_EDGE ( 'NONE', *, *, #423, .F. ) ;
#1053 = CARTESIAN_POINT ( 'NONE',  ( 0.8000000004074599991, 0.5750000000000000666, 1.100000000101865050 ) ) ;
#1054 = DIRECTION ( 'NONE',  ( 1.000000000000000000, 0.0000000000000000000, -0.0000000000000000000 ) ) ;
#1055 = ORIENTED_EDGE ( 'NONE', *, *, #328, .T. ) ;
#1056 = VECTOR ( 'NONE', #468, 1000.000000000000000 ) ;
#1057 = AXIS2_PLACEMENT_3D ( 'NONE', #1073, #964, #8 ) ;
#1058 = STYLED_ITEM ( 'NONE', ( #459 ), #892 ) ;
#1059 = B_SPLINE_CURVE_WITH_KNOTS ( 'NONE', 3,
 ( #305, #1161, #127, #953 ),
 .UNSPECIFIED., .F., .F.,
 ( 4, 4 ),
 ( 0.0000000000000000000, 1.000000000000000000 ),
 .UNSPECIFIED. ) ;
#1060 = ADVANCED_FACE ( 'NONE', ( #957 ), #759, .T. ) ;
#1061 = VECTOR ( 'NONE', #994, 1000.000000000000000 ) ;
#1062 = UNCERTAINTY_MEASURE_WITH_UNIT (LENGTH_MEASURE( 1.000000000000000082E-05 ), #1218, 'distance_accuracy_value', 'NONE');
#1063 = EDGE_CURVE ( 'NONE', #103, #345, #1154, .T. ) ;
#1064 = ORIENTED_EDGE ( 'NONE', *, *, #1174, .F. ) ;
#1065 = LINE ( 'NONE', #610, #874 ) ;
#1066 = CARTESIAN_POINT ( 'NONE',  ( 0.0000000000000000000, -0.6750000000315298232, 0.7000000000078824280 ) ) ;
#1067 = CARTESIAN_POINT ( 'NONE',  ( 0.8000000000000000444, -0.5750000000412311962, 1.100000000010308066 ) ) ;
#1068 = DIRECTION ( 'NONE',  ( -0.9778024140847265677, 0.0000000000000000000, 0.2095290886967271504 ) ) ;
#1069 = EDGE_LOOP ( 'NONE', ( #427, #1120, #1138, #371 ) ) ;
#1070 = PRESENTATION_STYLE_ASSIGNMENT (( #776 ) ) ;
#1071 = DIRECTION ( 'NONE',  ( -1.000000000000000000, -0.0000000000000000000, -0.0000000000000000000 ) ) ;
#1072 = DIRECTION ( 'NONE',  ( -0.0000000000000000000, -1.000000000000000000, -0.0000000000000000000 ) ) ;
#1073 = CARTESIAN_POINT ( 'NONE',  ( 0.0000000000000000000, 0.0000000000000000000, 0.1200000000000000233 ) ) ;
#1074 = UNCERTAINTY_MEASURE_WITH_UNIT (LENGTH_MEASURE( 1.000000000000000082E-05 ), #888, 'distance_accuracy_value', 'NONE');
#1075 = ORIENTED_EDGE ( 'NONE', *, *, #1017, .T. ) ;
#1076 = EDGE_CURVE ( 'NONE', #982, #749, #1166, .T. ) ;
#1077 = DIRECTION ( 'NONE',  ( 0.0000000000000000000, -0.0000000000000000000, 1.000000000000000000 ) ) ;
#1078 = DIRECTION ( 'NONE',  ( 0.0000000000000000000, 0.0000000000000000000, -1.000000000000000000 ) ) ;
#1079 = LINE ( 'NONE', #49, #172 ) ;
#1080 = AXIS2_PLACEMENT_3D ( 'NONE', #719, #832, #1124 ) ;
#1081 = COLOUR_RGB ( '',0.1215686274509803905, 0.1215686274509803905, 0.1215686274509803905 ) ;
#1082 = CARTESIAN_POINT ( 'NONE',  ( -1.180841579000000197, 0.1750000000000000167, 1.996683119407163809E-10 ) ) ;
#1083 = AXIS2_PLACEMENT_3D ( 'NONE', #861, #25, #1149 ) ;
#1084 = AXIS2_PLACEMENT_3D ( 'NONE', #1129, #1004, #645 ) ;
#1085 = ORIENTED_EDGE ( 'NONE', *, *, #1148, .T. ) ;
#1086 = ADVANCED_FACE ( 'NONE', ( #203 ), #479, .F. ) ;
#1087 = CARTESIAN_POINT ( 'NONE',  ( 0.8695544583778576087, 0.1749999999999999889, 0.8200990093447650953 ) ) ;
#1088 = CARTESIAN_POINT ( 'NONE',  ( -1.083061337681877623, 0.1750000000000000167, 0.07904709108379522065 ) ) ;
#1089 = ORIENTED_EDGE ( 'NONE', *, *, #1045, .T. ) ;
#1090 = FILL_AREA_STYLE ('',( #138 ) ) ;
#1091 = DIRECTION ( 'NONE',  ( -0.2095290895954797228, 0.0000000000000000000, 0.9778024138921366237 ) ) ;
#1092 = LINE ( 'NONE', #405, #37 ) ;
#1093 = ADVANCED_FACE ( 'NONE', ( #504 ), #788, .T. ) ;
#1094 = EDGE_LOOP ( 'NONE', ( #496, #380, #337, #506 ) ) ;
#1095 = EDGE_CURVE ( 'NONE', #521, #414, #1092, .T. ) ;
#1096 = CARTESIAN_POINT ( 'NONE',  ( -1.073828716601159083, 0.1750000000000000444, 0.6948454980279261672 ) ) ;
#1097 = LINE ( 'NONE', #813, #1061 ) ;
#1098 = LINE ( 'NONE', #976, #151 ) ;
#1099 = EDGE_CURVE ( 'NONE', #761, #881, #594, .T. ) ;
#1100 = ORIENTED_EDGE ( 'NONE', *, *, #687, .T. ) ;
#1101 =( GEOMETRIC_REPRESENTATION_CONTEXT ( 3 ) GLOBAL_UNCERTAINTY_ASSIGNED_CONTEXT ( ( #904 ) ) GLOBAL_UNIT_ASSIGNED_CONTEXT ( ( #361, #458, #364 ) ) REPRESENTATION_CONTEXT ( 'NONE', 'WORKASPACE' ) );
#1102 = VECTOR ( 'NONE', #1072, 1000.000000000000000 ) ;
#1103 = CARTESIAN_POINT ( 'NONE',  ( -1.180841579000000197, -0.1750000000000000167, 1.992777924825824692E-10 ) ) ;
#1104 = CARTESIAN_POINT ( 'NONE',  ( 1.092557915279889214, 0.1750000000000000167, 0.03472972876291141597 ) ) ;
#1105 = LINE ( 'NONE', #622, #512 ) ;
#1106 = PRESENTATION_STYLE_ASSIGNMENT (( #726 ) ) ;
#1107 = CARTESIAN_POINT ( 'NONE',  ( -0.9000000000000001332, -0.6750000000315298232, 0.7000000000078824280 ) ) ;
#1108 = ORIENTED_EDGE ( 'NONE', *, *, #803, .F. ) ;
#1109 = CARTESIAN_POINT ( 'NONE',  ( 0.9675229471601056730, 0.1750000000000000167, 0.8036454911719155270 ) ) ;
#1110 = B_SPLINE_CURVE_WITH_KNOTS ( 'NONE', 3,
 ( #1035, #951, #1044, #840 ),
 .UNSPECIFIED., .F., .F.,
 ( 4, 4 ),
 ( 0.0000000000000000000, 1.000000000000000000 ),
 .UNSPECIFIED. ) ;
#1111 = DIRECTION ( 'NONE',  ( 0.0000000000000000000, -1.000000000000000000, -0.0000000000000000000 ) ) ;
#1112 = EDGE_CURVE ( 'NONE', #823, #646, #1079, .T. ) ;
#1113 = FILL_AREA_STYLE ('',( #820 ) ) ;
#1114 = DIRECTION ( 'NONE',  ( 0.0000000000000000000, -0.1643989873053573469, 0.9863939238321436376 ) ) ;
#1115 = ORIENTED_EDGE ( 'NONE', *, *, #131, .T. ) ;
#1116 = CARTESIAN_POINT ( 'NONE',  ( -1.300000000000000266, 0.0000000000000000000, -0.0000000000000000000 ) ) ;
#1117 = SURFACE_SIDE_STYLE ('',( #993 ) ) ;
#1118 = CARTESIAN_POINT ( 'NONE',  ( 1.300000000000000266, 0.1750000000000000167, 0.1200000000000000233 ) ) ;
#1119 = FACE_OUTER_BOUND ( 'NONE', #781, .T. ) ;
#1120 = ORIENTED_EDGE ( 'NONE', *, *, #90, .T. ) ;
#1121 = DIRECTION ( 'NONE',  ( -1.000000000000000000, 0.0000000000000000000, -0.0000000000000000000 ) ) ;
#1122 = CARTESIAN_POINT ( 'NONE',  ( 1.073014505067018565, 0.1750000000000000444, 0.6968642075824593718 ) ) ;
#1123 = STYLED_ITEM ( 'NONE', ( #30 ), #1060 ) ;
#1124 = DIRECTION ( 'NONE',  ( 0.0000000000000000000, 0.0000000000000000000, 1.000000000000000000 ) ) ;
#1125 = ADVANCED_FACE ( 'NONE', ( #1179 ), #429, .T. ) ;
#1126 = CARTESIAN_POINT ( 'NONE',  ( 0.8992286350577040066, 0.0000000000000000000, 0.6953718104070496508 ) ) ;
#1127 = ORIENTED_EDGE ( 'NONE', *, *, #370, .T. ) ;
#1128 = ORIENTED_EDGE ( 'NONE', *, *, #162, .F. ) ;
#1129 = CARTESIAN_POINT ( 'NONE',  ( 0.0000000000000000000, 0.0000000000000000000, 0.0000000000000000000 ) ) ;
#1130 = FACE_OUTER_BOUND ( 'NONE', #442, .T. ) ;
#1131 = LINE ( 'NONE', #167, #1012 ) ;
#1132 = DIRECTION ( 'NONE',  ( 0.0000000000000000000, 1.000000000000000000, 0.0000000000000000000 ) ) ;
#1133 = ORIENTED_EDGE ( 'NONE', *, *, #321, .T. ) ;
#1134 = DIRECTION ( 'NONE',  ( -1.000000000000000000, -0.0000000000000000000, 0.0000000000000000000 ) ) ;
#1135 = ORIENTED_EDGE ( 'NONE', *, *, #162, .T. ) ;
#1136 = EDGE_CURVE ( 'NONE', #142, #823, #331, .T. ) ;
#1137 =( LENGTH_UNIT ( ) NAMED_UNIT ( * ) SI_UNIT ( .MILLI., .METRE. ) );
#1138 = ORIENTED_EDGE ( 'NONE', *, *, #674, .T. ) ;
#1139 = STYLED_ITEM ( 'NONE', ( #1208 ), #248 ) ;
#1140 = VECTOR ( 'NONE', #1077, 1000.000000000000000 ) ;
#1141 = LINE ( 'NONE', #285, #261 ) ;
#1142 = ORIENTED_EDGE ( 'NONE', *, *, #233, .F. ) ;
#1143 = CARTESIAN_POINT ( 'NONE',  ( 1.083061337583877792, 0.1750000000000000167, 0.07904709106279525499 ) ) ;
#1144 = CARTESIAN_POINT ( 'NONE',  ( 0.0000000000000000000, -0.1750000000000000167, 0.1200000000000000233 ) ) ;
#1145 = VERTEX_POINT ( 'NONE', #1088 ) ;
#1146 = ORIENTED_EDGE ( 'NONE', *, *, #526, .F. ) ;
#1147 = B_SPLINE_CURVE_WITH_KNOTS ( 'NONE', 3,
 ( #264, #253, #344, #723 ),
 .UNSPECIFIED., .F., .F.,
 ( 4, 4 ),
 ( 0.0000000000000000000, 1.000000000000000000 ),
 .UNSPECIFIED. ) ;
#1148 = EDGE_CURVE ( 'NONE', #646, #876, #607, .T. ) ;
#1149 = DIRECTION ( 'NONE',  ( 0.2095290886967271227, 0.0000000000000000000, 0.9778024140847264567 ) ) ;
#1150 = ADVANCED_FACE ( 'NONE', ( #1184 ), #1172, .T. ) ;
#1151 = ORIENTED_EDGE ( 'NONE', *, *, #503, .F. ) ;
#1152 =( LENGTH_UNIT ( ) NAMED_UNIT ( * ) SI_UNIT ( .MILLI., .METRE. ) );
#1153 = CARTESIAN_POINT ( 'NONE',  ( 0.9669386623774103295, 0.0000000000000000000, 0.6209529088951593057 ) ) ;
#1154 = LINE ( 'NONE', #778, #1193 ) ;
#1155 = AXIS2_PLACEMENT_3D ( 'NONE', #212, #973, #682 ) ;
#1156 = PLANE ( 'NONE',  #532 ) ;
#1157 = COLOUR_RGB ( '',0.1215686274509803905, 0.1215686274509803905, 0.1215686274509803905 ) ;
#1158 = ORIENTED_EDGE ( 'NONE', *, *, #997, .F. ) ;
#1159 = DIRECTION ( 'NONE',  ( 0.0000000000000000000, 1.000000000000000000, 0.0000000000000000000 ) ) ;
#1160 = CARTESIAN_POINT ( 'NONE',  ( -0.8996143177413211678, -0.1750000000000000167, 0.6976859052595673072 ) ) ;
#1161 = CARTESIAN_POINT ( 'NONE',  ( 1.135518145908400278, -0.1750000000000000167, -5.550519726199730450E-18 ) ) ;
#1162 = ORIENTED_EDGE ( 'NONE', *, *, #43, .F. ) ;
#1163 = EDGE_CURVE ( 'NONE', #455, #446, #1097, .T. ) ;
#1164 = PLANE ( 'NONE',  #207 ) ;
#1165 = PLANE ( 'NONE',  #613 ) ;
#1166 = LINE ( 'NONE', #290, #814 ) ;
#1167 = DIRECTION ( 'NONE',  ( 0.0000000000000000000, -0.9701425001512142821, 0.2425356250128035962 ) ) ;
#1168 = ORIENTED_EDGE ( 'NONE', *, *, #1112, .T. ) ;
#1169 = EDGE_CURVE ( 'NONE', #646, #1145, #1043, .T. ) ;
#1170 = CARTESIAN_POINT ( 'NONE',  ( -1.300000000000000266, -0.1750000000000000167, 0.1200000000000000233 ) ) ;
#1171 = DIRECTION ( 'NONE',  ( -0.0000000000000000000, -1.000000000000000000, -0.0000000000000000000 ) ) ;
#1172 = PLANE ( 'NONE',  #715 ) ;
#1173 = COLOUR_RGB ( '',0.1215686274509803905, 0.1215686274509803905, 0.1215686274509803905 ) ;
#1174 = EDGE_CURVE ( 'NONE', #576, #797, #1105, .T. ) ;
#1175 = FACE_OUTER_BOUND ( 'NONE', #112, .T. ) ;
#1176 = AXIS2_PLACEMENT_3D ( 'NONE', #426, #730, #737 ) ;
#1177 = ORIENTED_EDGE ( 'NONE', *, *, #338, .F. ) ;
#1178 = DIRECTION ( 'NONE',  ( 0.0000000000000000000, 1.000000000000000000, 0.0000000000000000000 ) ) ;
#1179 = FACE_OUTER_BOUND ( 'NONE', #574, .T. ) ;
#1180 = FILL_AREA_STYLE ('',( #424 ) ) ;
#1181 = ORIENTED_EDGE ( 'NONE', *, *, #54, .T. ) ;
#1182 = CARTESIAN_POINT ( 'NONE',  ( -0.9669386624025001487, 0.1750000000000000167, 0.6209529088924999884 ) ) ;
#1183 = CARTESIAN_POINT ( 'NONE',  ( 0.8799669973016659430, 0.1750000000000000167, 0.7801320124920698706 ) ) ;
#1184 = FACE_OUTER_BOUND ( 'NONE', #61, .T. ) ;
#1185 = PLANE ( 'NONE',  #317 ) ;
#1186 = ORIENTED_EDGE ( 'NONE', *, *, #1095, .T. ) ;
#1187 = CARTESIAN_POINT ( 'NONE',  ( -0.7999999999901362679, 0.5750000000000000666, 0.1000000000016439683 ) ) ;
#1188 = CARTESIAN_POINT ( 'NONE',  ( -1.092557915632438315, 0.1750000000000000167, 0.03472972902355953712 ) ) ;
#1189 = CARTESIAN_POINT ( 'NONE',  ( 1.300000000000000266, 0.0000000000000000000, 0.0000000000000000000 ) ) ;
#1190 = EDGE_CURVE ( 'NONE', #70, #189, #311, .T. ) ;
#1191 = VECTOR ( 'NONE', #161, 1000.000000000000000 ) ;
#1192 = ORIENTED_EDGE ( 'NONE', *, *, #370, .F. ) ;
#1193 = VECTOR ( 'NONE', #133, 1000.000000000000000 ) ;
#1194 = CARTESIAN_POINT ( 'NONE',  ( -1.300000000000000266, 0.1750000000000000167, 0.0000000000000000000 ) ) ;
#1195 = ORIENTED_EDGE ( 'NONE', *, *, #216, .F. ) ;
#1196 = PLANE ( 'NONE',  #221 ) ;
#1197 = ORIENTED_EDGE ( 'NONE', *, *, #1050, .T. ) ;
#1198 = VERTEX_POINT ( 'NONE', #352 ) ;
#1199 = CARTESIAN_POINT ( 'NONE',  ( -0.3000000000000000444, 0.1916666666666667074, 1.100000000000000089 ) ) ;
#1200 = DIRECTION ( 'NONE',  ( 0.0000000000000000000, 0.0000000000000000000, 1.000000000000000000 ) ) ;
#1201 = CARTESIAN_POINT ( 'NONE',  ( 1.300000000000000266, 0.0000000000000000000, 0.0000000000000000000 ) ) ;
#1202 = DIRECTION ( 'NONE',  ( 0.0000000000000000000, 1.000000000000000000, 0.0000000000000000000 ) ) ;
#1203 = UNCERTAINTY_MEASURE_WITH_UNIT (LENGTH_MEASURE( 1.000000000000000082E-05 ), #871, 'distance_accuracy_value', 'NONE');
#1204 = EDGE_LOOP ( 'NONE', ( #10, #78, #996, #265, #402, #929, #658, #320 ) ) ;
#1205 = CARTESIAN_POINT ( 'NONE',  ( 0.0000000000000000000, 0.0000000000000000000, 0.0000000000000000000 ) ) ;
#1206 = FILL_AREA_STYLE_COLOUR ( '', #96 ) ;
#1207 = EDGE_CURVE ( 'NONE', #52, #604, #1029, .T. ) ;
#1208 = PRESENTATION_STYLE_ASSIGNMENT (( #825 ) ) ;
#1209 = DIRECTION ( 'NONE',  ( -0.9863939238321437486, 0.0000000000000000000, -0.1643989873053573747 ) ) ;
#1210 = ORIENTED_EDGE ( 'NONE', *, *, #543, .F. ) ;
#1211 = DIRECTION ( 'NONE',  ( 0.2095290886967271227, 0.0000000000000000000, 0.9778024140847264567 ) ) ;
#1212 = MECHANICAL_DESIGN_GEOMETRIC_PRESENTATION_REPRESENTATION (  '', ( #1036 ), #615 ) ;
#1213 = CYLINDRICAL_SURFACE ( 'NONE', #477, 0.2199999999007670182 ) ;
#1214 = VECTOR ( 'NONE', #588, 1000.000000000000000 ) ;
#1215 =( NAMED_UNIT ( * ) PLANE_ANGLE_UNIT ( ) SI_UNIT ( $, .RADIAN. ) );
#1216 = EDGE_CURVE ( 'NONE', #555, #103, #267, .T. ) ;
#1217 = CARTESIAN_POINT ( 'NONE',  ( 0.9327446484603557630, 0.1750000000000000167, 0.6848043933267856653 ) ) ;
#1218 =( LENGTH_UNIT ( ) NAMED_UNIT ( * ) SI_UNIT ( .MILLI., .METRE. ) );
#1219 = CARTESIAN_POINT ( 'NONE',  ( 0.8899834988497121735, -0.1750000000000000167, 0.7400660062957549190 ) ) ;
ENDSEC;
END-ISO-10303-21;
